<?xml version="1.0" encoding="UTF-8" standalone="no"?>
<!-- Created with Inkscape (http://www.inkscape.org/) -->

<svg
   version="1.1"
   id="svg1"
   width="1058.6997"
   height="73.572395"
   viewBox="0 0 1058.6997 73.572396"
   sodipodi:docname="Aalberts_footer.svg"
   inkscape:version="1.4.3 (0d15f75, 2025-12-25)"
   xmlns:inkscape="http://www.inkscape.org/namespaces/inkscape"
   xmlns:sodipodi="http://sodipodi.sourceforge.net/DTD/sodipodi-0.dtd"
   xmlns="http://www.w3.org/2000/svg"
   xmlns:svg="http://www.w3.org/2000/svg">
  <defs
     id="defs1" />
  <sodipodi:namedview
     id="namedview1"
     pagecolor="#ffffff"
     bordercolor="#000000"
     borderopacity="0.25"
     inkscape:showpageshadow="2"
     inkscape:pageopacity="0.0"
     inkscape:pagecheckerboard="0"
     inkscape:deskcolor="#d1d1d1"
     inkscape:window-width="1920"
     inkscape:window-height="1129"
     inkscape:window-x="1912"
     inkscape:window-y="-8"
     inkscape:window-maximized="1"
     inkscape:current-layer="g1">
    <inkscape:page
       x="0"
       y="0"
       inkscape:label="1"
       id="page1"
       width="1058.6997"
       height="73.572395"
       margin="0"
       bleed="0" />
  </sodipodi:namedview>
  <g
     id="g1"
     inkscape:groupmode="layer"
     inkscape:label="1"
     transform="translate(-32.134934,-689.78375)">
    <g
       id="group-R5"
       transform="matrix(0.95818412,0,0,0.95818412,23.478983,30.382164)">
      <path
         id="path2"
         d="m 8181.17,330.129 h -77.02 v 115.84 h -92.3 l 51.55,76.66 h 40.75 V 639.801 L 7896.03,330.129 h -92.92 l 77.96,115.84 h -77.86 l 25.5,37.742 c 0,0 24.08,38.891 64.53,38.891 h 39.28 l 146.35,217.91 c 0,0 24.12,38.91 64.58,38.91 h 37.72 V 330.129"
         style="fill:#d21d34;fill-opacity:1;fill-rule:nonzero;stroke:none"
         transform="matrix(0.13333333,0,0,-0.13333333,0,793.70667)" />
      <path
         id="path3"
         d="m 7765.98,246.641 v 0.23 c 0,13.027 10.55,19.84 25.92,19.84 7.75,0 13.14,-1.07 18.54,-2.59 V 266 c 0,10.789 -6.57,16.422 -17.95,16.422 -7.15,0 -12.78,-1.762 -18.41,-4.344 l -2.7,7.391 c 6.68,3.051 13.14,5.16 22.05,5.16 8.56,0 15.25,-2.348 19.59,-6.688 4.22,-4.222 6.34,-10.089 6.34,-17.832 v -37.07 h -8.92 v 9.039 c -4.22,-5.398 -11.14,-10.328 -21.83,-10.328 -11.37,0 -22.63,6.469 -22.63,18.891 m 44.58,4.687 v 5.633 c -4.47,1.289 -10.34,2.578 -17.72,2.578 -11.26,0 -17.71,-4.91 -17.71,-12.199 v -0.219 c 0,-7.641 7.04,-12.082 15.25,-12.082 11.13,0 20.18,6.68 20.18,16.289"
         style="fill:#d21d34;fill-opacity:1;fill-rule:nonzero;stroke:none"
         transform="matrix(0.13333333,0,0,-0.13333333,0,793.70667)" />
      <path
         id="path4"
         d="m 7826.87,246.641 v 0.23 c 0,13.027 10.55,19.84 25.91,19.84 7.76,0 13.14,-1.07 18.54,-2.59 V 266 c 0,10.789 -6.56,16.422 -17.95,16.422 -7.15,0 -12.77,-1.762 -18.42,-4.344 l -2.68,7.391 c 6.68,3.051 13.13,5.16 22.05,5.16 8.55,0 15.24,-2.348 19.59,-6.688 4.22,-4.222 6.33,-10.089 6.33,-17.832 v -37.07 h -8.92 v 9.039 c -4.22,-5.398 -11.13,-10.328 -21.82,-10.328 -11.37,0 -22.63,6.469 -22.63,18.891 m 44.58,4.687 v 5.633 c -4.47,1.289 -10.34,2.578 -17.73,2.578 -11.26,0 -17.7,-4.91 -17.7,-12.199 v -0.219 c 0,-7.641 7.04,-12.082 15.24,-12.082 11.14,0 20.19,6.68 20.19,16.289"
         style="fill:#d21d34;fill-opacity:1;fill-rule:nonzero;stroke:none"
         transform="matrix(0.13333333,0,0,-0.13333333,0,793.70667)" />
      <path
         id="path5"
         d="m 7893.14,229.039 h 9.05 v 78.949 h -9.05 v -78.949"
         style="fill:#d21d34;fill-opacity:1;fill-rule:nonzero;stroke:none"
         transform="matrix(0.13333333,0,0,-0.13333333,0,793.70667)" />
      <path
         id="path6"
         d="m 7925.17,240.66 v -11.609 h -9.03 v 78.929 h 9.03 v -30.488 c 4.93,7.278 12.08,13.496 23.23,13.496 14.54,0 28.97,-11.5 28.97,-31.437 v -0.242 c 0,-19.821 -14.31,-31.547 -28.97,-31.547 -11.26,0 -18.54,6.09 -23.23,12.898 m 42.94,18.531 v 0.239 c 0,14.312 -9.86,23.461 -21.35,23.461 -11.27,0 -21.95,-9.512 -21.95,-23.34 v -0.242 c 0,-14.071 10.68,-23.457 21.95,-23.457 11.72,0 21.35,8.679 21.35,23.339"
         style="fill:#d21d34;fill-opacity:1;fill-rule:nonzero;stroke:none"
         transform="matrix(0.13333333,0,0,-0.13333333,0,793.70667)" />
      <path
         id="path7"
         d="m 8013.74,235.488 c 8.33,0 14.19,3.403 19.12,8.571 l 5.63,-5.039 c -6.1,-6.809 -13.49,-11.391 -24.98,-11.391 -16.66,0 -30.27,12.801 -30.27,31.672 0,17.609 12.32,31.679 29.08,31.679 17.96,0 28.28,-14.308 28.28,-32.152 0,-0.816 0,-1.746 -0.12,-3.148 h -48.09 c 1.29,-12.789 10.67,-20.192 21.35,-20.192 m 17.71,27.461 c -1.05,11.031 -7.39,20.41 -19.35,20.41 -10.44,0 -18.42,-8.691 -19.71,-20.41 h 39.06"
         style="fill:#d21d34;fill-opacity:1;fill-rule:nonzero;stroke:none"
         transform="matrix(0.13333333,0,0,-0.13333333,0,793.70667)" />
      <path
         id="path8"
         d="m 8049.4,289.691 h 9.03 v -15.839 c 4.46,10.089 13.26,17.378 24.75,16.91 v -9.75 h -0.7 c -13.26,0 -24.05,-9.5 -24.05,-27.801 v -24.172 h -9.03 v 60.652"
         style="fill:#d21d34;fill-opacity:1;fill-rule:nonzero;stroke:none"
         transform="matrix(0.13333333,0,0,-0.13333333,0,793.70667)" />
      <path
         id="path9"
         d="m 8100.09,245.109 v 36.61 h -8.46 v 7.972 h 8.46 v 18.297 h 9.02 v -18.297 h 19.24 v -7.972 h -19.24 v -35.43 c 0,-7.398 4.11,-10.09 10.22,-10.09 3.04,0 5.62,0.582 8.8,2.121 v -7.761 c -3.18,-1.637 -6.58,-2.579 -10.91,-2.579 -9.75,0 -17.13,4.821 -17.13,17.129"
         style="fill:#d21d34;fill-opacity:1;fill-rule:nonzero;stroke:none"
         transform="matrix(0.13333333,0,0,-0.13333333,0,793.70667)" />
      <path
         id="path10"
         d="m 8134.57,236.781 4.57,6.457 c 6.57,-4.918 13.86,-7.75 21.01,-7.75 7.27,0 12.56,3.75 12.56,9.621 v 0.243 c 0,6.097 -7.16,8.449 -15.14,10.679 -9.5,2.699 -20.07,5.981 -20.07,17.129 v 0.219 c 0,10.441 8.68,17.371 20.65,17.371 7.4,0 15.6,-2.578 21.82,-6.68 l -4.11,-6.808 c -5.63,3.629 -12.08,5.867 -17.95,5.867 -7.15,0 -11.73,-3.758 -11.73,-8.801 v -0.238 c 0,-5.738 7.51,-7.969 15.62,-10.442 9.37,-2.808 19.46,-6.457 19.46,-17.359 v -0.23 c 0,-11.5 -9.49,-18.188 -21.58,-18.188 -8.68,0 -18.3,3.41 -25.11,8.91"
         style="fill:#d21d34;fill-opacity:1;fill-rule:nonzero;stroke:none"
         transform="matrix(0.13333333,0,0,-0.13333333,0,793.70667)" />
      <path
         id="path11"
         d="M 241.012,364.68 V 335.852 H 7715.6 l 18.47,28.828 H 241.012"
         style="fill:#d21d34;fill-opacity:1;fill-rule:nonzero;stroke:none"
         transform="matrix(0.13333333,0,0,-0.13333333,0,793.70667)" />
    </g>
  </g>
</svg>
