<?xml version="1.0" encoding="UTF-8" standalone="no"?>
<svg
   width="738.48413"
   height="336.34714"
   viewBox="0 0 738.48413 336.34714"
   version="1.1"
   id="svg24"
   sodipodi:docname="pid.svg"
   inkscape:version="1.4.3 (0d15f75, 2025-12-25)"
   xmlns:inkscape="http://www.inkscape.org/namespaces/inkscape"
   xmlns:sodipodi="http://sodipodi.sourceforge.net/DTD/sodipodi-0.dtd"
   xmlns:xlink="http://www.w3.org/1999/xlink"
   xmlns="http://www.w3.org/2000/svg"
   xmlns:svg="http://www.w3.org/2000/svg"
   xmlns:ns1="http://www.iki.fi/pav/software/textext/">
  <sodipodi:namedview
     id="namedview24"
     pagecolor="#ffffff"
     bordercolor="#000000"
     borderopacity="0.25"
     inkscape:showpageshadow="2"
     inkscape:pageopacity="0.0"
     inkscape:pagecheckerboard="0"
     inkscape:deskcolor="#d1d1d1"
     inkscape:zoom="1.0135197"
     inkscape:cx="342.37124"
     inkscape:cy="139.61248"
     inkscape:window-width="1536"
     inkscape:window-height="889"
     inkscape:window-x="-8"
     inkscape:window-y="-8"
     inkscape:window-maximized="1"
     inkscape:current-layer="svg24" />
  <defs
     id="defs2">
    <marker
       id="arrowhead"
       markerWidth="10"
       markerHeight="7"
       refX="9"
       refY="3.5"
       orient="auto">
      <polygon
         points="10,3.5 0,7 0,0 "
         fill="#2c5d63"
         id="polygon1" />
    </marker>
    <linearGradient
       id="blockGrad"
       x1="0"
       y1="0"
       x2="0"
       y2="1">
      <stop
         offset="0%"
         style="stop-color:#e1f5fe;stop-opacity:1"
         id="stop1" />
      <stop
         offset="100%"
         style="stop-color:#b3e5fc;stop-opacity:1"
         id="stop2" />
    </linearGradient>
    <linearGradient
       inkscape:collect="always"
       xlink:href="#blockGrad"
       id="linearGradient24"
       x1="335.22705"
       y1="76.17524"
       x2="335.22705"
       y2="161.87238"
       gradientTransform="matrix(1.1902381,0,0,0.84016805,-14.515852,-39.652855)"
       gradientUnits="userSpaceOnUse" />
    <linearGradient
       inkscape:collect="always"
       xlink:href="#blockGrad"
       id="linearGradient25"
       x1="335.22705"
       y1="219.00381"
       x2="335.22705"
       y2="304.70096"
       gradientTransform="matrix(1.1902381,0,0,0.84016805,-14.515852,-39.652855)"
       gradientUnits="userSpaceOnUse" />
    <linearGradient
       inkscape:collect="always"
       xlink:href="#blockGrad"
       id="linearGradient26"
       x1="335.22705"
       y1="361.83237"
       x2="335.22705"
       y2="447.52951"
       gradientTransform="matrix(1.1902381,0,0,0.84016805,-14.515852,-39.652855)"
       gradientUnits="userSpaceOnUse" />
    <linearGradient
       inkscape:collect="always"
       xlink:href="#blockGrad"
       id="linearGradient27"
       x1="134"
       y1="74"
       x2="134"
       y2="126"
       gradientUnits="userSpaceOnUse" />
    <linearGradient
       inkscape:collect="always"
       xlink:href="#blockGrad"
       id="linearGradient28"
       x1="544"
       y1="74"
       x2="544"
       y2="126"
       gradientUnits="userSpaceOnUse" />
    <linearGradient
       inkscape:collect="always"
       xlink:href="#blockGrad"
       id="linearGradient29"
       x1="544"
       y1="194"
       x2="544"
       y2="246"
       gradientUnits="userSpaceOnUse" />
    <linearGradient
       inkscape:collect="always"
       xlink:href="#blockGrad"
       id="linearGradient30"
       x1="81.761346"
       y1="121.2798"
       x2="81.761346"
       y2="403.1734"
       gradientTransform="scale(1.6389163,0.6101593)"
       gradientUnits="userSpaceOnUse" />
  </defs>
  <g
     stroke="#2c5d63"
     stroke-width="3"
     fill="none"
     id="g9"
     transform="translate(-14.515852,-39.652855)">
    <line
       x1="20"
       y1="100"
       x2="135"
       y2="100"
       marker-end="url(#arrowhead)"
       id="line2" />
    <line
       x1="160"
       y1="200"
       x2="160"
       y2="125"
       marker-end="url(#arrowhead)"
       id="line3" />
    <line
       x1="185"
       y1="100"
       x2="400"
       y2="100"
       id="line4" />
    <path
       d="m 350,100 v 240 h 50"
       marker-end="url(#arrowhead)"
       id="path4" />
    <path
       d="m 350,220 h 50"
       marker-end="url(#arrowhead)"
       id="path5" />
    <line
       x1="350"
       y1="100"
       x2="400"
       y2="100"
       marker-end="url(#arrowhead)"
       id="line5" />
    <line
       x1="500"
       y1="100"
       x2="545"
       y2="100"
       marker-end="url(#arrowhead)"
       id="line6" />
    <line
       x1="500"
       y1="220"
       x2="545"
       y2="220"
       marker-end="url(#arrowhead)"
       id="line7" />
    <path
       d="m 500,340 h 70 v -95"
       marker-end="url(#arrowhead)"
       id="path7" />
    <line
       x1="570"
       y1="195"
       x2="570"
       y2="125"
       marker-end="url(#arrowhead)"
       id="line8" />
    <line
       x1="595"
       y1="100"
       x2="750"
       y2="100"
       marker-end="url(#arrowhead)"
       id="line9" />
  </g>
  <g
     fill="url(#blockGrad)"
     stroke="#2c5d63"
     stroke-width="2"
     id="g11"
     style="fill:url(#linearGradient30)"
     transform="translate(-14.515852,-39.652855)">
    <circle
       cx="160"
       cy="100"
       r="25"
       id="circle9"
       style="fill:url(#linearGradient27)" />
    <circle
       cx="570"
       cy="100"
       r="25"
       id="circle10"
       style="fill:url(#linearGradient28)" />
    <circle
       cx="570"
       cy="220"
       r="25"
       id="circle11"
       style="fill:url(#linearGradient29)" />
  </g>
  <g
     font-family="Arial, sans-serif"
     font-size="24px"
     fill="#2c5d63"
     text-anchor="middle"
     id="g13"
     transform="translate(-14.515852,-39.652855)">
    <text
       x="160"
       y="108"
       id="text11">−</text>
    <text
       x="570"
       y="108"
       id="text12">+</text>
    <text
       x="570"
       y="228"
       id="text13">+</text>
  </g>
  <rect
     x="385.48416"
     y="25.347145"
     width="100"
     height="70"
     rx="10"
     id="rect13"
     style="fill:url(#linearGradient24);stroke:#2c5d63;stroke-width:2" />
  <rect
     x="385.48416"
     y="265.34714"
     width="100"
     height="70"
     rx="10"
     id="rect15"
     style="fill:url(#linearGradient26);stroke:#2c5d63;stroke-width:2" />
  <text
     x="-0.79492188"
     y="40.347145"
     font-size="22px"
     id="text15"
     style="font-weight:bold;font-family:Arial, sans-serif;fill:#214549"><tspan
       style="font-style:normal;font-variant:normal;font-weight:bold;font-stretch:normal;font-family:KohinoorW00-Bold;-inkscape-font-specification:'KohinoorW00-Bold Bold'"
       id="tspan30">Setpoint</tspan></text>
  <text
     x="146.8795"
     y="184.88202"
     font-size="22px"
     text-anchor="middle"
     id="text16"
     style="font-weight:bold;font-family:Arial, sans-serif;fill:#214549"><tspan
       sodipodi:role="line"
       id="tspan33"
       x="146.8795"
       y="184.88202"><tspan
         style="font-style:normal;font-variant:normal;font-weight:bold;font-stretch:normal;font-family:KohinoorW00-Bold;-inkscape-font-specification:'KohinoorW00-Bold Bold'"
         id="tspan31"
         dy="0 0 0 0 0 0 0">Process</tspan></tspan><tspan
       sodipodi:role="line"
       id="tspan34"
       x="146.8795"
       y="213.03462"><tspan
         style="font-style:normal;font-variant:normal;font-weight:bold;font-stretch:normal;font-family:KohinoorW00-Bold;-inkscape-font-specification:'KohinoorW00-Bold Bold'"
         id="tspan35">Variable</tspan></tspan></text>
  <text
     x="190.23116"
     y="40.347145"
     font-size="22px"
     id="text17"
     style="font-weight:bold;font-family:Arial, sans-serif;fill:#214549"><tspan
       style="font-style:normal;font-variant:normal;font-weight:bold;font-stretch:normal;font-family:KohinoorW00-Bold;-inkscape-font-specification:'KohinoorW00-Bold Bold'"
       id="tspan32">Error</tspan></text>
  <text
     x="645.69965"
     y="16.016602"
     font-size="22px"
     text-anchor="middle"
     id="text18"
     style="font-weight:bold;font-family:KohinoorW00-Bold;fill:#214549;-inkscape-font-specification:'KohinoorW00-Bold, Bold';font-style:normal;font-stretch:normal;font-variant:normal;font-size:20.5px;font-variant-ligatures:normal;font-variant-caps:normal;font-variant-numeric:normal;font-variant-east-asian:normal">Controller<tspan
   x="645.69965"
   dy="25"
   id="tspan17"
   style="-inkscape-font-specification:'KohinoorW00-Bold, Bold';font-family:KohinoorW00-Bold;font-weight:bold;font-style:normal;font-stretch:normal;font-variant:normal;font-size:20.5px;font-variant-ligatures:normal;font-variant-caps:normal;font-variant-numeric:normal;font-variant-east-asian:normal">Output</tspan></text>
  <text
     x="435.48416"
     y="15.347145"
     font-size="20px"
     text-anchor="middle"
     id="text19"
     style="font-weight:bold;font-family:KohinoorW00-Bold;fill:#214549;-inkscape-font-specification:'KohinoorW00-Bold, Bold';font-style:normal;font-stretch:normal;font-variant:normal;font-size:20.5px;font-variant-ligatures:normal;font-variant-caps:normal;font-variant-numeric:normal;font-variant-east-asian:normal">Proportional</text>
  <text
     x="435.48416"
     y="135.34714"
     font-size="20px"
     text-anchor="middle"
     id="text20"
     style="font-weight:bold;font-family:KohinoorW00-Bold;fill:#214549;-inkscape-font-specification:'KohinoorW00-Bold, Bold';font-style:normal;font-stretch:normal;font-variant:normal;font-size:20.5px;font-variant-ligatures:normal;font-variant-caps:normal;font-variant-numeric:normal;font-variant-east-asian:normal">Integral</text>
  <text
     x="435.48416"
     y="255.34714"
     font-size="20px"
     text-anchor="middle"
     id="text21"
     style="font-weight:bold;font-family:KohinoorW00-Bold;fill:#214549;-inkscape-font-specification:'KohinoorW00-Bold, Bold';font-style:normal;font-stretch:normal;font-variant:normal;font-size:20.5px;font-variant-ligatures:normal;font-variant-caps:normal;font-variant-numeric:normal;font-variant-east-asian:normal">Derivative</text>
  <text
     x="435.05643"
     y="65.151833"
     font-size="24px"
     text-anchor="middle"
     id="text22"
     style="font-weight:bold;font-family:Arial, sans-serif;fill:#214549">Kₚ</text>
  <rect
     x="385.48416"
     y="145.34714"
     width="100"
     height="70"
     rx="10"
     id="rect14"
     style="fill:url(#linearGradient25);stroke:#2c5d63;stroke-width:2" />
  <g
     id="g47"
     transform="translate(-3.4683719)">
    <text
       x="421.03848"
       y="189.97409"
       font-size="24px"
       text-anchor="middle"
       id="text23"
       style="font-weight:bold;font-family:Arial, sans-serif;fill:#214549">Kᵢ</text>
    <g
       transform="matrix(4.4594257,0,0,4.4594257,440.8387,157.33785)"
       ns1:version="1.10.2"
       ns1:texconverter="pdflatex"
       ns1:pdfconverter="inkscape"
       ns1:text="$\\int$"
       ns1:preamble="C:\Users\thomas.haberkorn\OneDrive - VENTREX\Dokumente\default_packages.txt"
       ns1:scale="1.494651426687677"
       ns1:alignment="middle center"
       ns1:stroke-to-path="0"
       ns1:inkscapeversion="1.4.3"
       ns1:jacobian_sqrt="1.99286"
       id="g36">
      <defs
         id="id-4f7775de-b3be-4278-b2f5-00577dc62a5d">
        <g
           id="id-bcf70d94-f834-42aa-b2fb-0bbfd529ed9b">
          <g
             id="id-9b05e332-5da8-46ac-bd77-48cf77bae148">
            <path
               d="m 2.71875,8.765625 c -0.140625,1.640625 -0.5,2.09375 -1.0625,2.09375 -0.125,0 -0.4375,-0.03125 -0.640625,-0.21875 0.296875,-0.03125 0.375,-0.265625 0.375,-0.40625 0,-0.28125 -0.21875,-0.421875 -0.40625,-0.421875 -0.203125,0 -0.421875,0.140625 -0.421875,0.4375 0,0.46875 0.5,0.828125 1.09375,0.828125 0.953125,0 1.421875,-0.875 1.640625,-1.765625 C 3.421875,8.796875 3.78125,5.890625 3.875,4.78125 L 4.0625,2.296875 C 4.203125,0.46875 4.53125,0.21875 4.984375,0.21875 c 0.09375,0 0.40625,0.015625 0.625,0.203125 C 5.328125,0.46875 5.25,0.703125 5.25,0.84375 5.25,1.125 5.46875,1.25 5.65625,1.25 5.859375,1.25 6.078125,1.125 6.078125,0.828125 6.078125,0.34375 5.578125,0 4.96875,0 c -0.9375,0 -1.328125,0.96875 -1.5,1.71875 -0.125,0.546875 -0.484375,3.359375 -0.5625,4.578125 z m 0,0"
               id="id-226058c2-e7a4-4a2f-82a7-3ff9aefe50df" />
          </g>
        </g>
      </defs>
      <g
         fill="#000000"
         fill-opacity="1"
         id="id-c6adeb11-59da-43c6-b5ab-b2a0eed52e14"
         transform="translate(-134.308,-75.378)">
        <g
           transform="translate(133.745,75.378)"
           id="g35">
          <path
             d="m 2.71875,8.765625 c -0.140625,1.640625 -0.5,2.09375 -1.0625,2.09375 -0.125,0 -0.4375,-0.03125 -0.640625,-0.21875 0.296875,-0.03125 0.375,-0.265625 0.375,-0.40625 0,-0.28125 -0.21875,-0.421875 -0.40625,-0.421875 -0.203125,0 -0.421875,0.140625 -0.421875,0.4375 0,0.46875 0.5,0.828125 1.09375,0.828125 0.953125,0 1.421875,-0.875 1.640625,-1.765625 C 3.421875,8.796875 3.78125,5.890625 3.875,4.78125 L 4.0625,2.296875 C 4.203125,0.46875 4.53125,0.21875 4.984375,0.21875 c 0.09375,0 0.40625,0.015625 0.625,0.203125 C 5.328125,0.46875 5.25,0.703125 5.25,0.84375 5.25,1.125 5.46875,1.25 5.65625,1.25 5.859375,1.25 6.078125,1.125 6.078125,0.828125 6.078125,0.34375 5.578125,0 4.96875,0 c -0.9375,0 -1.328125,0.96875 -1.5,1.71875 -0.125,0.546875 -0.484375,3.359375 -0.5625,4.578125 z m 0,0"
             id="id-23344118-576a-4799-99a5-7d87b782d98c" />
        </g>
      </g>
    </g>
  </g>
  <g
     id="g48"
     transform="translate(-3.8326507)">
    <text
       x="416.11832"
       y="308.22116"
       font-size="22px"
       text-anchor="middle"
       id="text24"
       style="font-weight:bold;font-family:Arial, sans-serif;fill:#214549">Kd</text>
    <g
       transform="matrix(3.3670447,0,0,3.3670447,440.60175,277.53819)"
       ns1:version="1.10.2"
       ns1:texconverter="pdflatex"
       ns1:pdfconverter="inkscape"
       ns1:text="$\\frac{d()}{dt}$"
       ns1:preamble="C:\Users\thomas.haberkorn\OneDrive - VENTREX\Dokumente\default_packages.txt"
       ns1:scale="3.3445836560082953"
       ns1:alignment="middle center"
       ns1:stroke-to-path="0"
       ns1:inkscapeversion="1.4.3"
       ns1:jacobian_sqrt="4.45943"
       id="g46">
      <defs
         id="id-ca083f82-c766-4d96-a8fb-fc2097a293df">
        <g
           id="id-cc3c38a4-c201-4fac-a752-b97635b75fd2">
          <g
             id="id-d3d34efb-bfb3-4f90-82c1-458000caed8e">
            <path
               d="M 3.984375,-4.625 C 3.984375,-4.640625 4,-4.734375 4,-4.734375 4,-4.78125 3.984375,-4.84375 3.890625,-4.84375 3.75,-4.84375 3.171875,-4.78125 3,-4.765625 c -0.046875,0 -0.15625,0.015625 -0.15625,0.15625 0,0.09375 0.109375,0.09375 0.1875,0.09375 0.328125,0 0.328125,0.0625 0.328125,0.109375 0,0.046875 0,0.09375 -0.015625,0.15625 L 2.9375,-2.65625 c -0.140625,-0.234375 -0.375,-0.421875 -0.71875,-0.421875 -0.890625,0 -1.796875,0.984375 -1.796875,1.984375 0,0.6875 0.453125,1.15625 1.0625,1.15625 0.375,0 0.703125,-0.203125 0.984375,-0.484375 C 2.59375,0 3,0.0625 3.1875,0.0625 c 0.25,0 0.421875,-0.140625 0.546875,-0.359375 0.15625,-0.28125 0.25,-0.671875 0.25,-0.703125 0,-0.09375 -0.09375,-0.09375 -0.109375,-0.09375 -0.109375,0 -0.109375,0.03125 -0.15625,0.21875 C 3.625,-0.53125 3.5,-0.125 3.203125,-0.125 3.03125,-0.125 2.96875,-0.28125 2.96875,-0.46875 c 0,-0.125 0.015625,-0.1875 0.046875,-0.28125 z M 2.5,-0.875 C 2.453125,-0.671875 2.296875,-0.53125 2.140625,-0.40625 2.078125,-0.34375 1.796875,-0.125 1.5,-0.125 c -0.265625,0 -0.515625,-0.1875 -0.515625,-0.671875 0,-0.375 0.203125,-1.140625 0.375,-1.421875 0.3125,-0.5625 0.671875,-0.65625 0.859375,-0.65625 0.484375,0 0.625,0.53125 0.625,0.609375 0,0.015625 -0.015625,0.078125 -0.015625,0.09375 z m 0,0"
               id="id-c2ed357b-0d82-410e-931a-0f5256067beb" />
          </g>
          <g
             id="id-07735c2d-1f52-43cf-b4df-8511b3ed1630">
            <path
               d="m 1.71875,-2.75 h 0.703125 c 0.140625,0 0.21875,0 0.21875,-0.15625 C 2.640625,-3 2.5625,-3 2.4375,-3 H 1.78125 l 0.25,-1.03125 C 2.046875,-4.0625 2.0625,-4.109375 2.0625,-4.125 c 0,-0.140625 -0.109375,-0.234375 -0.25,-0.234375 -0.171875,0 -0.265625,0.125 -0.328125,0.296875 C 1.4375,-3.875 1.53125,-4.21875 1.21875,-3 H 0.515625 c -0.125,0 -0.21875,0 -0.21875,0.15625 C 0.296875,-2.75 0.375,-2.75 0.5,-2.75 H 1.15625 L 0.75,-1.109375 C 0.703125,-0.9375 0.640625,-0.6875 0.640625,-0.59375 c 0,0.40625 0.359375,0.65625 0.75,0.65625 0.78125,0 1.21875,-0.96875 1.21875,-1.0625 0,-0.09375 -0.09375,-0.09375 -0.109375,-0.09375 -0.09375,0 -0.09375,0.015625 -0.15625,0.140625 -0.1875,0.4375 -0.546875,0.828125 -0.921875,0.828125 -0.15625,0 -0.25,-0.09375 -0.25,-0.34375 0,-0.0625 0.03125,-0.21875 0.046875,-0.28125 z m 0,0"
               id="id-e90df168-f07e-47f6-bbc8-d65aabdfedf8" />
          </g>
          <g
             id="id-e6e1f4e4-dd7b-4b9c-b756-a0d8cf9c4e37">
            <path
               d="M 2.46875,-5.21875 C 1.15625,-4.296875 0.796875,-2.8125 0.796875,-1.75 c 0,0.984375 0.296875,2.515625 1.671875,3.484375 0.0625,0 0.140625,0 0.140625,-0.078125 0,-0.046875 -0.015625,-0.0625 -0.0625,-0.109375 C 1.609375,0.703125 1.28125,-0.46875 1.28125,-1.734375 1.28125,-3.625 2,-4.546875 2.5625,-5.0625 2.59375,-5.09375 2.609375,-5.109375 2.609375,-5.140625 2.609375,-5.21875 2.53125,-5.21875 2.46875,-5.21875 Z m 0,0"
               id="id-0ac912dd-5a94-4ac5-bbf7-5dd7a1273953" />
          </g>
          <g
             id="id-b5a727cb-6ec8-4da8-ae82-0555198465c4">
            <path
               d="m 0.625,-5.21875 c -0.046875,0 -0.125,0 -0.125,0.078125 0,0.03125 0.015625,0.046875 0.0625,0.109375 0.59375,0.546875 1.265625,1.484375 1.265625,3.28125 0,1.453125 -0.453125,2.5625 -1.203125,3.234375 -0.125,0.125 -0.125,0.125 -0.125,0.171875 0,0.03125 0.015625,0.078125 0.078125,0.078125 0.09375,0 0.75,-0.453125 1.21875,-1.328125 0.296875,-0.578125 0.5,-1.328125 0.5,-2.140625 C 2.296875,-2.71875 2,-4.25 0.625,-5.21875 Z m 0,0"
               id="id-6e2cdd58-928e-4191-bbda-19d361aff156" />
          </g>
        </g>
      </defs>
      <g
         fill="#000000"
         fill-opacity="1"
         id="id-97045823-334e-4992-89b1-da74e6dd941a"
         transform="translate(-134.941,-73.4522)">
        <g
           transform="translate(134.941,78.671)"
           id="g41">
          <path
             d="M 3.984375,-4.625 C 3.984375,-4.640625 4,-4.734375 4,-4.734375 4,-4.78125 3.984375,-4.84375 3.890625,-4.84375 3.75,-4.84375 3.171875,-4.78125 3,-4.765625 c -0.046875,0 -0.15625,0.015625 -0.15625,0.15625 0,0.09375 0.109375,0.09375 0.1875,0.09375 0.328125,0 0.328125,0.0625 0.328125,0.109375 0,0.046875 0,0.09375 -0.015625,0.15625 L 2.9375,-2.65625 c -0.140625,-0.234375 -0.375,-0.421875 -0.71875,-0.421875 -0.890625,0 -1.796875,0.984375 -1.796875,1.984375 0,0.6875 0.453125,1.15625 1.0625,1.15625 0.375,0 0.703125,-0.203125 0.984375,-0.484375 C 2.59375,0 3,0.0625 3.1875,0.0625 c 0.25,0 0.421875,-0.140625 0.546875,-0.359375 0.15625,-0.28125 0.25,-0.671875 0.25,-0.703125 0,-0.09375 -0.09375,-0.09375 -0.109375,-0.09375 -0.109375,0 -0.109375,0.03125 -0.15625,0.21875 C 3.625,-0.53125 3.5,-0.125 3.203125,-0.125 3.03125,-0.125 2.96875,-0.28125 2.96875,-0.46875 c 0,-0.125 0.015625,-0.1875 0.046875,-0.28125 z M 2.5,-0.875 C 2.453125,-0.671875 2.296875,-0.53125 2.140625,-0.40625 2.078125,-0.34375 1.796875,-0.125 1.5,-0.125 c -0.265625,0 -0.515625,-0.1875 -0.515625,-0.671875 0,-0.375 0.203125,-1.140625 0.375,-1.421875 0.3125,-0.5625 0.671875,-0.65625 0.859375,-0.65625 0.484375,0 0.625,0.53125 0.625,0.609375 0,0.015625 -0.015625,0.078125 -0.015625,0.09375 z m 0,0"
             id="id-62ad1431-3122-4e50-99f3-7ce2a2ecf608" />
        </g>
      </g>
      <g
         fill="#000000"
         fill-opacity="1"
         id="id-1cc2f92f-3e74-434b-8892-0e8606f0f08c"
         transform="translate(-134.941,-73.4522)">
        <g
           transform="translate(139.088,78.671)"
           id="g42">
          <path
             d="M 2.46875,-5.21875 C 1.15625,-4.296875 0.796875,-2.8125 0.796875,-1.75 c 0,0.984375 0.296875,2.515625 1.671875,3.484375 0.0625,0 0.140625,0 0.140625,-0.078125 0,-0.046875 -0.015625,-0.0625 -0.0625,-0.109375 C 1.609375,0.703125 1.28125,-0.46875 1.28125,-1.734375 1.28125,-3.625 2,-4.546875 2.5625,-5.0625 2.59375,-5.09375 2.609375,-5.109375 2.609375,-5.140625 2.609375,-5.21875 2.53125,-5.21875 2.46875,-5.21875 Z m 0,0"
             id="id-0a9747ac-a49b-47b4-a4b3-bcbebe104438" />
        </g>
        <g
           transform="translate(142.201,78.671)"
           id="g43">
          <path
             d="m 0.625,-5.21875 c -0.046875,0 -0.125,0 -0.125,0.078125 0,0.03125 0.015625,0.046875 0.0625,0.109375 0.59375,0.546875 1.265625,1.484375 1.265625,3.28125 0,1.453125 -0.453125,2.5625 -1.203125,3.234375 -0.125,0.125 -0.125,0.125 -0.125,0.171875 0,0.03125 0.015625,0.078125 0.078125,0.078125 0.09375,0 0.75,-0.453125 1.21875,-1.328125 0.296875,-0.578125 0.5,-1.328125 0.5,-2.140625 C 2.296875,-2.71875 2,-4.25 0.625,-5.21875 Z m 0,0"
             id="id-e49c6bd1-aab0-416d-8761-896ddc5d53d4" />
        </g>
      </g>
      <path
         fill="none"
         stroke-width="0.398"
         stroke-linecap="butt"
         stroke-linejoin="miter"
         stroke="#000000"
         stroke-opacity="1"
         stroke-miterlimit="10"
         d="M 0,7.5594711 H 10.375"
         id="id-b68b62fc-341c-4403-a3c7-5a660b06b1d9" />
      <g
         fill="#000000"
         fill-opacity="1"
         id="id-560c7591-910b-400e-9836-3de34e8c7d8c"
         transform="translate(-134.941,-73.4522)">
        <g
           transform="translate(136.549,86.938)"
           id="g44">
          <path
             d="M 3.984375,-4.625 C 3.984375,-4.640625 4,-4.734375 4,-4.734375 4,-4.78125 3.984375,-4.84375 3.890625,-4.84375 3.75,-4.84375 3.171875,-4.78125 3,-4.765625 c -0.046875,0 -0.15625,0.015625 -0.15625,0.15625 0,0.09375 0.109375,0.09375 0.1875,0.09375 0.328125,0 0.328125,0.0625 0.328125,0.109375 0,0.046875 0,0.09375 -0.015625,0.15625 L 2.9375,-2.65625 c -0.140625,-0.234375 -0.375,-0.421875 -0.71875,-0.421875 -0.890625,0 -1.796875,0.984375 -1.796875,1.984375 0,0.6875 0.453125,1.15625 1.0625,1.15625 0.375,0 0.703125,-0.203125 0.984375,-0.484375 C 2.59375,0 3,0.0625 3.1875,0.0625 c 0.25,0 0.421875,-0.140625 0.546875,-0.359375 0.15625,-0.28125 0.25,-0.671875 0.25,-0.703125 0,-0.09375 -0.09375,-0.09375 -0.109375,-0.09375 -0.109375,0 -0.109375,0.03125 -0.15625,0.21875 C 3.625,-0.53125 3.5,-0.125 3.203125,-0.125 3.03125,-0.125 2.96875,-0.28125 2.96875,-0.46875 c 0,-0.125 0.015625,-0.1875 0.046875,-0.28125 z M 2.5,-0.875 C 2.453125,-0.671875 2.296875,-0.53125 2.140625,-0.40625 2.078125,-0.34375 1.796875,-0.125 1.5,-0.125 c -0.265625,0 -0.515625,-0.1875 -0.515625,-0.671875 0,-0.375 0.203125,-1.140625 0.375,-1.421875 0.3125,-0.5625 0.671875,-0.65625 0.859375,-0.65625 0.484375,0 0.625,0.53125 0.625,0.609375 0,0.015625 -0.015625,0.078125 -0.015625,0.09375 z m 0,0"
             id="id-d2e14189-6e38-41ec-b7e4-e99239bc32d1" />
        </g>
        <g
           transform="translate(140.696,86.938)"
           id="g45">
          <path
             d="m 1.71875,-2.75 h 0.703125 c 0.140625,0 0.21875,0 0.21875,-0.15625 C 2.640625,-3 2.5625,-3 2.4375,-3 H 1.78125 l 0.25,-1.03125 C 2.046875,-4.0625 2.0625,-4.109375 2.0625,-4.125 c 0,-0.140625 -0.109375,-0.234375 -0.25,-0.234375 -0.171875,0 -0.265625,0.125 -0.328125,0.296875 C 1.4375,-3.875 1.53125,-4.21875 1.21875,-3 H 0.515625 c -0.125,0 -0.21875,0 -0.21875,0.15625 C 0.296875,-2.75 0.375,-2.75 0.5,-2.75 H 1.15625 L 0.75,-1.109375 C 0.703125,-0.9375 0.640625,-0.6875 0.640625,-0.59375 c 0,0.40625 0.359375,0.65625 0.75,0.65625 0.78125,0 1.21875,-0.96875 1.21875,-1.0625 0,-0.09375 -0.09375,-0.09375 -0.109375,-0.09375 -0.09375,0 -0.09375,0.015625 -0.15625,0.140625 -0.1875,0.4375 -0.546875,0.828125 -0.921875,0.828125 -0.15625,0 -0.25,-0.09375 -0.25,-0.34375 0,-0.0625 0.03125,-0.21875 0.046875,-0.28125 z m 0,0"
             id="id-5634edd0-7fee-41d0-ad97-96818b584d7d" />
        </g>
      </g>
    </g>
  </g>
</svg>
