<?xml version="1.0" encoding="UTF-8" standalone="no"?>
<!-- Created with Inkscape (http://www.inkscape.org/) -->

<svg
   width="88.817421mm"
   height="37.05941mm"
   viewBox="0 0 88.817421 37.059411"
   version="1.1"
   id="svg1"
   inkscape:version="1.4.3 (0d15f75, 2025-12-25)"
   sodipodi:docname="PID_blockDiagram.svg"
   xmlns:inkscape="http://www.inkscape.org/namespaces/inkscape"
   xmlns:sodipodi="http://sodipodi.sourceforge.net/DTD/sodipodi-0.dtd"
   xmlns:xlink="http://www.w3.org/1999/xlink"
   xmlns="http://www.w3.org/2000/svg"
   xmlns:svg="http://www.w3.org/2000/svg"
   xmlns:ns4="http://www.iki.fi/pav/software/textext/">
  <sodipodi:namedview
     id="namedview1"
     pagecolor="#ffffff"
     bordercolor="#000000"
     borderopacity="0.25"
     inkscape:showpageshadow="2"
     inkscape:pageopacity="0.0"
     inkscape:pagecheckerboard="0"
     inkscape:deskcolor="#d1d1d1"
     inkscape:document-units="mm"
     inkscape:zoom="11.313709"
     inkscape:cx="220.7499"
     inkscape:cy="90.509668"
     inkscape:window-width="1920"
     inkscape:window-height="1129"
     inkscape:window-x="1912"
     inkscape:window-y="-8"
     inkscape:window-maximized="1"
     inkscape:current-layer="layer1" />
  <defs
     id="defs1">
    <marker
       style="overflow:visible"
       id="marker102"
       refX="0"
       refY="0"
       orient="auto-start-reverse"
       inkscape:stockid="Triangle arrow"
       markerWidth="2"
       markerHeight="1"
       viewBox="0 0 1 1"
       inkscape:isstock="true"
       inkscape:collect="always"
       preserveAspectRatio="none">
      <path
         transform="scale(0.5)"
         style="fill:context-stroke;fill-rule:evenodd;stroke:context-stroke;stroke-width:1pt"
         d="M 5.77,0 -2.88,5 V -5 Z"
         id="path102" />
    </marker>
    <linearGradient
       id="blockGrad"
       x1="0"
       y1="0"
       x2="0"
       y2="1">
      <stop
         offset="0%"
         style="stop-color:#e1f5fe;stop-opacity:1"
         id="stop1" />
      <stop
         offset="100%"
         style="stop-color:#b3e5fc;stop-opacity:1"
         id="stop2" />
    </linearGradient>
    <linearGradient
       inkscape:collect="always"
       xlink:href="#blockGrad"
       id="linearGradient27"
       x1="134"
       y1="74"
       x2="134"
       y2="126"
       gradientUnits="userSpaceOnUse"
       gradientTransform="matrix(0.09817588,0,0,0.09817588,83.234874,131.65247)" />
    <linearGradient
       inkscape:collect="always"
       xlink:href="#blockGrad"
       id="linearGradient24"
       x1="335.22705"
       y1="76.17524"
       x2="335.22705"
       y2="161.87238"
       gradientTransform="matrix(0.09085052,0,0,0.06412978,0.3065857,91.143593)"
       gradientUnits="userSpaceOnUse" />
    <linearGradient
       inkscape:collect="always"
       xlink:href="#blockGrad"
       id="linearGradient26"
       x1="335.22705"
       y1="361.83237"
       x2="335.22705"
       y2="447.52951"
       gradientTransform="matrix(0.09085052,0,0,0.06412978,0.3065857,91.143593)"
       gradientUnits="userSpaceOnUse" />
    <linearGradient
       inkscape:collect="always"
       xlink:href="#blockGrad"
       id="linearGradient25"
       x1="335.22705"
       y1="219.00381"
       x2="335.22705"
       y2="304.70096"
       gradientTransform="matrix(0.09085052,0,0,0.06412978,0.3065857,91.143593)"
       gradientUnits="userSpaceOnUse" />
    <marker
       style="overflow:visible"
       id="marker121"
       refX="0"
       refY="0"
       orient="auto"
       inkscape:stockid="Dot"
       markerWidth="1"
       markerHeight="1"
       viewBox="0 0 1 1"
       inkscape:isstock="true"
       inkscape:collect="always"
       preserveAspectRatio="xMidYMid">
      <path
         transform="scale(0.5)"
         style="fill:context-stroke;fill-rule:evenodd;stroke:none"
         d="M 5,0 C 5,2.76 2.76,5 0,5 -2.76,5 -5,2.76 -5,0 c 0,-2.76 2.3,-5 5,-5 2.76,0 5,2.24 5,5 z"
         sodipodi:nodetypes="sssss"
         id="path121" />
    </marker>
    <linearGradient
       inkscape:collect="always"
       xlink:href="#blockGrad"
       id="linearGradient6"
       gradientUnits="userSpaceOnUse"
       gradientTransform="matrix(0.0763297,0,0,0.0763297,9.6416748,72.169411)"
       x1="544"
       y1="194"
       x2="544"
       y2="246" />
    <linearGradient
       inkscape:collect="always"
       xlink:href="#blockGrad"
       id="linearGradient7"
       gradientUnits="userSpaceOnUse"
       gradientTransform="matrix(0.0763297,0,0,0.0763297,9.6416748,72.169411)"
       x1="544"
       y1="194"
       x2="544"
       y2="246" />
    <defs
       id="defs159">
      <g
         id="g159">
        <g
           id="g158">
          <path
             d="m 1.90625,-2.5 c 0,-0.28125 -0.234375,-0.515625 -0.515625,-0.515625 -0.296875,0 -0.53125,0.234375 -0.53125,0.515625 0,0.296875 0.234375,0.53125 0.53125,0.53125 0.28125,0 0.515625,-0.234375 0.515625,-0.53125 z m 0,0"
             id="path157" />
        </g>
      </g>
    </defs>
  </defs>
  <g
     inkscape:label="Ebene 1"
     inkscape:groupmode="layer"
     id="layer1"
     transform="translate(12.484793,-82.784171)">
    <path
       id="line2"
       style="fill:none;stroke:#000000;stroke-width:0.211759;marker-end:url(#marker102)"
       d="M -10.08565,89.356434 H 3.0781858"
       sodipodi:nodetypes="cc" />
    <path
       id="line3"
       style="fill:none;stroke:#000000;stroke-width:0.201371;marker-end:url(#marker102)"
       d="M 6.4424936,96.989406 V 92.553887" />
    <path
       id="line4"
       style="fill:none;stroke:#000000;stroke-width:0.219;stroke-dasharray:none;marker-start:url(#marker121);marker-end:url(#marker102)"
       d="m 19.549982,117.09571 h 9.766806"
       sodipodi:nodetypes="cc" />
    <path
       id="line7"
       style="fill:none;stroke:#000000;stroke-width:0.189;stroke-dasharray:none;marker-end:url(#marker102)"
       d="m 38.490441,98.481486 11.448113,0"
       sodipodi:nodetypes="cc" />
    <path
       d="M 41.467742,117.06458 H 53.115596"
       marker-end="url(#arrowhead)"
       id="path20"
       style="fill:none;stroke:#000000;stroke-width:0.209682;stroke-opacity:1;marker-end:"
       sodipodi:nodetypes="cc" />
    <path
       id="line9"
       style="fill:none;stroke:#000000;stroke-width:0.228989;marker-end:url(#marker102)"
       d="M 53.012229,89.266223 H 74.706316"
       sodipodi:nodetypes="cc" />
    <g
       id="g102"
       transform="matrix(0.77747916,0,0,0.77747916,-70.483632,-20.63358)">
      <circle
         cx="98.943016"
         cy="141.47006"
         r="2.454397"
         id="circle9"
         style="fill:url(#linearGradient27);stroke:#000000;stroke-width:0.196352;stroke-opacity:1" />
      <text
         x="98.943016"
         y="142.25546"
         id="text11"
         style="font-size:2.35622px;font-family:Arial, sans-serif;text-anchor:middle;fill:#000000;fill-opacity:1;stroke-width:0.0981759">−</text>
    </g>
    <path
       style="fill:#000000;fill-opacity:1;stroke:#000000;stroke-width:0.192;stroke-linejoin:round;stroke-dasharray:none;stroke-opacity:1;marker-end:"
       d="M 19.546918,117.13465 V 89.387425"
       id="path103"
       sodipodi:nodetypes="cc" />
    <path
       id="line104"
       style="fill:none;stroke:#000000;stroke-width:0.219056;marker-start:url(#marker121);marker-end:url(#marker102)"
       d="m 19.532109,98.535112 h 9.707538"
       sodipodi:nodetypes="cc" />
    <path
       id="line105"
       style="fill:none;stroke:#000000;stroke-width:0.219;stroke-dasharray:none;marker-start:url(#marker121);marker-end:url(#marker102)"
       d="m 19.551971,107.82998 h 9.764817"
       sodipodi:nodetypes="cc" />
    <path
       style="fill:#000000;fill-opacity:1;stroke:#000000;stroke-width:0.192037;stroke-linejoin:round;stroke-dasharray:none;stroke-opacity:1"
       d="M 19.64353,89.345145 H 8.3898457"
       id="path105"
       sodipodi:nodetypes="cc" />
    <rect
       x="30.838442"
       y="96.105034"
       width="7.6329699"
       height="5.3430791"
       rx="0.76329702"
       id="rect13"
       style="fill:url(#linearGradient24);stroke:#000000;stroke-width:0.15266;stroke-opacity:1" />
    <rect
       x="30.838442"
       y="114.42417"
       width="10.646516"
       height="5.3430786"
       rx="0.76329702"
       id="rect15"
       style="fill:url(#linearGradient26);stroke:#000000;stroke-width:0.15266;stroke-opacity:1" />
    <text
       x="35.542149"
       y="95.341736"
       font-size="20px"
       text-anchor="middle"
       id="text19"
       style="font-style:normal;font-variant:normal;font-weight:bold;font-stretch:normal;font-size:1.56475997px;font-family:Satoshi;-inkscape-font-specification:'Satoshi, Bold';font-variant-ligatures:normal;font-variant-caps:normal;font-variant-numeric:normal;font-variant-east-asian:normal;fill:#000000;fill-opacity:1;stroke-width:0.07633">Proportional</text>
    <text
       x="33.78648"
       y="104.5013"
       font-size="20px"
       text-anchor="middle"
       id="text20"
       style="font-style:normal;font-variant:normal;font-weight:bold;font-stretch:normal;font-size:1.56475997px;font-family:Satoshi;-inkscape-font-specification:'Satoshi, Bold';font-variant-ligatures:normal;font-variant-caps:normal;font-variant-numeric:normal;font-variant-east-asian:normal;fill:#000000;fill-opacity:1;stroke-width:0.07633">Integral</text>
    <text
       x="34.654926"
       y="113.66086"
       font-size="20px"
       text-anchor="middle"
       id="text21"
       style="font-style:normal;font-variant:normal;font-weight:bold;font-stretch:normal;font-size:1.56475997px;font-family:Satoshi;-inkscape-font-specification:'Satoshi, Bold';font-variant-ligatures:normal;font-variant-caps:normal;font-variant-numeric:normal;font-variant-east-asian:normal;fill:#000000;fill-opacity:1;stroke-width:0.07633">Derivative</text>
    <rect
       x="30.838442"
       y="105.2646"
       width="14.136158"
       height="5.3430786"
       rx="0.76329702"
       id="rect14-3"
       style="fill:url(#linearGradient25);stroke:#000000;stroke-width:0.15266;stroke-opacity:1" />
    <text
       x="32.607639"
       y="99.143303"
       font-size="1.83191px"
       text-anchor="middle"
       id="text22-7"
       style="font-weight:bold;font-family:Satoshi;fill:#000000;stroke-width:0.07633;-inkscape-font-specification:'Satoshi, Bold';font-style:normal;font-stretch:normal;font-variant:normal;font-size:1.78102332px;font-variant-ligatures:normal;font-variant-caps:normal;font-variant-numeric:normal;font-variant-east-asian:normal">Kₚ</text>
    <g
       transform="matrix(0.201853,0,0,0.201853,34.703427,97.749724)"
       ns4:version="1.10.2"
       ns4:texconverter="pdflatex"
       ns4:pdfconverter="inkscape"
       ns4:text="$e(t)$"
       ns4:preamble="C:\Users\thomas.haberkorn\OneDrive - VENTREX\Dokumente\default_packages.txt"
       ns4:scale="3.3445836560082953"
       ns4:alignment="middle center"
       ns4:stroke-to-path="0"
       ns4:inkscapeversion="1.4.3"
       ns4:jacobian_sqrt="1.1799"
       id="g5">
      <defs
         id="id-4467b634-5ad6-46a0-be09-bc7231336849">
        <g
           id="id-fffe9f18-ba8c-4a6f-8e12-ef37fd1630bb">
          <g
             id="id-4ab916e7-497e-4875-9de3-a211fd25f201">
            <path
               d="m 1.859375,-2.296875 c 0.296875,0 1.03125,-0.03125 1.53125,-0.234375 0.703125,-0.296875 0.75,-0.890625 0.75,-1.03125 0,-0.4375 -0.375,-0.84375 -1.0625,-0.84375 -1.109375,0 -2.625,0.96875 -2.625,2.71875 0,1.015625 0.59375,1.796875 1.578125,1.796875 1.421875,0 2.25,-1.0625 2.25,-1.171875 0,-0.0625 -0.046875,-0.140625 -0.109375,-0.140625 -0.0625,0 -0.078125,0.03125 -0.140625,0.109375 -0.78125,0.984375 -1.875,0.984375 -1.984375,0.984375 -0.78125,0 -0.875,-0.84375 -0.875,-1.15625 0,-0.125 0.015625,-0.421875 0.15625,-1.03125 z m -0.46875,-0.21875 C 1.78125,-4.03125 2.8125,-4.1875 3.078125,-4.1875 c 0.453125,0 0.734375,0.296875 0.734375,0.625 0,1.046875 -1.59375,1.046875 -2.015625,1.046875 z m 0,0"
               id="id-f8356bc4-24b4-4b61-bfa3-61e3a152172c" />
          </g>
          <g
             id="id-2e135286-fd41-40dc-a397-98dc9b51cd1d">
            <path
               d="m 2.046875,-3.984375 h 0.9375 c 0.203125,0 0.3125,0 0.3125,-0.203125 0,-0.109375 -0.109375,-0.109375 -0.28125,-0.109375 h -0.875 C 2.5,-5.71875 2.546875,-5.90625 2.546875,-5.96875 c 0,-0.171875 -0.125,-0.265625 -0.296875,-0.265625 -0.03125,0 -0.3125,0 -0.390625,0.359375 L 1.46875,-4.296875 h -0.9375 c -0.203125,0 -0.296875,0 -0.296875,0.1875 0,0.125 0.078125,0.125 0.28125,0.125 h 0.875 C 0.671875,-1.15625 0.625,-0.984375 0.625,-0.8125 0.625,-0.265625 1,0.109375 1.546875,0.109375 2.5625,0.109375 3.125,-1.34375 3.125,-1.421875 3.125,-1.53125 3.046875,-1.53125 3.015625,-1.53125 2.921875,-1.53125 2.90625,-1.5 2.859375,-1.390625 2.4375,-0.34375 1.90625,-0.109375 1.5625,-0.109375 c -0.203125,0 -0.3125,-0.125 -0.3125,-0.453125 0,-0.25 0.03125,-0.3125 0.0625,-0.484375 z m 0,0"
               id="id-3d2b32f1-9b9d-4746-b285-76c72a975ee1" />
          </g>
          <g
             id="id-e5be3c49-a947-4d1c-be9e-4dd1b43d4995">
            <path
               d="m 3.296875,2.390625 c 0,-0.03125 0,-0.046875 -0.171875,-0.21875 C 1.890625,0.921875 1.5625,-0.96875 1.5625,-2.5 c 0,-1.734375 0.375,-3.46875 1.609375,-4.703125 0.125,-0.125 0.125,-0.140625 0.125,-0.171875 0,-0.078125 -0.03125,-0.109375 -0.09375,-0.109375 -0.109375,0 -1,0.6875 -1.59375,1.953125 -0.5,1.09375 -0.625,2.203125 -0.625,3.03125 0,0.78125 0.109375,1.984375 0.65625,3.125 C 2.25,1.84375 3.09375,2.5 3.203125,2.5 c 0.0625,0 0.09375,-0.03125 0.09375,-0.109375 z m 0,0"
               id="id-9fde1581-d115-4a24-b2fc-d56ad1f534f7" />
          </g>
          <g
             id="id-97b12e44-ac11-490b-adf0-120e00c67a6b">
            <path
               d="m 2.875,-2.5 c 0,-0.765625 -0.109375,-1.96875 -0.65625,-3.109375 -0.59375,-1.21875 -1.453125,-1.875 -1.546875,-1.875 -0.0625,0 -0.109375,0.046875 -0.109375,0.109375 0,0.03125 0,0.046875 0.1875,0.234375 0.984375,0.984375 1.546875,2.5625 1.546875,4.640625 0,1.71875 -0.359375,3.46875 -1.59375,4.71875 C 0.5625,2.34375 0.5625,2.359375 0.5625,2.390625 0.5625,2.453125 0.609375,2.5 0.671875,2.5 0.765625,2.5 1.671875,1.8125 2.25,0.546875 2.765625,-0.546875 2.875,-1.65625 2.875,-2.5 Z m 0,0"
               id="id-9ac0ef75-c899-47fb-aa08-631ac1b75574" />
          </g>
        </g>
      </defs>
      <g
         fill="#000000"
         fill-opacity="1"
         id="id-d4b8c4cf-63ed-4dc9-9d6f-66899c567a57"
         transform="translate(-134.198,-75.9186)">
        <g
           transform="translate(133.745,83.403)"
           id="g1">
          <path
             d="m 1.859375,-2.296875 c 0.296875,0 1.03125,-0.03125 1.53125,-0.234375 0.703125,-0.296875 0.75,-0.890625 0.75,-1.03125 0,-0.4375 -0.375,-0.84375 -1.0625,-0.84375 -1.109375,0 -2.625,0.96875 -2.625,2.71875 0,1.015625 0.59375,1.796875 1.578125,1.796875 1.421875,0 2.25,-1.0625 2.25,-1.171875 0,-0.0625 -0.046875,-0.140625 -0.109375,-0.140625 -0.0625,0 -0.078125,0.03125 -0.140625,0.109375 -0.78125,0.984375 -1.875,0.984375 -1.984375,0.984375 -0.78125,0 -0.875,-0.84375 -0.875,-1.15625 0,-0.125 0.015625,-0.421875 0.15625,-1.03125 z m -0.46875,-0.21875 C 1.78125,-4.03125 2.8125,-4.1875 3.078125,-4.1875 c 0.453125,0 0.734375,0.296875 0.734375,0.625 0,1.046875 -1.59375,1.046875 -2.015625,1.046875 z m 0,0"
             id="id-ac495d95-1084-422e-ba2e-702b140390c2" />
        </g>
      </g>
      <g
         fill="#000000"
         fill-opacity="1"
         id="id-342310d7-0888-4f0f-9a05-7220664afb5a"
         transform="translate(-134.198,-75.9186)">
        <g
           transform="translate(138.384,83.403)"
           id="g2">
          <path
             d="m 3.296875,2.390625 c 0,-0.03125 0,-0.046875 -0.171875,-0.21875 C 1.890625,0.921875 1.5625,-0.96875 1.5625,-2.5 c 0,-1.734375 0.375,-3.46875 1.609375,-4.703125 0.125,-0.125 0.125,-0.140625 0.125,-0.171875 0,-0.078125 -0.03125,-0.109375 -0.09375,-0.109375 -0.109375,0 -1,0.6875 -1.59375,1.953125 -0.5,1.09375 -0.625,2.203125 -0.625,3.03125 0,0.78125 0.109375,1.984375 0.65625,3.125 C 2.25,1.84375 3.09375,2.5 3.203125,2.5 c 0.0625,0 0.09375,-0.03125 0.09375,-0.109375 z m 0,0"
             id="id-6bdc7afa-df34-418b-90f0-38c05d4c05b6" />
        </g>
      </g>
      <g
         fill="#000000"
         fill-opacity="1"
         id="id-8088d814-f013-403b-82b8-071a6df6ff16"
         transform="translate(-134.198,-75.9186)">
        <g
           transform="translate(142.258,83.403)"
           id="g3">
          <path
             d="m 2.046875,-3.984375 h 0.9375 c 0.203125,0 0.3125,0 0.3125,-0.203125 0,-0.109375 -0.109375,-0.109375 -0.28125,-0.109375 h -0.875 C 2.5,-5.71875 2.546875,-5.90625 2.546875,-5.96875 c 0,-0.171875 -0.125,-0.265625 -0.296875,-0.265625 -0.03125,0 -0.3125,0 -0.390625,0.359375 L 1.46875,-4.296875 h -0.9375 c -0.203125,0 -0.296875,0 -0.296875,0.1875 0,0.125 0.078125,0.125 0.28125,0.125 h 0.875 C 0.671875,-1.15625 0.625,-0.984375 0.625,-0.8125 0.625,-0.265625 1,0.109375 1.546875,0.109375 2.5625,0.109375 3.125,-1.34375 3.125,-1.421875 3.125,-1.53125 3.046875,-1.53125 3.015625,-1.53125 2.921875,-1.53125 2.90625,-1.5 2.859375,-1.390625 2.4375,-0.34375 1.90625,-0.109375 1.5625,-0.109375 c -0.203125,0 -0.3125,-0.125 -0.3125,-0.453125 0,-0.25 0.03125,-0.3125 0.0625,-0.484375 z m 0,0"
             id="id-b8bae0ff-4425-4ee2-8dda-13db54dbb74c" />
        </g>
      </g>
      <g
         fill="#000000"
         fill-opacity="1"
         id="id-66b84d2b-6ed8-497a-9bb1-53bd97c83246"
         transform="translate(-134.198,-75.9186)">
        <g
           transform="translate(145.856,83.403)"
           id="g4">
          <path
             d="m 2.875,-2.5 c 0,-0.765625 -0.109375,-1.96875 -0.65625,-3.109375 -0.59375,-1.21875 -1.453125,-1.875 -1.546875,-1.875 -0.0625,0 -0.109375,0.046875 -0.109375,0.109375 0,0.03125 0,0.046875 0.1875,0.234375 0.984375,0.984375 1.546875,2.5625 1.546875,4.640625 0,1.71875 -0.359375,3.46875 -1.59375,4.71875 C 0.5625,2.34375 0.5625,2.359375 0.5625,2.390625 0.5625,2.453125 0.609375,2.5 0.671875,2.5 0.765625,2.5 1.671875,1.8125 2.25,0.546875 2.765625,-0.546875 2.875,-1.65625 2.875,-2.5 Z m 0,0"
             id="id-737a5c40-c5b7-4c49-a357-52b8c2dc98df" />
        </g>
      </g>
    </g>
    <g
       transform="matrix(0.201853,0,0,0.201853,34.004655,98.651724)"
       ns4:version="1.10.2"
       ns4:texconverter="pdflatex"
       ns4:pdfconverter="inkscape"
       ns4:text="$\\cdot$"
       ns4:preamble="C:\Users\thomas.haberkorn\OneDrive - VENTREX\Dokumente\default_packages.txt"
       ns4:scale="0.5721792056244109"
       ns4:alignment="middle center"
       ns4:stroke-to-path="0"
       ns4:inkscapeversion="1.4.3"
       ns4:jacobian_sqrt="0.201853"
       id="g20">
      <defs
         id="id-83f1fe5e-bc38-4fea-a8a8-f1f123c69bc4">
        <g
           id="id-9d1c565e-3795-4d7b-9851-03f5e74aa29b">
          <g
             id="id-885caabb-4449-4244-90d1-7379b7de4efd">
            <path
               d="m 1.90625,-2.5 c 0,-0.28125 -0.234375,-0.515625 -0.515625,-0.515625 -0.296875,0 -0.53125,0.234375 -0.53125,0.515625 0,0.296875 0.234375,0.53125 0.53125,0.53125 0.28125,0 0.515625,-0.234375 0.515625,-0.53125 z m 0,0"
               id="id-9a2c5e3d-1218-4771-af12-f929c0b297c0" />
          </g>
        </g>
      </defs>
      <g
         fill="#000000"
         fill-opacity="1"
         id="id-de0e17b1-512d-41eb-99ce-9c3530c44cfc"
         transform="translate(-134.604,-80.3874)">
        <g
           transform="translate(133.745,83.403)"
           id="g19">
          <path
             d="m 1.90625,-2.5 c 0,-0.28125 -0.234375,-0.515625 -0.515625,-0.515625 -0.296875,0 -0.53125,0.234375 -0.53125,0.515625 0,0.296875 0.234375,0.53125 0.53125,0.53125 0.28125,0 0.515625,-0.234375 0.515625,-0.53125 z m 0,0"
             id="id-7362d713-77d6-4410-aa0f-3511a5e47aa9" />
        </g>
      </g>
    </g>
    <text
       x="33.029495"
       y="108.4579"
       font-size="1.83191px"
       text-anchor="middle"
       id="text23-1"
       style="font-weight:bold;font-family:Satoshi;fill:#000000;stroke-width:0.0763297;-inkscape-font-specification:'Satoshi, Bold';font-style:normal;font-stretch:normal;font-variant:normal;font-size:1.78102332px;font-variant-ligatures:normal;font-variant-caps:normal;font-variant-numeric:normal;font-variant-east-asian:normal">Kᵢ</text>
    <g
       transform="matrix(0.201853,0,0,0.201853,34.814712,105.44576)"
       ns4:version="1.10.2"
       ns4:texconverter="pdflatex"
       ns4:pdfconverter="inkscape"
       ns4:text="$\\displaystyle \\int_{0}^{t}\\! e(\\tau)\\, d\\tau$"
       ns4:preamble="C:\Users\thomas.haberkorn\OneDrive - VENTREX\Dokumente\default_packages.txt"
       ns4:scale="0.5721792056244109"
       ns4:alignment="middle center"
       ns4:stroke-to-path="0"
       ns4:inkscapeversion="1.4.3"
       ns4:jacobian_sqrt="0.201853"
       id="g112">
      <defs
         id="id-4264fc7e-a79b-45d7-b219-4e7d01e33d2a">
        <g
           id="id-2761b8c9-4bbf-4c58-9a34-32e056e62033">
          <g
             id="id-ed325de3-b006-4e73-a48b-97514f521acb">
            <path
               d="m 1.03125,21.703125 c 0.328125,-0.01563 0.5,-0.234375 0.5,-0.484375 0,-0.328125 -0.25,-0.5 -0.484375,-0.5 -0.234375,0 -0.484375,0.15625 -0.484375,0.5 0,0.515625 0.5,0.9375 1.109375,0.9375 1.515625,0 2.078125,-2.34375 2.78125,-5.234375 C 5.21875,13.78125 5.875,10.59375 6.40625,7.390625 6.78125,5.28125 7.140625,3.28125 7.484375,2 7.609375,1.5 7.9375,0.21875 8.328125,0.21875 c 0.3125,0 0.5625,0.1875 0.609375,0.234375 -0.328125,0.015625 -0.5,0.234375 -0.5,0.484375 0,0.328125 0.25,0.484375 0.46875,0.484375 0.25,0 0.5,-0.140625 0.5,-0.5 C 9.40625,0.390625 8.859375,0 8.3125,0 7.5625,0 7,1.09375 6.453125,3.125 6.421875,3.234375 5.0625,8.234375 3.96875,14.75 3.703125,16.28125 3.421875,17.9375 3.09375,19.328125 2.90625,20.0625 2.453125,21.9375 1.640625,21.9375 c -0.359375,0 -0.59375,-0.234375 -0.609375,-0.234375 z m 0,0"
               id="id-3893c095-0bb8-4ef1-a693-e148c775c8ef" />
          </g>
          <g
             id="id-dec6c0ab-99c1-456d-8614-8f32ab09c950">
            <path
               d="m 1.71875,-2.75 h 0.703125 c 0.140625,0 0.21875,0 0.21875,-0.15625 C 2.640625,-3 2.5625,-3 2.4375,-3 H 1.78125 l 0.25,-1.03125 C 2.046875,-4.0625 2.0625,-4.109375 2.0625,-4.125 c 0,-0.140625 -0.109375,-0.234375 -0.25,-0.234375 -0.171875,0 -0.265625,0.125 -0.328125,0.296875 C 1.4375,-3.875 1.53125,-4.21875 1.21875,-3 H 0.515625 c -0.125,0 -0.21875,0 -0.21875,0.15625 C 0.296875,-2.75 0.375,-2.75 0.5,-2.75 H 1.15625 L 0.75,-1.109375 C 0.703125,-0.9375 0.640625,-0.6875 0.640625,-0.59375 c 0,0.40625 0.359375,0.65625 0.75,0.65625 0.78125,0 1.21875,-0.96875 1.21875,-1.0625 0,-0.09375 -0.09375,-0.09375 -0.109375,-0.09375 -0.09375,0 -0.09375,0.015625 -0.15625,0.140625 -0.1875,0.4375 -0.546875,0.828125 -0.921875,0.828125 -0.15625,0 -0.25,-0.09375 -0.25,-0.34375 0,-0.0625 0.03125,-0.21875 0.046875,-0.28125 z m 0,0"
               id="id-4833d880-8349-482b-90ff-9762ea9da810" />
          </g>
          <g
             id="id-4ee77e23-6ced-4c77-8571-c3949240971e">
            <path
               d="M 3.59375,-2.21875 C 3.59375,-2.984375 3.5,-3.546875 3.1875,-4.03125 2.96875,-4.34375 2.53125,-4.625 1.984375,-4.625 c -1.625,0 -1.625,1.90625 -1.625,2.40625 0,0.5 0,2.359375 1.625,2.359375 1.609375,0 1.609375,-1.859375 1.609375,-2.359375 z M 1.984375,-0.0625 c -0.328125,0 -0.75,-0.1875 -0.890625,-0.75 C 1,-1.21875 1,-1.796875 1,-2.3125 1,-2.828125 1,-3.359375 1.09375,-3.734375 1.25,-4.28125 1.6875,-4.4375 1.984375,-4.4375 c 0.375,0 0.734375,0.234375 0.859375,0.640625 0.109375,0.375 0.125,0.875 0.125,1.484375 0,0.515625 0,1.03125 -0.09375,1.46875 -0.140625,0.640625 -0.609375,0.78125 -0.890625,0.78125 z m 0,0"
               id="id-7b563f3c-65e5-4f12-b36a-443bbd0d8b42" />
          </g>
          <g
             id="id-93124b80-ca9a-4932-a8a5-c19089c85943">
            <path
               d="m 1.859375,-2.296875 c 0.296875,0 1.03125,-0.03125 1.53125,-0.234375 0.703125,-0.296875 0.75,-0.890625 0.75,-1.03125 0,-0.4375 -0.375,-0.84375 -1.0625,-0.84375 -1.109375,0 -2.625,0.96875 -2.625,2.71875 0,1.015625 0.59375,1.796875 1.578125,1.796875 1.421875,0 2.25,-1.0625 2.25,-1.171875 0,-0.0625 -0.046875,-0.140625 -0.109375,-0.140625 -0.0625,0 -0.078125,0.03125 -0.140625,0.109375 -0.78125,0.984375 -1.875,0.984375 -1.984375,0.984375 -0.78125,0 -0.875,-0.84375 -0.875,-1.15625 0,-0.125 0.015625,-0.421875 0.15625,-1.03125 z m -0.46875,-0.21875 C 1.78125,-4.03125 2.8125,-4.1875 3.078125,-4.1875 c 0.453125,0 0.734375,0.296875 0.734375,0.625 0,1.046875 -1.59375,1.046875 -2.015625,1.046875 z m 0,0"
               id="id-8bb5279b-d202-4a5e-a164-7729f7896f21" />
          </g>
          <g
             id="id-81e26f31-421b-4bb3-8738-5bbfdbfa3ba3">
            <path
               d="m 2.9375,-3.71875 h 1.671875 c 0.125,0 0.484375,0 0.484375,-0.34375 0,-0.234375 -0.203125,-0.234375 -0.40625,-0.234375 H 1.90625 c -0.203125,0 -0.59375,0 -1.03125,0.46875 -0.328125,0.359375 -0.609375,0.84375 -0.609375,0.890625 0,0.015625 0,0.109375 0.125,0.109375 0.078125,0 0.09375,-0.046875 0.15625,-0.125 C 1.03125,-3.71875 1.609375,-3.71875 1.8125,-3.71875 h 0.828125 l -0.96875,3.203125 C 1.625,-0.40625 1.5625,-0.1875 1.5625,-0.15625 c 0,0.109375 0.078125,0.28125 0.296875,0.28125 0.328125,0 0.375,-0.28125 0.40625,-0.4375 z m 0,0"
               id="id-5c0476a8-078a-4e06-b218-0ed5a5812b21" />
          </g>
          <g
             id="id-68bf1212-c22b-4388-a422-6592879e1fbd">
            <path
               d="m 5.140625,-6.8125 c 0,0 0,-0.109375 -0.125,-0.109375 -0.15625,0 -1.09375,0.09375 -1.265625,0.109375 -0.078125,0.015625 -0.140625,0.0625 -0.140625,0.1875 0,0.125 0.09375,0.125 0.234375,0.125 0.484375,0 0.5,0.0625 0.5,0.171875 L 4.3125,-6.125 3.71875,-3.765625 C 3.53125,-4.140625 3.25,-4.40625 2.796875,-4.40625 c -1.15625,0 -2.390625,1.46875 -2.390625,2.921875 0,0.9375 0.546875,1.59375 1.3125,1.59375 0.203125,0 0.703125,-0.046875 1.296875,-0.75 0.078125,0.421875 0.4375,0.75 0.90625,0.75 0.359375,0 0.578125,-0.234375 0.75,-0.546875 0.15625,-0.359375 0.296875,-0.96875 0.296875,-0.984375 0,-0.109375 -0.09375,-0.109375 -0.125,-0.109375 -0.09375,0 -0.109375,0.046875 -0.140625,0.1875 -0.171875,0.640625 -0.34375,1.234375 -0.75,1.234375 -0.28125,0 -0.296875,-0.265625 -0.296875,-0.453125 0,-0.25 0.015625,-0.3125 0.046875,-0.484375 z m -2.0625,5.625 C 3.015625,-1 3.015625,-0.984375 2.875,-0.8125 2.4375,-0.265625 2.03125,-0.109375 1.75,-0.109375 c -0.5,0 -0.640625,-0.546875 -0.640625,-0.9375 0,-0.5 0.3125,-1.71875 0.546875,-2.1875 0.3125,-0.578125 0.75,-0.953125 1.15625,-0.953125 0.640625,0 0.78125,0.8125 0.78125,0.875 0,0.0625 -0.015625,0.125 -0.03125,0.171875 z m 0,0"
               id="id-816bcd68-d47d-43da-9d6a-f49f7e2c22ac" />
          </g>
          <g
             id="id-d37c456c-0e2a-4304-83c7-e778c0c3498f">
            <path
               d="m 3.296875,2.390625 c 0,-0.03125 0,-0.046875 -0.171875,-0.21875 C 1.890625,0.921875 1.5625,-0.96875 1.5625,-2.5 c 0,-1.734375 0.375,-3.46875 1.609375,-4.703125 0.125,-0.125 0.125,-0.140625 0.125,-0.171875 0,-0.078125 -0.03125,-0.109375 -0.09375,-0.109375 -0.109375,0 -1,0.6875 -1.59375,1.953125 -0.5,1.09375 -0.625,2.203125 -0.625,3.03125 0,0.78125 0.109375,1.984375 0.65625,3.125 C 2.25,1.84375 3.09375,2.5 3.203125,2.5 c 0.0625,0 0.09375,-0.03125 0.09375,-0.109375 z m 0,0"
               id="id-a7284d50-5e68-47fa-adf6-fee64bcc4186" />
          </g>
          <g
             id="id-f932db51-e95a-471f-9314-e8ce2426efda">
            <path
               d="m 2.875,-2.5 c 0,-0.765625 -0.109375,-1.96875 -0.65625,-3.109375 -0.59375,-1.21875 -1.453125,-1.875 -1.546875,-1.875 -0.0625,0 -0.109375,0.046875 -0.109375,0.109375 0,0.03125 0,0.046875 0.1875,0.234375 0.984375,0.984375 1.546875,2.5625 1.546875,4.640625 0,1.71875 -0.359375,3.46875 -1.59375,4.71875 C 0.5625,2.34375 0.5625,2.359375 0.5625,2.390625 0.5625,2.453125 0.609375,2.5 0.671875,2.5 0.765625,2.5 1.671875,1.8125 2.25,0.546875 2.765625,-0.546875 2.875,-1.65625 2.875,-2.5 Z m 0,0"
               id="id-ae3ad7bb-410c-4fc2-bc79-62b3ba37a22b" />
          </g>
        </g>
      </defs>
      <g
         fill="#000000"
         fill-opacity="1"
         id="id-26a85f1b-a950-4c17-97b8-60f6d5e45d3a"
         transform="translate(-134.308,-73.3706)">
        <g
           transform="translate(133.745,75.267)"
           id="g103">
          <path
             d="m 1.03125,21.703125 c 0.328125,-0.01563 0.5,-0.234375 0.5,-0.484375 0,-0.328125 -0.25,-0.5 -0.484375,-0.5 -0.234375,0 -0.484375,0.15625 -0.484375,0.5 0,0.515625 0.5,0.9375 1.109375,0.9375 1.515625,0 2.078125,-2.34375 2.78125,-5.234375 C 5.21875,13.78125 5.875,10.59375 6.40625,7.390625 6.78125,5.28125 7.140625,3.28125 7.484375,2 7.609375,1.5 7.9375,0.21875 8.328125,0.21875 c 0.3125,0 0.5625,0.1875 0.609375,0.234375 -0.328125,0.015625 -0.5,0.234375 -0.5,0.484375 0,0.328125 0.25,0.484375 0.46875,0.484375 0.25,0 0.5,-0.140625 0.5,-0.5 C 9.40625,0.390625 8.859375,0 8.3125,0 7.5625,0 7,1.09375 6.453125,3.125 6.421875,3.234375 5.0625,8.234375 3.96875,14.75 3.703125,16.28125 3.421875,17.9375 3.09375,19.328125 2.90625,20.0625 2.453125,21.9375 1.640625,21.9375 c -0.359375,0 -0.59375,-0.234375 -0.609375,-0.234375 z m 0,0"
             id="id-1736ce1f-3a96-4532-b539-6b0f0f63a0ca" />
        </g>
      </g>
      <g
         fill="#000000"
         fill-opacity="1"
         id="id-47961fc9-da2a-4ec7-8751-1fed03da0189"
         transform="translate(-134.308,-73.3706)">
        <g
           transform="translate(143.708,77.73)"
           id="g104">
          <path
             d="m 1.71875,-2.75 h 0.703125 c 0.140625,0 0.21875,0 0.21875,-0.15625 C 2.640625,-3 2.5625,-3 2.4375,-3 H 1.78125 l 0.25,-1.03125 C 2.046875,-4.0625 2.0625,-4.109375 2.0625,-4.125 c 0,-0.140625 -0.109375,-0.234375 -0.25,-0.234375 -0.171875,0 -0.265625,0.125 -0.328125,0.296875 C 1.4375,-3.875 1.53125,-4.21875 1.21875,-3 H 0.515625 c -0.125,0 -0.21875,0 -0.21875,0.15625 C 0.296875,-2.75 0.375,-2.75 0.5,-2.75 H 1.15625 L 0.75,-1.109375 C 0.703125,-0.9375 0.640625,-0.6875 0.640625,-0.59375 c 0,0.40625 0.359375,0.65625 0.75,0.65625 0.78125,0 1.21875,-0.96875 1.21875,-1.0625 0,-0.09375 -0.09375,-0.09375 -0.109375,-0.09375 -0.09375,0 -0.09375,0.015625 -0.15625,0.140625 -0.1875,0.4375 -0.546875,0.828125 -0.921875,0.828125 -0.15625,0 -0.25,-0.09375 -0.25,-0.34375 0,-0.0625 0.03125,-0.21875 0.046875,-0.28125 z m 0,0"
             id="id-acb275b2-5252-4fba-9617-c20d1ffeba3b" />
        </g>
      </g>
      <g
         fill="#000000"
         fill-opacity="1"
         id="id-87fa3ac4-7e60-4eab-8701-5ce079b1cc4f"
         transform="translate(-134.308,-73.3706)">
        <g
           transform="translate(139.28,97.905)"
           id="g105">
          <path
             d="M 3.59375,-2.21875 C 3.59375,-2.984375 3.5,-3.546875 3.1875,-4.03125 2.96875,-4.34375 2.53125,-4.625 1.984375,-4.625 c -1.625,0 -1.625,1.90625 -1.625,2.40625 0,0.5 0,2.359375 1.625,2.359375 1.609375,0 1.609375,-1.859375 1.609375,-2.359375 z M 1.984375,-0.0625 c -0.328125,0 -0.75,-0.1875 -0.890625,-0.75 C 1,-1.21875 1,-1.796875 1,-2.3125 1,-2.828125 1,-3.359375 1.09375,-3.734375 1.25,-4.28125 1.6875,-4.4375 1.984375,-4.4375 c 0.375,0 0.734375,0.234375 0.859375,0.640625 0.109375,0.375 0.125,0.875 0.125,1.484375 0,0.515625 0,1.03125 -0.09375,1.46875 -0.140625,0.640625 -0.609375,0.78125 -0.890625,0.78125 z m 0,0"
             id="id-5d15dd0d-5d57-4d2d-8743-00ee93e371e7" />
        </g>
      </g>
      <g
         fill="#000000"
         fill-opacity="1"
         id="id-4bd402dd-d3a4-4483-82c8-764252a5617b"
         transform="translate(-134.308,-73.3706)">
        <g
           transform="translate(147.216,88.828)"
           id="g106">
          <path
             d="m 1.859375,-2.296875 c 0.296875,0 1.03125,-0.03125 1.53125,-0.234375 0.703125,-0.296875 0.75,-0.890625 0.75,-1.03125 0,-0.4375 -0.375,-0.84375 -1.0625,-0.84375 -1.109375,0 -2.625,0.96875 -2.625,2.71875 0,1.015625 0.59375,1.796875 1.578125,1.796875 1.421875,0 2.25,-1.0625 2.25,-1.171875 0,-0.0625 -0.046875,-0.140625 -0.109375,-0.140625 -0.0625,0 -0.078125,0.03125 -0.140625,0.109375 -0.78125,0.984375 -1.875,0.984375 -1.984375,0.984375 -0.78125,0 -0.875,-0.84375 -0.875,-1.15625 0,-0.125 0.015625,-0.421875 0.15625,-1.03125 z m -0.46875,-0.21875 C 1.78125,-4.03125 2.8125,-4.1875 3.078125,-4.1875 c 0.453125,0 0.734375,0.296875 0.734375,0.625 0,1.046875 -1.59375,1.046875 -2.015625,1.046875 z m 0,0"
             id="id-36a621ba-7455-4731-abf0-d5d60bb5dd29" />
        </g>
      </g>
      <g
         fill="#000000"
         fill-opacity="1"
         id="id-f33a21b4-b684-4fe3-903b-06f66adac222"
         transform="translate(-134.308,-73.3706)">
        <g
           transform="translate(151.854,88.828)"
           id="g107">
          <path
             d="m 3.296875,2.390625 c 0,-0.03125 0,-0.046875 -0.171875,-0.21875 C 1.890625,0.921875 1.5625,-0.96875 1.5625,-2.5 c 0,-1.734375 0.375,-3.46875 1.609375,-4.703125 0.125,-0.125 0.125,-0.140625 0.125,-0.171875 0,-0.078125 -0.03125,-0.109375 -0.09375,-0.109375 -0.109375,0 -1,0.6875 -1.59375,1.953125 -0.5,1.09375 -0.625,2.203125 -0.625,3.03125 0,0.78125 0.109375,1.984375 0.65625,3.125 C 2.25,1.84375 3.09375,2.5 3.203125,2.5 c 0.0625,0 0.09375,-0.03125 0.09375,-0.109375 z m 0,0"
             id="id-31f924bc-3bb6-4596-97d8-21f2475b9cd2" />
        </g>
      </g>
      <g
         fill="#000000"
         fill-opacity="1"
         id="id-e7d922ab-9d27-4d11-95a3-6d726ba2e246"
         transform="translate(-134.308,-73.3706)">
        <g
           transform="translate(155.729,88.828)"
           id="g108">
          <path
             d="m 2.9375,-3.71875 h 1.671875 c 0.125,0 0.484375,0 0.484375,-0.34375 0,-0.234375 -0.203125,-0.234375 -0.40625,-0.234375 H 1.90625 c -0.203125,0 -0.59375,0 -1.03125,0.46875 -0.328125,0.359375 -0.609375,0.84375 -0.609375,0.890625 0,0.015625 0,0.109375 0.125,0.109375 0.078125,0 0.09375,-0.046875 0.15625,-0.125 C 1.03125,-3.71875 1.609375,-3.71875 1.8125,-3.71875 h 0.828125 l -0.96875,3.203125 C 1.625,-0.40625 1.5625,-0.1875 1.5625,-0.15625 c 0,0.109375 0.078125,0.28125 0.296875,0.28125 0.328125,0 0.375,-0.28125 0.40625,-0.4375 z m 0,0"
             id="id-524e6cd3-2164-4ff2-967c-0b8bf7d5070b" />
        </g>
      </g>
      <g
         fill="#000000"
         fill-opacity="1"
         id="id-edc6ba18-9805-4ecd-a835-0e18444f834f"
         transform="translate(-134.308,-73.3706)">
        <g
           transform="translate(161.212,88.828)"
           id="g109">
          <path
             d="m 2.875,-2.5 c 0,-0.765625 -0.109375,-1.96875 -0.65625,-3.109375 -0.59375,-1.21875 -1.453125,-1.875 -1.546875,-1.875 -0.0625,0 -0.109375,0.046875 -0.109375,0.109375 0,0.03125 0,0.046875 0.1875,0.234375 0.984375,0.984375 1.546875,2.5625 1.546875,4.640625 0,1.71875 -0.359375,3.46875 -1.59375,4.71875 C 0.5625,2.34375 0.5625,2.359375 0.5625,2.390625 0.5625,2.453125 0.609375,2.5 0.671875,2.5 0.765625,2.5 1.671875,1.8125 2.25,0.546875 2.765625,-0.546875 2.875,-1.65625 2.875,-2.5 Z m 0,0"
             id="id-3177e507-f90e-4d49-af9f-fb70d1b66328" />
        </g>
      </g>
      <g
         fill="#000000"
         fill-opacity="1"
         id="id-a04bf9ad-66eb-477c-b42f-1df0c33c8d50"
         transform="translate(-134.308,-73.3706)">
        <g
           transform="translate(166.746,88.828)"
           id="g110">
          <path
             d="m 5.140625,-6.8125 c 0,0 0,-0.109375 -0.125,-0.109375 -0.15625,0 -1.09375,0.09375 -1.265625,0.109375 -0.078125,0.015625 -0.140625,0.0625 -0.140625,0.1875 0,0.125 0.09375,0.125 0.234375,0.125 0.484375,0 0.5,0.0625 0.5,0.171875 L 4.3125,-6.125 3.71875,-3.765625 C 3.53125,-4.140625 3.25,-4.40625 2.796875,-4.40625 c -1.15625,0 -2.390625,1.46875 -2.390625,2.921875 0,0.9375 0.546875,1.59375 1.3125,1.59375 0.203125,0 0.703125,-0.046875 1.296875,-0.75 0.078125,0.421875 0.4375,0.75 0.90625,0.75 0.359375,0 0.578125,-0.234375 0.75,-0.546875 0.15625,-0.359375 0.296875,-0.96875 0.296875,-0.984375 0,-0.109375 -0.09375,-0.109375 -0.125,-0.109375 -0.09375,0 -0.109375,0.046875 -0.140625,0.1875 -0.171875,0.640625 -0.34375,1.234375 -0.75,1.234375 -0.28125,0 -0.296875,-0.265625 -0.296875,-0.453125 0,-0.25 0.015625,-0.3125 0.046875,-0.484375 z m -2.0625,5.625 C 3.015625,-1 3.015625,-0.984375 2.875,-0.8125 2.4375,-0.265625 2.03125,-0.109375 1.75,-0.109375 c -0.5,0 -0.640625,-0.546875 -0.640625,-0.9375 0,-0.5 0.3125,-1.71875 0.546875,-2.1875 0.3125,-0.578125 0.75,-0.953125 1.15625,-0.953125 0.640625,0 0.78125,0.8125 0.78125,0.875 0,0.0625 -0.015625,0.125 -0.03125,0.171875 z m 0,0"
             id="id-8572a05a-2a07-42fd-b3ba-abd9bcc12c97" />
        </g>
        <g
           transform="translate(171.932,88.828)"
           id="g111">
          <path
             d="m 2.9375,-3.71875 h 1.671875 c 0.125,0 0.484375,0 0.484375,-0.34375 0,-0.234375 -0.203125,-0.234375 -0.40625,-0.234375 H 1.90625 c -0.203125,0 -0.59375,0 -1.03125,0.46875 -0.328125,0.359375 -0.609375,0.84375 -0.609375,0.890625 0,0.015625 0,0.109375 0.125,0.109375 0.078125,0 0.09375,-0.046875 0.15625,-0.125 C 1.03125,-3.71875 1.609375,-3.71875 1.8125,-3.71875 h 0.828125 l -0.96875,3.203125 C 1.625,-0.40625 1.5625,-0.1875 1.5625,-0.15625 c 0,0.109375 0.078125,0.28125 0.296875,0.28125 0.328125,0 0.375,-0.28125 0.40625,-0.4375 z m 0,0"
             id="id-8fe7b569-ab6f-4569-88fa-8677a0ec9cd6" />
        </g>
      </g>
    </g>
    <g
       fill="#000000"
       fill-opacity="1"
       id="g161"
       transform="matrix(0.201853,0,0,0.201853,7.3440508,91.698682)">
      <g
         transform="translate(133.745,83.403)"
         id="g160">
        <path
           d="m 1.90625,-2.5 c 0,-0.28125 -0.234375,-0.515625 -0.515625,-0.515625 -0.296875,0 -0.53125,0.234375 -0.53125,0.515625 0,0.296875 0.234375,0.53125 0.53125,0.53125 0.28125,0 0.515625,-0.234375 0.515625,-0.53125 z m 0,0"
           id="path159" />
      </g>
    </g>
    <text
       x="32.944946"
       y="117.72685"
       font-size="1.67925px"
       text-anchor="middle"
       id="text24"
       style="font-weight:bold;font-family:Satoshi;fill:#000000;stroke-width:0.0763297;-inkscape-font-specification:'Satoshi, Bold';font-style:normal;font-stretch:normal;font-variant:normal;font-size:1.78102332px;font-variant-ligatures:normal;font-variant-caps:normal;font-variant-numeric:normal;font-variant-east-asian:normal">Kd</text>
    <g
       transform="matrix(0.2836993,0,0,0.2836993,35.502797,115.17388)"
       ns4:version="1.10.2"
       ns4:texconverter="pdflatex"
       ns4:pdfconverter="inkscape"
       ns4:text="$\\frac{de(t)}{dt}$"
       ns4:preamble="C:\Users\thomas.haberkorn\OneDrive - VENTREX\Dokumente\default_packages.txt"
       ns4:scale="0.5721792056244109"
       ns4:alignment="middle center"
       ns4:stroke-to-path="0"
       ns4:inkscapeversion="1.4.3"
       ns4:jacobian_sqrt="0.201853"
       id="g157">
      <defs
         id="id-cae00eb1-a9dc-4d07-bff4-78b96100b16e">
        <g
           id="id-260216bd-010f-4863-bcbe-835dca9db75a">
          <g
             id="id-d985aa2b-2bea-4cd5-9d42-4ec45cd55a33">
            <path
               d="M 3.984375,-4.625 C 3.984375,-4.640625 4,-4.734375 4,-4.734375 4,-4.78125 3.984375,-4.84375 3.890625,-4.84375 3.75,-4.84375 3.171875,-4.78125 3,-4.765625 c -0.046875,0 -0.15625,0.015625 -0.15625,0.15625 0,0.09375 0.109375,0.09375 0.1875,0.09375 0.328125,0 0.328125,0.0625 0.328125,0.109375 0,0.046875 0,0.09375 -0.015625,0.15625 L 2.9375,-2.65625 c -0.140625,-0.234375 -0.375,-0.421875 -0.71875,-0.421875 -0.890625,0 -1.796875,0.984375 -1.796875,1.984375 0,0.6875 0.453125,1.15625 1.0625,1.15625 0.375,0 0.703125,-0.203125 0.984375,-0.484375 C 2.59375,0 3,0.0625 3.1875,0.0625 c 0.25,0 0.421875,-0.140625 0.546875,-0.359375 0.15625,-0.28125 0.25,-0.671875 0.25,-0.703125 0,-0.09375 -0.09375,-0.09375 -0.109375,-0.09375 -0.109375,0 -0.109375,0.03125 -0.15625,0.21875 C 3.625,-0.53125 3.5,-0.125 3.203125,-0.125 3.03125,-0.125 2.96875,-0.28125 2.96875,-0.46875 c 0,-0.125 0.015625,-0.1875 0.046875,-0.28125 z M 2.5,-0.875 C 2.453125,-0.671875 2.296875,-0.53125 2.140625,-0.40625 2.078125,-0.34375 1.796875,-0.125 1.5,-0.125 c -0.265625,0 -0.515625,-0.1875 -0.515625,-0.671875 0,-0.375 0.203125,-1.140625 0.375,-1.421875 0.3125,-0.5625 0.671875,-0.65625 0.859375,-0.65625 0.484375,0 0.625,0.53125 0.625,0.609375 0,0.015625 -0.015625,0.078125 -0.015625,0.09375 z m 0,0"
               id="id-70e83b4a-7efa-4795-8b54-84f6769b7856" />
          </g>
          <g
             id="id-178db123-b60a-4a1d-a8db-d5ddde1b9d00">
            <path
               d="m 1.5625,-1.59375 c 0.1875,0 0.75,-0.015625 1.125,-0.140625 0.515625,-0.1875 0.609375,-0.515625 0.609375,-0.71875 0,-0.390625 -0.390625,-0.625 -0.859375,-0.625 -0.84375,0 -1.96875,0.640625 -1.96875,1.84375 0,0.703125 0.4375,1.296875 1.25,1.296875 1.1875,0 1.734375,-0.6875 1.734375,-0.78125 0,-0.046875 -0.0625,-0.125 -0.125,-0.125 -0.03125,0 -0.046875,0.015625 -0.109375,0.078125 C 2.671875,-0.125 1.859375,-0.125 1.734375,-0.125 1.3125,-0.125 1.03125,-0.40625 1.03125,-0.96875 c 0,-0.09375 0,-0.234375 0.09375,-0.625 z M 1.171875,-1.78125 C 1.46875,-2.796875 2.234375,-2.875 2.4375,-2.875 2.734375,-2.875 3,-2.71875 3,-2.453125 3,-1.78125 1.8125,-1.78125 1.515625,-1.78125 Z m 0,0"
               id="id-2dc9d716-0f01-47d2-8ab7-88779d5b1008" />
          </g>
          <g
             id="id-ad564f6a-9b8d-4822-b0d1-198f1b7e77ab">
            <path
               d="m 1.71875,-2.75 h 0.703125 c 0.140625,0 0.21875,0 0.21875,-0.15625 C 2.640625,-3 2.5625,-3 2.4375,-3 H 1.78125 l 0.25,-1.03125 C 2.046875,-4.0625 2.0625,-4.109375 2.0625,-4.125 c 0,-0.140625 -0.109375,-0.234375 -0.25,-0.234375 -0.171875,0 -0.265625,0.125 -0.328125,0.296875 C 1.4375,-3.875 1.53125,-4.21875 1.21875,-3 H 0.515625 c -0.125,0 -0.21875,0 -0.21875,0.15625 C 0.296875,-2.75 0.375,-2.75 0.5,-2.75 H 1.15625 L 0.75,-1.109375 C 0.703125,-0.9375 0.640625,-0.6875 0.640625,-0.59375 c 0,0.40625 0.359375,0.65625 0.75,0.65625 0.78125,0 1.21875,-0.96875 1.21875,-1.0625 0,-0.09375 -0.09375,-0.09375 -0.109375,-0.09375 -0.09375,0 -0.09375,0.015625 -0.15625,0.140625 -0.1875,0.4375 -0.546875,0.828125 -0.921875,0.828125 -0.15625,0 -0.25,-0.09375 -0.25,-0.34375 0,-0.0625 0.03125,-0.21875 0.046875,-0.28125 z m 0,0"
               id="id-2a4e024b-78db-47d9-a944-622bc6219ead" />
          </g>
          <g
             id="id-f0fee361-1c6b-4956-9f99-5ec69aa88d7e">
            <path
               d="M 2.46875,-5.21875 C 1.15625,-4.296875 0.796875,-2.8125 0.796875,-1.75 c 0,0.984375 0.296875,2.515625 1.671875,3.484375 0.0625,0 0.140625,0 0.140625,-0.078125 0,-0.046875 -0.015625,-0.0625 -0.0625,-0.109375 C 1.609375,0.703125 1.28125,-0.46875 1.28125,-1.734375 1.28125,-3.625 2,-4.546875 2.5625,-5.0625 2.59375,-5.09375 2.609375,-5.109375 2.609375,-5.140625 2.609375,-5.21875 2.53125,-5.21875 2.46875,-5.21875 Z m 0,0"
               id="id-f1037235-1940-469c-90cd-9c33dd860159" />
          </g>
          <g
             id="id-351ac924-2bb4-4315-809b-47601cc04c1e">
            <path
               d="m 0.625,-5.21875 c -0.046875,0 -0.125,0 -0.125,0.078125 0,0.03125 0.015625,0.046875 0.0625,0.109375 0.59375,0.546875 1.265625,1.484375 1.265625,3.28125 0,1.453125 -0.453125,2.5625 -1.203125,3.234375 -0.125,0.125 -0.125,0.125 -0.125,0.171875 0,0.03125 0.015625,0.078125 0.078125,0.078125 0.09375,0 0.75,-0.453125 1.21875,-1.328125 0.296875,-0.578125 0.5,-1.328125 0.5,-2.140625 C 2.296875,-2.71875 2,-4.25 0.625,-5.21875 Z m 0,0"
               id="id-a4dc6b82-cae3-43f0-94df-3669a954bfa1" />
          </g>
        </g>
      </defs>
      <g
         fill="#000000"
         fill-opacity="1"
         id="id-a3134aba-b4bf-449e-89ce-893dcad11474"
         transform="translate(-134.941,-73.4522)">
        <g
           transform="translate(134.941,78.671)"
           id="g150">
          <path
             d="M 3.984375,-4.625 C 3.984375,-4.640625 4,-4.734375 4,-4.734375 4,-4.78125 3.984375,-4.84375 3.890625,-4.84375 3.75,-4.84375 3.171875,-4.78125 3,-4.765625 c -0.046875,0 -0.15625,0.015625 -0.15625,0.15625 0,0.09375 0.109375,0.09375 0.1875,0.09375 0.328125,0 0.328125,0.0625 0.328125,0.109375 0,0.046875 0,0.09375 -0.015625,0.15625 L 2.9375,-2.65625 c -0.140625,-0.234375 -0.375,-0.421875 -0.71875,-0.421875 -0.890625,0 -1.796875,0.984375 -1.796875,1.984375 0,0.6875 0.453125,1.15625 1.0625,1.15625 0.375,0 0.703125,-0.203125 0.984375,-0.484375 C 2.59375,0 3,0.0625 3.1875,0.0625 c 0.25,0 0.421875,-0.140625 0.546875,-0.359375 0.15625,-0.28125 0.25,-0.671875 0.25,-0.703125 0,-0.09375 -0.09375,-0.09375 -0.109375,-0.09375 -0.109375,0 -0.109375,0.03125 -0.15625,0.21875 C 3.625,-0.53125 3.5,-0.125 3.203125,-0.125 3.03125,-0.125 2.96875,-0.28125 2.96875,-0.46875 c 0,-0.125 0.015625,-0.1875 0.046875,-0.28125 z M 2.5,-0.875 C 2.453125,-0.671875 2.296875,-0.53125 2.140625,-0.40625 2.078125,-0.34375 1.796875,-0.125 1.5,-0.125 c -0.265625,0 -0.515625,-0.1875 -0.515625,-0.671875 0,-0.375 0.203125,-1.140625 0.375,-1.421875 0.3125,-0.5625 0.671875,-0.65625 0.859375,-0.65625 0.484375,0 0.625,0.53125 0.625,0.609375 0,0.015625 -0.015625,0.078125 -0.015625,0.09375 z m 0,0"
             id="id-0881977c-4ad9-4f46-af99-8a81f9dcb226" />
        </g>
        <g
           transform="translate(139.088,78.671)"
           id="g151">
          <path
             d="m 1.5625,-1.59375 c 0.1875,0 0.75,-0.015625 1.125,-0.140625 0.515625,-0.1875 0.609375,-0.515625 0.609375,-0.71875 0,-0.390625 -0.390625,-0.625 -0.859375,-0.625 -0.84375,0 -1.96875,0.640625 -1.96875,1.84375 0,0.703125 0.4375,1.296875 1.25,1.296875 1.1875,0 1.734375,-0.6875 1.734375,-0.78125 0,-0.046875 -0.0625,-0.125 -0.125,-0.125 -0.03125,0 -0.046875,0.015625 -0.109375,0.078125 C 2.671875,-0.125 1.859375,-0.125 1.734375,-0.125 1.3125,-0.125 1.03125,-0.40625 1.03125,-0.96875 c 0,-0.09375 0,-0.234375 0.09375,-0.625 z M 1.171875,-1.78125 C 1.46875,-2.796875 2.234375,-2.875 2.4375,-2.875 2.734375,-2.875 3,-2.71875 3,-2.453125 3,-1.78125 1.8125,-1.78125 1.515625,-1.78125 Z m 0,0"
             id="id-ad88e661-1f15-4d02-b5bc-d6c4c42c8e1b" />
        </g>
      </g>
      <g
         fill="#000000"
         fill-opacity="1"
         id="id-055e35b4-8686-4168-a59d-04d4ed036248"
         transform="translate(-134.941,-73.4522)">
        <g
           transform="translate(142.868,78.671)"
           id="g152">
          <path
             d="M 2.46875,-5.21875 C 1.15625,-4.296875 0.796875,-2.8125 0.796875,-1.75 c 0,0.984375 0.296875,2.515625 1.671875,3.484375 0.0625,0 0.140625,0 0.140625,-0.078125 0,-0.046875 -0.015625,-0.0625 -0.0625,-0.109375 C 1.609375,0.703125 1.28125,-0.46875 1.28125,-1.734375 1.28125,-3.625 2,-4.546875 2.5625,-5.0625 2.59375,-5.09375 2.609375,-5.109375 2.609375,-5.140625 2.609375,-5.21875 2.53125,-5.21875 2.46875,-5.21875 Z m 0,0"
             id="id-cfb8457d-5f91-4041-b35a-83c3d25728d3" />
        </g>
      </g>
      <g
         fill="#000000"
         fill-opacity="1"
         id="id-5daeb780-e805-4a46-a839-baf553bd17cb"
         transform="translate(-134.941,-73.4522)">
        <g
           transform="translate(145.981,78.671)"
           id="g153">
          <path
             d="m 1.71875,-2.75 h 0.703125 c 0.140625,0 0.21875,0 0.21875,-0.15625 C 2.640625,-3 2.5625,-3 2.4375,-3 H 1.78125 l 0.25,-1.03125 C 2.046875,-4.0625 2.0625,-4.109375 2.0625,-4.125 c 0,-0.140625 -0.109375,-0.234375 -0.25,-0.234375 -0.171875,0 -0.265625,0.125 -0.328125,0.296875 C 1.4375,-3.875 1.53125,-4.21875 1.21875,-3 H 0.515625 c -0.125,0 -0.21875,0 -0.21875,0.15625 C 0.296875,-2.75 0.375,-2.75 0.5,-2.75 H 1.15625 L 0.75,-1.109375 C 0.703125,-0.9375 0.640625,-0.6875 0.640625,-0.59375 c 0,0.40625 0.359375,0.65625 0.75,0.65625 0.78125,0 1.21875,-0.96875 1.21875,-1.0625 0,-0.09375 -0.09375,-0.09375 -0.109375,-0.09375 -0.09375,0 -0.09375,0.015625 -0.15625,0.140625 -0.1875,0.4375 -0.546875,0.828125 -0.921875,0.828125 -0.15625,0 -0.25,-0.09375 -0.25,-0.34375 0,-0.0625 0.03125,-0.21875 0.046875,-0.28125 z m 0,0"
             id="id-1ae5d660-50cc-4370-b942-aa6ffc0a1d35" />
        </g>
      </g>
      <g
         fill="#000000"
         fill-opacity="1"
         id="id-dbcd1608-4ff2-4567-96ff-0ef551bd919f"
         transform="translate(-134.941,-73.4522)">
        <g
           transform="translate(148.991,78.671)"
           id="g154">
          <path
             d="m 0.625,-5.21875 c -0.046875,0 -0.125,0 -0.125,0.078125 0,0.03125 0.015625,0.046875 0.0625,0.109375 0.59375,0.546875 1.265625,1.484375 1.265625,3.28125 0,1.453125 -0.453125,2.5625 -1.203125,3.234375 -0.125,0.125 -0.125,0.125 -0.125,0.171875 0,0.03125 0.015625,0.078125 0.078125,0.078125 0.09375,0 0.75,-0.453125 1.21875,-1.328125 0.296875,-0.578125 0.5,-1.328125 0.5,-2.140625 C 2.296875,-2.71875 2,-4.25 0.625,-5.21875 Z m 0,0"
             id="id-d0e08998-f1c0-43d5-a86b-ae772e6ccfa2" />
        </g>
      </g>
      <path
         fill="none"
         stroke-width="0.398"
         stroke-linecap="butt"
         stroke-linejoin="miter"
         stroke="#000000"
         stroke-opacity="1"
         stroke-miterlimit="10"
         d="M 0,7.5594711 H 17.164063"
         id="id-0f900342-64cb-41b6-abd7-575a0fcd7cdc" />
      <g
         fill="#000000"
         fill-opacity="1"
         id="id-f3d8598e-89cc-4bbb-a1cf-f021a9023fe3"
         transform="translate(-134.941,-73.4522)">
        <g
           transform="translate(139.944,86.938)"
           id="g155">
          <path
             d="M 3.984375,-4.625 C 3.984375,-4.640625 4,-4.734375 4,-4.734375 4,-4.78125 3.984375,-4.84375 3.890625,-4.84375 3.75,-4.84375 3.171875,-4.78125 3,-4.765625 c -0.046875,0 -0.15625,0.015625 -0.15625,0.15625 0,0.09375 0.109375,0.09375 0.1875,0.09375 0.328125,0 0.328125,0.0625 0.328125,0.109375 0,0.046875 0,0.09375 -0.015625,0.15625 L 2.9375,-2.65625 c -0.140625,-0.234375 -0.375,-0.421875 -0.71875,-0.421875 -0.890625,0 -1.796875,0.984375 -1.796875,1.984375 0,0.6875 0.453125,1.15625 1.0625,1.15625 0.375,0 0.703125,-0.203125 0.984375,-0.484375 C 2.59375,0 3,0.0625 3.1875,0.0625 c 0.25,0 0.421875,-0.140625 0.546875,-0.359375 0.15625,-0.28125 0.25,-0.671875 0.25,-0.703125 0,-0.09375 -0.09375,-0.09375 -0.109375,-0.09375 -0.109375,0 -0.109375,0.03125 -0.15625,0.21875 C 3.625,-0.53125 3.5,-0.125 3.203125,-0.125 3.03125,-0.125 2.96875,-0.28125 2.96875,-0.46875 c 0,-0.125 0.015625,-0.1875 0.046875,-0.28125 z M 2.5,-0.875 C 2.453125,-0.671875 2.296875,-0.53125 2.140625,-0.40625 2.078125,-0.34375 1.796875,-0.125 1.5,-0.125 c -0.265625,0 -0.515625,-0.1875 -0.515625,-0.671875 0,-0.375 0.203125,-1.140625 0.375,-1.421875 0.3125,-0.5625 0.671875,-0.65625 0.859375,-0.65625 0.484375,0 0.625,0.53125 0.625,0.609375 0,0.015625 -0.015625,0.078125 -0.015625,0.09375 z m 0,0"
             id="id-34158b3f-5035-4e2e-8db6-2c582be6674a" />
        </g>
        <g
           transform="translate(144.091,86.938)"
           id="g156">
          <path
             d="m 1.71875,-2.75 h 0.703125 c 0.140625,0 0.21875,0 0.21875,-0.15625 C 2.640625,-3 2.5625,-3 2.4375,-3 H 1.78125 l 0.25,-1.03125 C 2.046875,-4.0625 2.0625,-4.109375 2.0625,-4.125 c 0,-0.140625 -0.109375,-0.234375 -0.25,-0.234375 -0.171875,0 -0.265625,0.125 -0.328125,0.296875 C 1.4375,-3.875 1.53125,-4.21875 1.21875,-3 H 0.515625 c -0.125,0 -0.21875,0 -0.21875,0.15625 C 0.296875,-2.75 0.375,-2.75 0.5,-2.75 H 1.15625 L 0.75,-1.109375 C 0.703125,-0.9375 0.640625,-0.6875 0.640625,-0.59375 c 0,0.40625 0.359375,0.65625 0.75,0.65625 0.78125,0 1.21875,-0.96875 1.21875,-1.0625 0,-0.09375 -0.09375,-0.09375 -0.109375,-0.09375 -0.09375,0 -0.09375,0.015625 -0.15625,0.140625 -0.1875,0.4375 -0.546875,0.828125 -0.921875,0.828125 -0.15625,0 -0.25,-0.09375 -0.25,-0.34375 0,-0.0625 0.03125,-0.21875 0.046875,-0.28125 z m 0,0"
             id="id-7e3ab595-8783-4e2c-9723-0e0ad8e1456c" />
        </g>
      </g>
    </g>
    <g
       transform="matrix(0.201853,0,0,0.201853,34.627879,117.13388)"
       ns4:version="1.10.2"
       ns4:texconverter="pdflatex"
       ns4:pdfconverter="inkscape"
       ns4:text="$\\cdot$"
       ns4:preamble="C:\Users\thomas.haberkorn\OneDrive - VENTREX\Dokumente\default_packages.txt"
       ns4:scale="0.5721792056244109"
       ns4:alignment="middle center"
       ns4:stroke-to-path="0"
       ns4:inkscapeversion="1.4.3"
       ns4:jacobian_sqrt="0.201853"
       id="g168">
      <defs
         id="defs165">
        <g
           id="g165">
          <g
             id="g164">
            <path
               d="m 1.90625,-2.5 c 0,-0.28125 -0.234375,-0.515625 -0.515625,-0.515625 -0.296875,0 -0.53125,0.234375 -0.53125,0.515625 0,0.296875 0.234375,0.53125 0.53125,0.53125 0.28125,0 0.515625,-0.234375 0.515625,-0.53125 z m 0,0"
               id="path163" />
          </g>
        </g>
      </defs>
      <g
         fill="#000000"
         fill-opacity="1"
         id="g167"
         transform="translate(-134.604,-80.3874)">
        <g
           transform="translate(133.745,83.403)"
           id="g166">
          <path
             d="m 1.90625,-2.5 c 0,-0.28125 -0.234375,-0.515625 -0.515625,-0.515625 -0.296875,0 -0.53125,0.234375 -0.53125,0.515625 0,0.296875 0.234375,0.53125 0.53125,0.53125 0.28125,0 0.515625,-0.234375 0.515625,-0.53125 z m 0,0"
             id="path165" />
        </g>
      </g>
    </g>
    <path
       d="M 53.115596,98.658007 V 89.258673"
       marker-end="url(#arrowhead)"
       id="path171"
       style="fill:none;stroke:#000000;stroke-width:0.209682;stroke-opacity:1"
       sodipodi:nodetypes="cc" />
    <g
       id="g190"
       transform="translate(0.10434937,0.35094408)">
      <text
         x="2.0849352"
         y="98.86216"
         font-size="1.67925px"
         text-anchor="middle"
         id="text16-2"
         style="font-weight:bold;font-family:Arial, sans-serif;fill:#000000;fill-opacity:1;stroke-width:0.07633"><tspan
           sodipodi:role="line"
           id="tspan33"
           x="2.0849352"
           y="98.86216"
           style="fill:#000000;fill-opacity:1;stroke-width:0.07633"><tspan
             style="font-style:normal;font-variant:normal;font-weight:bold;font-stretch:normal;font-family:KohinoorW00-Bold;-inkscape-font-specification:'KohinoorW00-Bold Bold';fill:#000000;fill-opacity:1;stroke-width:0.07633"
             id="tspan31-7"
             dy="0 0 0 0 0 0 0">Process</tspan></tspan><tspan
           sodipodi:role="line"
           id="tspan34"
           x="2.0849352"
           y="101.01103"
           style="fill:#000000;fill-opacity:1;stroke-width:0.07633"><tspan
             style="font-style:normal;font-variant:normal;font-weight:bold;font-stretch:normal;font-family:KohinoorW00-Bold;-inkscape-font-specification:'KohinoorW00-Bold Bold';fill:#000000;fill-opacity:1;stroke-width:0.07633"
             id="tspan35">Variable</tspan></tspan></text>
      <text
         xml:space="preserve"
         style="font-weight:bold;font-size:1.71227px;font-family:KohinoorW00-Bold;-inkscape-font-specification:'KohinoorW00-Bold, Bold';text-align:center;writing-mode:lr-tb;direction:ltr;text-anchor:middle;fill:#3a7bf0;fill-opacity:1;stroke:#00ffb2;stroke-width:1.11433;stroke-linejoin:round;stroke-dasharray:none"
         x="10.543022"
         y="98.854134"
         id="text108"><tspan
           sodipodi:role="line"
           style="fill:#000000;fill-opacity:1;stroke:none;stroke-width:1.11433"
           x="10.543022"
           y="98.854134"
           id="tspan108"><tspan
             id="tspan113"
             style="fill:#3a7bf0;fill-opacity:1;stroke:none;stroke-width:1.11433">OUTLET</tspan></tspan><tspan
           sodipodi:role="line"
           style="fill:#000000;fill-opacity:1;stroke:none;stroke-width:1.11433"
           x="10.543022"
           y="100.99447"
           id="tspan115"><tspan
             style="fill:#3a7bf0;fill-opacity:1;stroke:none;stroke-width:1.11433"
             id="tspan116">PRESSURE</tspan></tspan></text>
    </g>
    <rect
       x="-1.7652529"
       y="97.012512"
       width="17.103632"
       height="5.3430786"
       rx="0.76329702"
       id="rect189"
       style="fill:none;stroke:#000000;stroke-width:0.15266;stroke-opacity:1" />
    <path
       style="fill:#000000;fill-opacity:1;stroke:#000000;stroke-width:0.192037;stroke-linejoin:round;stroke-dasharray:none;stroke-opacity:1;marker-end:url(#marker102)"
       d="m 53.119827,117.13465 0,-5.86912"
       id="path193"
       sodipodi:nodetypes="cc" />
    <text
       xml:space="preserve"
       style="font-weight:bold;font-size:1.67676px;font-family:Satoshi;-inkscape-font-specification:'Satoshi, Bold';writing-mode:lr-tb;direction:ltr;fill:#0075ff;fill-opacity:1;stroke:#00ffb2;stroke-width:1.09122;stroke-linejoin:round;stroke-dasharray:none;font-style:normal;font-stretch:normal;font-variant:normal;font-variant-ligatures:normal;font-variant-caps:normal;font-variant-numeric:normal;font-variant-east-asian:normal"
       x="-11.854064"
       y="86.754707"
       id="text47"><tspan
         sodipodi:role="line"
         style="fill:#000000;fill-opacity:1;stroke:none;stroke-width:1.09122;-inkscape-font-specification:'Satoshi, Bold';font-family:Satoshi;font-weight:bold;font-style:normal;font-stretch:normal;font-variant:normal;font-size:1.67675993px;font-variant-ligatures:normal;font-variant-caps:normal;font-variant-numeric:normal;font-variant-east-asian:normal"
         x="-11.854064"
         y="86.754707"
         id="tspan54"><tspan
   style="fill:#ff9e0b;fill-opacity:1;stroke-width:1.09122;-inkscape-font-specification:'Satoshi, Bold';font-family:Satoshi;font-weight:bold;font-style:normal;font-stretch:normal;font-variant:normal;font-size:1.67675993px;font-variant-ligatures:normal;font-variant-caps:normal;font-variant-numeric:normal;font-variant-east-asian:normal"
   id="tspan48">SETPOINT</tspan> pressure</tspan></text>
    <rect
       x="-12.408463"
       y="85.016533"
       width="16.661711"
       height="2.3756027"
       rx="0.76329702"
       id="rect201"
       style="fill:none;stroke:#000000;stroke-width:0.15266;stroke-opacity:1" />
    <g
       id="g210"
       transform="translate(0.44159141,-0.35375131)">
      <text
         x="60.039207"
         y="85.372932"
         font-size="22px"
         text-anchor="middle"
         id="text18-2"
         style="font-style:normal;font-variant:normal;font-weight:bold;font-stretch:normal;font-size:1.56476px;font-family:KohinoorW00-Bold;-inkscape-font-specification:'KohinoorW00-Bold, Bold';font-variant-ligatures:normal;font-variant-caps:normal;font-variant-numeric:normal;font-variant-east-asian:normal;fill:#000000;fill-opacity:1;stroke-width:0.07633">Controller<tspan
   x="60.039207"
   dy="1.9082425"
   id="tspan17-3"
   style="font-style:normal;font-variant:normal;font-weight:bold;font-stretch:normal;font-size:1.56476px;font-family:KohinoorW00-Bold;-inkscape-font-specification:'KohinoorW00-Bold, Bold';font-variant-ligatures:normal;font-variant-caps:normal;font-variant-numeric:normal;font-variant-east-asian:normal;fill:#000000;fill-opacity:1;stroke-width:0.07633">Output</tspan></text>
      <text
         xml:space="preserve"
         style="font-weight:bold;font-size:1.58493px;font-family:KohinoorW00-Bold;-inkscape-font-specification:'KohinoorW00-Bold, Bold';text-align:center;writing-mode:lr-tb;direction:ltr;text-anchor:middle;fill:#0fb880;fill-opacity:1;stroke:#00ffb2;stroke-width:1.03146;stroke-linejoin:round;stroke-dasharray:none"
         x="68.545616"
         y="85.442802"
         id="text112"><tspan
           sodipodi:role="line"
           style="fill:#000000;fill-opacity:1;stroke:none;stroke-width:1.03146"
           x="68.545616"
           y="85.442802"
           id="tspan112"><tspan
             id="tspan114"
             style="fill:#0fb880;fill-opacity:1;stroke:none;stroke-width:1.03146">VALVE </tspan></tspan><tspan
           sodipodi:role="line"
           style="fill:#000000;fill-opacity:1;stroke:none;stroke-width:1.03146"
           x="68.545616"
           y="87.423965"
           id="tspan117"><tspan
             style="fill:#0fb880;fill-opacity:1;stroke:none;stroke-width:1.03146"
             id="tspan118">DUTY CYCLE</tspan></tspan></text>
    </g>
    <rect
       x="56.318069"
       y="82.860504"
       width="17.594738"
       height="5.3430786"
       rx="0.76329702"
       id="rect209"
       style="fill:none;stroke:#000000;stroke-width:0.15266;stroke-opacity:1" />
    <text
       x="13.370565"
       y="87.985451"
       font-size="1.67925px"
       id="text17-9"
       style="font-weight:bold;font-family:Satoshi;fill:#000000;fill-opacity:1;stroke-width:0.07633;-inkscape-font-specification:'Satoshi, Bold';font-style:normal;font-stretch:normal;font-variant:normal;font-size:1.68942672px;font-variant-ligatures:normal;font-variant-caps:normal;font-variant-numeric:normal;font-variant-east-asian:normal"><tspan
         style="font-style:normal;font-variant:normal;font-weight:bold;font-stretch:normal;font-family:Satoshi;-inkscape-font-specification:'Satoshi, Bold';fill:#000000;fill-opacity:1;stroke-width:0.07633;font-size:1.68942672px;font-variant-ligatures:normal;font-variant-caps:normal;font-variant-numeric:normal;font-variant-east-asian:normal"
         id="tspan32">Error</tspan></text>
    <text
       xml:space="preserve"
       style="font-weight:bold;font-size:1.68942672px;font-family:Satoshi;-inkscape-font-specification:'Satoshi, Bold';writing-mode:lr-tb;direction:ltr;fill:#0075ff;fill-opacity:1;stroke:#00ffb2;stroke-width:1.09122;stroke-linejoin:round;stroke-dasharray:none;font-style:normal;font-stretch:normal;font-variant:normal;font-variant-ligatures:normal;font-variant-caps:normal;font-variant-numeric:normal;font-variant-east-asian:normal"
       x="24.179892"
       y="87.983658"
       id="text56"><tspan
         sodipodi:role="line"
         style="fill:#000000;fill-opacity:1;stroke:none;stroke-width:1.09122;-inkscape-font-specification:'Satoshi, Bold';font-family:Satoshi;font-weight:bold;font-style:normal;font-stretch:normal;font-variant:normal;font-size:1.68942672px;font-variant-ligatures:normal;font-variant-caps:normal;font-variant-numeric:normal;font-variant-east-asian:normal"
         x="24.179892"
         y="87.983658"
         id="tspan56"><tspan
           style="fill:#ff9e0b;fill-opacity:1;stroke-width:1.09122;-inkscape-font-specification:'Satoshi, Bold';font-family:Satoshi;font-weight:bold;font-style:normal;font-stretch:normal;font-variant:normal;font-size:1.68942672px;font-variant-ligatures:normal;font-variant-caps:normal;font-variant-numeric:normal;font-variant-east-asian:normal"
           id="tspan55">SETPOINT</tspan></tspan></text>
    <text
       xml:space="preserve"
       style="font-style:normal;font-variant:normal;font-weight:bold;font-stretch:normal;font-size:1.68943px;font-family:Satoshi;-inkscape-font-specification:'Satoshi, Bold';font-variant-ligatures:normal;font-variant-caps:normal;font-variant-numeric:normal;font-variant-east-asian:normal;text-align:center;writing-mode:lr-tb;direction:ltr;text-anchor:middle;fill:#3a7bf0;fill-opacity:1;stroke:#00ffb2;stroke-width:1.11433;stroke-linejoin:round;stroke-dasharray:none"
       x="41.781906"
       y="87.996101"
       id="text64"><tspan
         sodipodi:role="line"
         style="font-style:normal;font-variant:normal;font-weight:bold;font-stretch:normal;font-size:1.68943px;font-family:Satoshi;-inkscape-font-specification:'Satoshi, Bold';font-variant-ligatures:normal;font-variant-caps:normal;font-variant-numeric:normal;font-variant-east-asian:normal;fill:#3a7bf0;fill-opacity:1;stroke:none;stroke-width:1.11433"
         x="41.781906"
         y="87.996101"
         id="tspan64">OUTLET PRESSURE</tspan></text>
    <g
       transform="matrix(0.201853,0,0,0.201853,18.372079,86.386911)"
       ns4:version="1.10.2"
       ns4:texconverter="pdflatex"
       ns4:pdfconverter="inkscape"
       ns4:text="$e(t)=$"
       ns4:preamble="C:\Users\thomas.haberkorn\OneDrive - VENTREX\Dokumente\default_packages.txt"
       ns4:scale="0.5721792056244109"
       ns4:alignment="middle center"
       ns4:stroke-to-path="0"
       ns4:inkscapeversion="1.4.3"
       ns4:jacobian_sqrt="0.201853"
       id="g34">
      <defs
         id="id-4391e7c8-bf5a-4a89-b8ed-8a683c3c99d9">
        <g
           id="id-bfb789d7-9307-4b8d-afda-924998dbfdbb">
          <g
             id="id-0be705af-b35d-4b5b-afe8-739f88655782">
            <path
               d="m 1.859375,-2.296875 c 0.296875,0 1.03125,-0.03125 1.53125,-0.234375 0.703125,-0.296875 0.75,-0.890625 0.75,-1.03125 0,-0.4375 -0.375,-0.84375 -1.0625,-0.84375 -1.109375,0 -2.625,0.96875 -2.625,2.71875 0,1.015625 0.59375,1.796875 1.578125,1.796875 1.421875,0 2.25,-1.0625 2.25,-1.171875 0,-0.0625 -0.046875,-0.140625 -0.109375,-0.140625 -0.0625,0 -0.078125,0.03125 -0.140625,0.109375 -0.78125,0.984375 -1.875,0.984375 -1.984375,0.984375 -0.78125,0 -0.875,-0.84375 -0.875,-1.15625 0,-0.125 0.015625,-0.421875 0.15625,-1.03125 z m -0.46875,-0.21875 C 1.78125,-4.03125 2.8125,-4.1875 3.078125,-4.1875 c 0.453125,0 0.734375,0.296875 0.734375,0.625 0,1.046875 -1.59375,1.046875 -2.015625,1.046875 z m 0,0"
               id="id-fd057dc4-0a7d-4be8-8d49-f683cfb70624" />
          </g>
          <g
             id="id-e92f740d-0a1d-4b68-9bf2-0376552a8e62">
            <path
               d="m 2.046875,-3.984375 h 0.9375 c 0.203125,0 0.3125,0 0.3125,-0.203125 0,-0.109375 -0.109375,-0.109375 -0.28125,-0.109375 h -0.875 C 2.5,-5.71875 2.546875,-5.90625 2.546875,-5.96875 c 0,-0.171875 -0.125,-0.265625 -0.296875,-0.265625 -0.03125,0 -0.3125,0 -0.390625,0.359375 L 1.46875,-4.296875 h -0.9375 c -0.203125,0 -0.296875,0 -0.296875,0.1875 0,0.125 0.078125,0.125 0.28125,0.125 h 0.875 C 0.671875,-1.15625 0.625,-0.984375 0.625,-0.8125 0.625,-0.265625 1,0.109375 1.546875,0.109375 2.5625,0.109375 3.125,-1.34375 3.125,-1.421875 3.125,-1.53125 3.046875,-1.53125 3.015625,-1.53125 2.921875,-1.53125 2.90625,-1.5 2.859375,-1.390625 2.4375,-0.34375 1.90625,-0.109375 1.5625,-0.109375 c -0.203125,0 -0.3125,-0.125 -0.3125,-0.453125 0,-0.25 0.03125,-0.3125 0.0625,-0.484375 z m 0,0"
               id="id-39b1b0d1-5a48-4bb5-9272-af15722857a1" />
          </g>
          <g
             id="id-30084e8d-3c63-4692-be80-033871ea61fb">
            <path
               d="m 3.296875,2.390625 c 0,-0.03125 0,-0.046875 -0.171875,-0.21875 C 1.890625,0.921875 1.5625,-0.96875 1.5625,-2.5 c 0,-1.734375 0.375,-3.46875 1.609375,-4.703125 0.125,-0.125 0.125,-0.140625 0.125,-0.171875 0,-0.078125 -0.03125,-0.109375 -0.09375,-0.109375 -0.109375,0 -1,0.6875 -1.59375,1.953125 -0.5,1.09375 -0.625,2.203125 -0.625,3.03125 0,0.78125 0.109375,1.984375 0.65625,3.125 C 2.25,1.84375 3.09375,2.5 3.203125,2.5 c 0.0625,0 0.09375,-0.03125 0.09375,-0.109375 z m 0,0"
               id="id-1c3485f0-602e-4d90-823a-2cce96a985f3" />
          </g>
          <g
             id="id-424c4025-2e44-41fa-adc4-dfd274407bd0">
            <path
               d="m 2.875,-2.5 c 0,-0.765625 -0.109375,-1.96875 -0.65625,-3.109375 -0.59375,-1.21875 -1.453125,-1.875 -1.546875,-1.875 -0.0625,0 -0.109375,0.046875 -0.109375,0.109375 0,0.03125 0,0.046875 0.1875,0.234375 0.984375,0.984375 1.546875,2.5625 1.546875,4.640625 0,1.71875 -0.359375,3.46875 -1.59375,4.71875 C 0.5625,2.34375 0.5625,2.359375 0.5625,2.390625 0.5625,2.453125 0.609375,2.5 0.671875,2.5 0.765625,2.5 1.671875,1.8125 2.25,0.546875 2.765625,-0.546875 2.875,-1.65625 2.875,-2.5 Z m 0,0"
               id="id-9eaee5dc-312f-4953-b8c2-13f328dc1b5b" />
          </g>
          <g
             id="id-b512676d-dc6a-43fe-9bb3-ffa38ab3b4f8">
            <path
               d="m 6.84375,-3.265625 c 0.15625,0 0.34375,0 0.34375,-0.1875 C 7.1875,-3.65625 7,-3.65625 6.859375,-3.65625 h -5.96875 c -0.140625,0 -0.328125,0 -0.328125,0.203125 0,0.1875 0.1875,0.1875 0.328125,0.1875 z m 0.015625,1.9375 c 0.140625,0 0.328125,0 0.328125,-0.203125 0,-0.1875 -0.1875,-0.1875 -0.34375,-0.1875 H 0.890625 c -0.140625,0 -0.328125,0 -0.328125,0.1875 0,0.203125 0.1875,0.203125 0.328125,0.203125 z m 0,0"
               id="id-10b0fe55-ece8-4986-892b-fc1985c9fa72" />
          </g>
        </g>
      </defs>
      <g
         fill="#000000"
         fill-opacity="1"
         id="id-7d1cb682-e06e-4cee-984a-7ed534975199"
         transform="translate(-134.198,-75.9186)">
        <g
           transform="translate(133.745,83.403)"
           id="g65">
          <path
             d="m 1.859375,-2.296875 c 0.296875,0 1.03125,-0.03125 1.53125,-0.234375 0.703125,-0.296875 0.75,-0.890625 0.75,-1.03125 0,-0.4375 -0.375,-0.84375 -1.0625,-0.84375 -1.109375,0 -2.625,0.96875 -2.625,2.71875 0,1.015625 0.59375,1.796875 1.578125,1.796875 1.421875,0 2.25,-1.0625 2.25,-1.171875 0,-0.0625 -0.046875,-0.140625 -0.109375,-0.140625 -0.0625,0 -0.078125,0.03125 -0.140625,0.109375 -0.78125,0.984375 -1.875,0.984375 -1.984375,0.984375 -0.78125,0 -0.875,-0.84375 -0.875,-1.15625 0,-0.125 0.015625,-0.421875 0.15625,-1.03125 z m -0.46875,-0.21875 C 1.78125,-4.03125 2.8125,-4.1875 3.078125,-4.1875 c 0.453125,0 0.734375,0.296875 0.734375,0.625 0,1.046875 -1.59375,1.046875 -2.015625,1.046875 z m 0,0"
             id="id-9d500658-41b7-4b05-90ca-02b5de3e3dfb" />
        </g>
      </g>
      <g
         fill="#000000"
         fill-opacity="1"
         id="id-76e29d48-e94c-407c-aa8a-0b63d9fe5771"
         transform="translate(-134.198,-75.9186)">
        <g
           transform="translate(138.384,83.403)"
           id="g66">
          <path
             d="m 3.296875,2.390625 c 0,-0.03125 0,-0.046875 -0.171875,-0.21875 C 1.890625,0.921875 1.5625,-0.96875 1.5625,-2.5 c 0,-1.734375 0.375,-3.46875 1.609375,-4.703125 0.125,-0.125 0.125,-0.140625 0.125,-0.171875 0,-0.078125 -0.03125,-0.109375 -0.09375,-0.109375 -0.109375,0 -1,0.6875 -1.59375,1.953125 -0.5,1.09375 -0.625,2.203125 -0.625,3.03125 0,0.78125 0.109375,1.984375 0.65625,3.125 C 2.25,1.84375 3.09375,2.5 3.203125,2.5 c 0.0625,0 0.09375,-0.03125 0.09375,-0.109375 z m 0,0"
             id="id-48cf23b4-b842-4478-bd85-4ba3d7143383" />
        </g>
      </g>
      <g
         fill="#000000"
         fill-opacity="1"
         id="id-ef77d26b-029e-4f14-a3a3-d0418ad38cc3"
         transform="translate(-134.198,-75.9186)">
        <g
           transform="translate(142.258,83.403)"
           id="g67">
          <path
             d="m 2.046875,-3.984375 h 0.9375 c 0.203125,0 0.3125,0 0.3125,-0.203125 0,-0.109375 -0.109375,-0.109375 -0.28125,-0.109375 h -0.875 C 2.5,-5.71875 2.546875,-5.90625 2.546875,-5.96875 c 0,-0.171875 -0.125,-0.265625 -0.296875,-0.265625 -0.03125,0 -0.3125,0 -0.390625,0.359375 L 1.46875,-4.296875 h -0.9375 c -0.203125,0 -0.296875,0 -0.296875,0.1875 0,0.125 0.078125,0.125 0.28125,0.125 h 0.875 C 0.671875,-1.15625 0.625,-0.984375 0.625,-0.8125 0.625,-0.265625 1,0.109375 1.546875,0.109375 2.5625,0.109375 3.125,-1.34375 3.125,-1.421875 3.125,-1.53125 3.046875,-1.53125 3.015625,-1.53125 2.921875,-1.53125 2.90625,-1.5 2.859375,-1.390625 2.4375,-0.34375 1.90625,-0.109375 1.5625,-0.109375 c -0.203125,0 -0.3125,-0.125 -0.3125,-0.453125 0,-0.25 0.03125,-0.3125 0.0625,-0.484375 z m 0,0"
             id="id-8482514d-6bdf-415c-8143-9b2fb1dd074b" />
        </g>
      </g>
      <g
         fill="#000000"
         fill-opacity="1"
         id="id-f49d00de-70ad-4e94-a30e-340f8050ee72"
         transform="translate(-134.198,-75.9186)">
        <g
           transform="translate(145.856,83.403)"
           id="g68">
          <path
             d="m 2.875,-2.5 c 0,-0.765625 -0.109375,-1.96875 -0.65625,-3.109375 -0.59375,-1.21875 -1.453125,-1.875 -1.546875,-1.875 -0.0625,0 -0.109375,0.046875 -0.109375,0.109375 0,0.03125 0,0.046875 0.1875,0.234375 0.984375,0.984375 1.546875,2.5625 1.546875,4.640625 0,1.71875 -0.359375,3.46875 -1.59375,4.71875 C 0.5625,2.34375 0.5625,2.359375 0.5625,2.390625 0.5625,2.453125 0.609375,2.5 0.671875,2.5 0.765625,2.5 1.671875,1.8125 2.25,0.546875 2.765625,-0.546875 2.875,-1.65625 2.875,-2.5 Z m 0,0"
             id="id-6577f132-28c8-47e7-b050-9aa878c35957" />
        </g>
      </g>
      <g
         fill="#000000"
         fill-opacity="1"
         id="id-e1121038-4f2b-4227-a322-86da42859d19"
         transform="translate(-134.198,-75.9186)">
        <g
           transform="translate(152.5,83.403)"
           id="g69">
          <path
             d="m 6.84375,-3.265625 c 0.15625,0 0.34375,0 0.34375,-0.1875 C 7.1875,-3.65625 7,-3.65625 6.859375,-3.65625 h -5.96875 c -0.140625,0 -0.328125,0 -0.328125,0.203125 0,0.1875 0.1875,0.1875 0.328125,0.1875 z m 0.015625,1.9375 c 0.140625,0 0.328125,0 0.328125,-0.203125 0,-0.1875 -0.1875,-0.1875 -0.34375,-0.1875 H 0.890625 c -0.140625,0 -0.328125,0 -0.328125,0.1875 0,0.203125 0.1875,0.203125 0.328125,0.203125 z m 0,0"
             id="id-d08a53af-d0b0-4628-abf6-2180e8a7f57a" />
        </g>
      </g>
    </g>
    <g
       transform="matrix(0.201853,0,0,0.201853,32.478364,87.355211)"
       ns4:version="1.10.2"
       ns4:texconverter="pdflatex"
       ns4:pdfconverter="inkscape"
       ns4:text="$-$"
       ns4:preamble="C:\Users\thomas.haberkorn\OneDrive - VENTREX\Dokumente\default_packages.txt"
       ns4:scale="0.5721792056244109"
       ns4:alignment="middle center"
       ns4:stroke-to-path="0"
       ns4:inkscapeversion="1.4.3"
       ns4:jacobian_sqrt="0.201853"
       id="g189">
      <defs
         id="id-b9a312a2-c3cf-4535-adba-37e59b0c43ea">
        <g
           id="id-9c3150d0-7755-45a2-b439-9bf48227769a">
          <g
             id="id-bb1fb10e-8aed-4c6b-88aa-053361f53a11">
            <path
               d="m 6.5625,-2.296875 c 0.171875,0 0.359375,0 0.359375,-0.203125 0,-0.1875 -0.1875,-0.1875 -0.359375,-0.1875 H 1.171875 c -0.171875,0 -0.34375,0 -0.34375,0.1875 0,0.203125 0.171875,0.203125 0.34375,0.203125 z m 0,0"
               id="id-1b4d77c6-e951-4e16-9800-cc8588614260" />
          </g>
        </g>
      </defs>
      <g
         fill="#000000"
         fill-opacity="1"
         id="id-99b42742-4da2-4656-81f2-a13b09776d67"
         transform="translate(-134.573,-80.7155)">
        <g
           transform="translate(133.745,83.403)"
           id="g188">
          <path
             d="m 6.5625,-2.296875 c 0.171875,0 0.359375,0 0.359375,-0.203125 0,-0.1875 -0.1875,-0.1875 -0.359375,-0.1875 H 1.171875 c -0.171875,0 -0.34375,0 -0.34375,0.1875 0,0.203125 0.171875,0.203125 0.34375,0.203125 z m 0,0"
             id="id-8206ffaf-5e7d-438e-80fa-21ba41b42ee8" />
        </g>
      </g>
    </g>
    <rect
       x="12.737656"
       y="86.206802"
       width="37.37429"
       height="2.3756027"
       rx="0.76329702"
       id="rect211"
       style="fill:none;stroke:#000000;stroke-width:0.15266;stroke-opacity:1" />
    <g
       id="g6"
       transform="translate(4.6469989e-4,19.073841)">
      <circle
         cx="53.14959"
         cy="88.961945"
         r="1.9082425"
         id="circle1"
         style="fill:url(#linearGradient6);stroke:#000000;stroke-width:0.15266;stroke-opacity:1" />
      <text
         x="53.14959"
         y="89.572586"
         id="text1"
         style="font-size:1.83191px;font-family:Arial, sans-serif;text-anchor:middle;fill:#000000;fill-opacity:1;stroke-width:0.0763297">+</text>
    </g>
    <g
       id="g7"
       transform="translate(4.6469989e-4,9.5644273)">
      <circle
         cx="53.14959"
         cy="88.961945"
         r="1.9082425"
         id="circle6"
         style="fill:url(#linearGradient7);stroke:#000000;stroke-width:0.15266;stroke-opacity:1" />
      <text
         x="53.14959"
         y="89.572586"
         id="text6"
         style="font-size:1.83191px;font-family:Arial, sans-serif;text-anchor:middle;fill:#000000;fill-opacity:1;stroke-width:0.0763297">+</text>
    </g>
    <path
       style="fill:#000000;fill-opacity:1;stroke:#000000;stroke-width:0.192037;stroke-linejoin:round;stroke-dasharray:none;stroke-opacity:1;marker-end:url(#marker102)"
       d="m 53.119827,106.13136 0,-4.37749"
       id="path7"
       sodipodi:nodetypes="cc" />
    <path
       id="path8"
       style="fill:none;stroke:#000000;stroke-width:0.189;stroke-dasharray:none;marker-end:url(#marker102)"
       d="m 45.016953,108.11655 4.921601,0"
       sodipodi:nodetypes="cc" />
  </g>
</svg>
