<?xml version="1.0" encoding="UTF-8" standalone="no"?>
<!-- Generator: Adobe Illustrator 26.5.0, SVG Export Plug-In . SVG Version: 6.00 Build 0)  -->

<svg
   version="1.1"
   id="Layer_1"
   x="0px"
   y="0px"
   viewBox="0 0 671.09998 53.4"
   xml:space="preserve"
   sodipodi:docname="VENTREX_Logo.svg"
   width="671.09998"
   height="53.400002"
   inkscape:version="1.4.3 (0d15f75, 2025-12-25)"
   xmlns:inkscape="http://www.inkscape.org/namespaces/inkscape"
   xmlns:sodipodi="http://sodipodi.sourceforge.net/DTD/sodipodi-0.dtd"
   xmlns="http://www.w3.org/2000/svg"
   xmlns:svg="http://www.w3.org/2000/svg"><defs
   id="defs10" /><sodipodi:namedview
   id="namedview10"
   pagecolor="#ffffff"
   bordercolor="#000000"
   borderopacity="0.25"
   inkscape:showpageshadow="2"
   inkscape:pageopacity="0.0"
   inkscape:pagecheckerboard="0"
   inkscape:deskcolor="#d1d1d1"
   inkscape:window-width="1920"
   inkscape:window-height="1111"
   inkscape:window-x="-9"
   inkscape:window-y="-9"
   inkscape:window-maximized="1"
   inkscape:current-layer="Layer_1" />
<style
   type="text/css"
   id="style1">
	.st0{fill:#002F87;}
</style>
<g
   id="g10"
   transform="translate(-36,-48.8)">
	<g
   id="g7">
		<g
   id="g6">
			<g
   id="g5">
				<path
   class="st0"
   d="M 73.9,91.5 45.9,48.9 H 36 l 34.8,51.6 c 0.7,1 1.9,1.6 3.2,1.6 1.3,0 2.4,-0.6 3.2,-1.6 L 112,48.9 h -9.9 z"
   id="path1" />
				<g
   id="g2">
					<path
   class="st0"
   d="m 307.2,102.1 c -0.8,0 -1.5,-0.2 -2.2,-0.7 L 243.2,60.2 v 41.9 h -7.9 V 52.8 c 0,-1.5 0.8,-2.8 2.1,-3.5 1.3,-0.7 2.9,-0.6 4.1,0.2 l 61.8,41.2 V 48.8 h 7.9 v 49.3 c 0,1.5 -0.8,2.8 -2.1,3.5 -0.6,0.3 -1.3,0.5 -1.9,0.5 z"
   id="path2" />
				</g>
				<path
   class="st0"
   d="m 211.5,56.8 v -7.9 h -71.9 c -2.2,0 -4,1.8 -4,4 v 18.7 7.9 18.7 c 0,2.2 1.8,4 4,4 h 71.9 V 94.3 H 143.6 V 79.4 h 55.3 V 71.5 H 143.6 V 56.8 Z"
   id="path3" />
				<path
   class="st0"
   d="m 610.1,56.8 v -7.9 h -71.9 c -2.2,0 -4,1.8 -4,4 v 18.7 7.9 18.7 c 0,2.2 1.8,4 4,4 h 71.9 V 94.3 H 542.2 V 79.4 h 55.3 V 71.5 H 542.2 V 56.8 Z"
   id="path4" />
				<polygon
   class="st0"
   points="368.9,48.8 335,48.8 335,56.8 368.9,56.8 368.9,102.1 376.9,102.1 376.9,56.8 410.8,56.8 410.8,48.8 376.9,48.8 "
   id="polygon4" />
				<path
   class="st0"
   d="m 492.7,84.5 c 9.8,0 17.8,-8 17.8,-17.8 0,-9.8 -8,-17.8 -17.8,-17.8 h -54.1 c -2.2,0 -4,1.8 -4,4 v 49.3 h 7.9 V 84.5 h 37.3 l 19.2,17.6 h 11.5 L 491,84.5 Z M 442.5,56.8 h 50.1 c 5.4,0 9.9,4.4 9.9,9.9 0,5.4 -4.4,9.9 -9.9,9.9 h -50.1 z"
   id="path5" />
			</g>
		</g>
	</g>
	<g
   id="g9">
		<polygon
   class="st0"
   points="650.9,75.5 629.4,49 639.9,49 661.4,75.5 639.9,102.1 629.4,102.1 "
   id="polygon7" />
		<polygon
   class="st0"
   points="664.6,75.5 643.1,49 653.6,49 675.1,75.5 653.6,102.1 643.1,102.1 "
   id="polygon8" />
		<polygon
   class="st0"
   points="685.6,75.6 707.1,102.1 696.6,102.1 675.1,75.5 696.6,49 707.1,49 "
   id="polygon9" />
	</g>
</g>
</svg>
