<svg version="1.1" id="prefix__Layer_1" x="0" y="0" xml:space="preserve" width="742" height="100" xmlns="http://www.w3.org/2000/svg"><style type="text/css" id="style1">.prefix__st0{fill:#002f87}</style><g id="prefix__g10" transform="translate(0 -2.2)"><g id="prefix__g7"><g id="prefix__g6"><g id="prefix__g5"><path class="prefix__st0" d="M73.9 91.5l-28-42.6H36l34.8 51.6c.7 1 1.9 1.6 3.2 1.6 1.3 0 2.4-.6 3.2-1.6L112 48.9h-9.9z" id="prefix__path1"/><g id="prefix__g2"><path class="prefix__st0" d="M307.2 102.1c-.8 0-1.5-.2-2.2-.7l-61.8-41.2v41.9h-7.9V52.8c0-1.5.8-2.8 2.1-3.5 1.3-.7 2.9-.6 4.1.2l61.8 41.2V48.8h7.9v49.3c0 1.5-.8 2.8-2.1 3.5-.6.3-1.3.5-1.9.5z" id="prefix__path2"/></g><path class="prefix__st0" d="M211.5 56.8v-7.9h-71.9c-2.2 0-4 1.8-4 4v45.3c0 2.2 1.8 4 4 4h71.9v-7.9h-67.9V79.4h55.3v-7.9h-55.3V56.8z" id="prefix__path3"/><path class="prefix__st0" d="M610.1 56.8v-7.9h-71.9c-2.2 0-4 1.8-4 4v45.3c0 2.2 1.8 4 4 4h71.9v-7.9h-67.9V79.4h55.3v-7.9h-55.3V56.8z" id="prefix__path4"/><path class="prefix__st0" id="prefix__polygon4" d="M335 56.8h33.9v45.3h8V56.8h33.9v-8H335z"/><path class="prefix__st0" d="M492.7 84.5c9.8 0 17.8-8 17.8-17.8s-8-17.8-17.8-17.8h-54.1c-2.2 0-4 1.8-4 4v49.3h7.9V84.5h37.3l19.2 17.6h11.5L491 84.5zm-50.2-27.7h50.1c5.4 0 9.9 4.4 9.9 9.9 0 5.4-4.4 9.9-9.9 9.9h-50.1z" id="prefix__path5"/></g></g></g><g id="prefix__g9"><path class="prefix__st0" id="prefix__polygon7" d="M639.9 49l21.5 26.5-21.5 26.6h-10.5l21.5-26.6L629.4 49z"/><path class="prefix__st0" id="prefix__polygon8" d="M653.6 49l21.5 26.5-21.5 26.6h-10.5l21.5-26.6L643.1 49z"/><path class="prefix__st0" id="prefix__polygon9" d="M696.6 102.1l-21.5-26.6L696.6 49h10.5l-21.5 26.6 21.5 26.5z"/></g></g></svg>