<?xml version="1.0" encoding="UTF-8" standalone="no"?>
<svg width="1000" height="800" viewBox="0 0 1000 800" xmlns="http://www.w3.org/2000/svg">
  <!-- Title -->
  <text x="500" y="30" text-anchor="middle" font-family="Arial" font-size="24" font-weight="bold">Pressure Sensor Control Circuit - Breadboard Layout</text>

  <!-- Main Breadboard -->
  <rect x="100" y="80" width="800" height="500" fill="#E8E8E8" stroke="black" stroke-width="3" rx="15" ry="15"/>
  
  <!-- Power Rails (Top) -->
  <rect x="110" y="90" width="780" height="30" fill="#FF6B6B" fill-opacity="0.3" stroke="red" stroke-width="1"/>
  <text x="500" y="110" text-anchor="middle" font-family="Arial" font-size="14" font-weight="bold">+18V Power Rail</text>
  
  <!-- Ground Rails (Bottom) -->
  <rect x="110" y="540" width="780" height="30" fill="#4ECDC4" fill-opacity="0.3" stroke="blue" stroke-width="1"/>
  <text x="500" y="560" text-anchor="middle" font-family="Arial" font-size="14" font-weight="bold">Ground Rail</text>
  
  <!-- Main Terminal Area -->
  <rect x="110" y="130" width="780" height="400" fill="white" stroke="black" stroke-width="1"/>
  
  <!-- Center Divider -->
  <line x1="110" y1="330" x2="890" y2="330" stroke="black" stroke-width="2"/>
  
  <!-- Section Labels -->
  <text x="180" y="150" font-family="Arial" font-size="14" font-weight="bold" fill="navy">POWER SUPPLY</text>
  <text x="350" y="150" font-family="Arial" font-size="14" font-weight="bold" fill="navy">SENSOR & ADC</text>
  <text x="580" y="150" font-family="Arial" font-size="14" font-weight="bold" fill="navy">ARDUINO ESP32</text>
  <text x="750" y="150" font-family="Arial" font-size="14" font-weight="bold" fill="navy">MOSFET DRIVER</text>
  
  <text x="200" y="350" font-family="Arial" font-size="14" font-weight="bold" fill="navy">LEVEL SHIFTER</text>
  <text x="450" y="350" font-family="Arial" font-size="14" font-weight="bold" fill="navy">CONNECTIONS</text>
  
  <!-- Power Supply Components -->
  <g id="power_supply" transform="translate(150, 170)">
    <!-- 18V Input Terminal -->
    <rect x="0" y="0" width="40" height="20" fill="#333333" stroke="black" stroke-width="1"/>
    <text x="20" y="15" text-anchor="middle" font-family="Arial" font-size="10" fill="white">18V IN</text>
    
    <!-- Fuse -->
    <rect x="50" y="5" width="25" height="10" fill="yellow" stroke="black" stroke-width="1"/>
    <text x="62" y="13" text-anchor="middle" font-family="Arial" font-size="8">2A FUSE</text>
    
    <!-- LM1085IT-12 Regulator -->
    <rect x="85" y="0" width="35" height="25" fill="silver" stroke="black" stroke-width="1"/>
    <text x="102" y="18" text-anchor="middle" font-family="Arial" font-size="9">LM1085</text>
    <rect x="90" y="25" width="25" height="10" fill="gray" stroke="black" stroke-width="1"/>
    <text x="102" y="32" text-anchor="middle" font-family="Arial" font-size="7">HEATSINK</text>
    
    <!-- LM341T-5.0 Regulator -->
    <rect x="85" y="50" width="35" height="25" fill="silver" stroke="black" stroke-width="1"/>
    <text x="102" y="68" text-anchor="middle" font-family="Arial" font-size="9">LM341</text>
    
    <!-- Capacitors -->
    <circle cx="45" cy="40" r="8" fill="white" stroke="black" stroke-width="1"/>
    <text x="45" y="44" text-anchor="middle" font-family="Arial" font-size="8">C1</text>
    <text x="45" y="52" text-anchor="middle" font-family="Arial" font-size="7">10μF</text>
    
    <circle cx="65" cy="40" r="8" fill="white" stroke="black" stroke-width="1"/>
    <text x="65" y="44" text-anchor="middle" font-family="Arial" font-size="8">C3</text>
    <text x="65" y="52" text-anchor="middle" font-family="Arial" font-size="7">10μF</text>
    
    <rect x="130" y="35" width="15" height="8" fill="orange" stroke="black" stroke-width="1"/>
    <text x="137" y="41" text-anchor="middle" font-family="Arial" font-size="7">C2</text>
    
    <rect x="130" y="50" width="15" height="8" fill="orange" stroke="black" stroke-width="1"/>
    <text x="137" y="56" text-anchor="middle" font-family="Arial" font-size="7">C4</text>
    
    <!-- Power connections -->
    <path d="M20 0 L20 -80" stroke="red" stroke-width="3" fill="none"/>
    <path d="M102 25 L102 90 M102 90 L450 90" stroke="red" stroke-width="2" fill="none"/>
    <text x="275" y="85" font-family="Arial" font-size="10">12V to Arduino</text>
    
    <path d="M102 75 L102 110 M102 110 L200 110" stroke="red" stroke-width="2" fill="none"/>
    <text x="150" y="105" font-family="Arial" font-size="10">5V</text>
    
    <!-- Ground connections -->
    <path d="M45 48 L45 380" stroke="blue" stroke-width="2" fill="none"/>
    <path d="M65 48 L65 380" stroke="blue" stroke-width="2" fill="none"/>
  </g>
  
  <!-- Sensor and ADC Section -->
  <g id="sensor_adc" transform="translate(320, 170)">
    <!-- Pressure Sensor -->
    <rect x="0" y="0" width="50" height="30" fill="lightblue" stroke="black" stroke-width="1"/>
    <text x="25" y="20" text-anchor="middle" font-family="Arial" font-size="10">PRESSURE</text>
    <text x="25" y="35" text-anchor="middle" font-family="Arial" font-size="8">SENSOR</text>
    
    <!-- ADS1015 ADC Module -->
    <rect x="70" y="0" width="40" height="40" fill="green" stroke="black" stroke-width="1"/>
    <text x="90" y="25" text-anchor="middle" font-family="Arial" font-size="10" fill="white">ADS1015</text>
    
    <!-- Signal connection -->
    <path d="M25 30 L25 50 L70 50" stroke="orange" stroke-width="2" fill="none"/>
    <text x="47" y="47" text-anchor="middle" font-family="Arial" font-size="8">SIGNAL</text>
    
    <!-- Power connections -->
    <path d="M0 0 L0 -60 L-200 -60" stroke="red" stroke-width="2" fill="none"/>
    <path d="M70 0 L70 -40 L-200 -40" stroke="red" stroke-width="2" fill="none"/>
    <text x="-100" y="-45" font-family="Arial" font-size="9">5V</text>
    
    <!-- Ground connections -->
    <path d="M0 30 L0 380" stroke="blue" stroke-width="2" fill="none"/>
    <path d="M70 40 L70 380" stroke="blue" stroke-width="2" fill="none"/>
  </g>
  
  <!-- Arduino Nano ESP32 -->
  <g id="arduino" transform="translate(550, 170)">
    <rect x="0" y="0" width="120" height="80" fill="white" stroke="black" stroke-width="2"/>
    <text x="60" y="25" text-anchor="middle" font-family="Arial" font-size="14" font-weight="bold">Arduino</text>
    <text x="60" y="45" text-anchor="middle" font-family="Arial" font-size="14" font-weight="bold">Nano ESP32</text>
    
    <!-- Pin connections -->
    <circle cx="0" cy="15" r="3" fill="red"/>
    <text x="-8" y="19" text-anchor="end" font-family="Arial" font-size="9">3.3V</text>
    
    <circle cx="0" cy="35" r="3" fill="orange"/>
    <text x="-8" y="39" text-anchor="end" font-family="Arial" font-size="9">D7</text>
    
    <circle cx="0" cy="55" r="3" fill="#FFA500"/>
    <text x="-8" y="59" text-anchor="end" font-family="Arial" font-size="9">SDA</text>
    
    <circle cx="0" cy="75" r="3" fill="#FFA500"/>
    <text x="-8" y="79" text-anchor="end" font-family="Arial" font-size="9">SCL</text>
    
    <circle cx="120" cy="15" r="3" fill="red"/>
    <text x="128" y="19" font-family="Arial" font-size="9">VIN</text>
    
    <circle cx="120" cy="35" r="3" fill="blue"/>
    <text x="128" y="39" font-family="Arial" font-size="9">GND</text>
    
    <!-- Power connections -->
    <path d="M120 15 L150 15 L150 -80 L-400 -80" stroke="red" stroke-width="2" fill="none"/>
    <path d="M120 35 L150 35 L150 380" stroke="blue" stroke-width="2" fill="none"/>
    
    <!-- 3.3V to level shifter -->
    <path d="M0 15 L-30 15 L-30 190 L-350 190" stroke="red" stroke-width="1.5" fill="none"/>
    
    <!-- D7 to MOSFET -->
    <path d="M0 35 L-30 35 L-30 120 L170 120" stroke="orange" stroke-width="2" fill="none"/>
    <text x="70" y="115" text-anchor="middle" font-family="Arial" font-size="9">D7 PWM</text>
    
    <!-- I2C connections -->
    <path d="M0 55 L-20 55 L-20 180 L-350 180" stroke="#FFA500" stroke-width="1.5" stroke-dasharray="3,2" fill="none"/>
    <path d="M0 75 L-20 75 L-20 170 L-350 170" stroke="#FFA500" stroke-width="1.5" stroke-dasharray="3,2" fill="none"/>
  </g>
  
  <!-- MOSFET Driver Section -->
  <g id="mosfet_driver" transform="translate(720, 170)">
    <!-- Gate Resistor R4 -->
    <rect x="0" y="15" width="25" height="8" fill="brown" stroke="black" stroke-width="1"/>
    <text x="12" y="21" text-anchor="middle" font-family="Arial" font-size="7" fill="white">R4 470Ω</text>
    
    <!-- MOSFET -->
    <rect x="40" y="0" width="35" height="35" fill="silver" stroke="black" stroke-width="1"/>
    <text x="57" y="22" text-anchor="middle" font-family="Arial" font-size="10">IRLZ44N</text>
    <rect x="45" y="35" width="25" height="8" fill="gray" stroke="black" stroke-width="1"/>
    <text x="57" y="41" text-anchor="middle" font-family="Arial" font-size="7">HEATSINK</text>
    
    <!-- Pull-down Resistor R5 -->
    <rect x="35" y="50" width="8" height="20" fill="brown" stroke="black" stroke-width="1"/>
    <text x="39" y="63" text-anchor="middle" font-family="Arial" font-size="7" fill="white">R5</text>
    <text x="39" y="75" text-anchor="middle" font-family="Arial" font-size="6" fill="white">10kΩ</text>
    
    <!-- Flyback Diode D1 -->
    <rect x="80" y="25" width="25" height="8" fill="black" stroke="white" stroke-width="1"/>
    <text x="92" y="31" text-anchor="middle" font-family="Arial" font-size="8" fill="white">D1 1N4007</text>
    
    <!-- Bypass Capacitor C5 -->
    <rect x="10" y="50" width="10" height="8" fill="orange" stroke="black" stroke-width="1"/>
    <text x="15" y="56" text-anchor="middle" font-family="Arial" font-size="7">C5</text>
    <text x="15" y="64" text-anchor="middle" font-family="Arial" font-size="6">100nF</text>
    
    <!-- Load Terminal -->
    <rect x="110" y="0" width="25" height="25" fill="#333333" stroke="black" stroke-width="1"/>
    <text x="122" y="18" text-anchor="middle" font-family="Arial" font-size="9" fill="white">LOAD</text>
    
    <!-- Connections -->
    <!-- Gate connection from Arduino D7 -->
    <path d="M0 19 L-170 19" stroke="orange" stroke-width="2" fill="none"/>
    <path d="M25 19 L40 19" stroke="orange" stroke-width="1.5" fill="none"/>
    
    <!-- 18V power connection -->
    <path d="M75 0 L75 -80 L-620 -80" stroke="red" stroke-width="3" fill="none"/>
    <path d="M75 0 L110 0" stroke="red" stroke-width="3" fill="none"/>
    
    <!-- Ground connections -->
    <path d="M57 35 L57 380" stroke="blue" stroke-width="3" fill="none"/>
    <path d="M39 70 L39 380" stroke="blue" stroke-width="2" fill="none"/>
    <path d="M15 58 L15 380" stroke="blue" stroke-width="2" fill="none"/>
    <path d="M80 29 L80 380" stroke="blue" stroke-width="2" fill="none"/>
  </g>
  
  <!-- Level Shifter Section -->
  <g id="level_shifter" transform="translate(170, 370)">
    <!-- PCA9306 -->
    <rect x="0" y="0" width="40" height="35" fill="green" stroke="black" stroke-width="1"/>
    <text x="20" y="22" text-anchor="middle" font-family="Arial" font-size="10" fill="white">PCA9306</text>
    
    <!-- Pull-up Resistors -->
    <rect x="50" y="0" width="12" height="8" fill="brown" stroke="black" stroke-width="1"/>
    <text x="56" y="6" text-anchor="middle" font-family="Arial" font-size="7" fill="white">R1 4.7k</text>
    
    <rect x="50" y="15" width="12" height="8" fill="brown" stroke="black" stroke-width="1"/>
    <text x="56" y="21" text-anchor="middle" font-family="Arial" font-size="7" fill="white">R2 4.7k</text>
    
    <rect x="50" y="30" width="12" height="8" fill="brown" stroke="black" stroke-width="1"/>
    <text x="56" y="36" text-anchor="middle" font-family="Arial" font-size="7" fill="white">R3 4.7k</text>
    
    <!-- Power connections -->
    <path d="M0 5 L-20 5" stroke="red" stroke-width="1.5" fill="none"/>
    <text x="-25" y="9" text-anchor="end" font-family="Arial" font-size="8">3.3V</text>
    
    <path d="M0 20 L-30 20 L-30 -210 L150 -210" stroke="red" stroke-width="1.5" fill="none"/>
    <text x="60" y="-215" font-family="Arial" font-size="8">5V</text>
    
    <!-- I2C connections to Arduino -->
    <path d="M40 10 L80 10 L80 -190 L380 -190" stroke="#FFA500" stroke-width="1.5" stroke-dasharray="3,2" fill="none"/>
    <path d="M40 25 L90 25 L90 -200 L380 -200" stroke="#FFA500" stroke-width="1.5" stroke-dasharray="3,2" fill="none"/>
    
    <!-- I2C connections to ADC -->
    <path d="M40 10 L100 10 L100 -230 L240 -230" stroke="#FFA500" stroke-width="1.5" stroke-dasharray="3,2" fill="none"/>
    <path d="M40 25 L110 25 L110 -240 L240 -240" stroke="#FFA500" stroke-width="1.5" stroke-dasharray="3,2" fill="none"/>
    <text x="170" y="-235" font-family="Arial" font-size="8">I2C Bus</text>
    
    <!-- Ground connection -->
    <path d="M0 35 L0 180" stroke="blue" stroke-width="2" fill="none"/>
  </g>
  
  <!-- Star Ground Point -->
  <circle cx="250" cy="550" r="12" fill="blue" stroke="black" stroke-width="3"/>
  <text x="250" y="556" text-anchor="middle" font-family="Arial" font-size="10" fill="white" font-weight="bold">★</text>
  <text x="250" y="575" text-anchor="middle" font-family="Arial" font-size="10" font-weight="bold">STAR GROUND</text>
  
  <!-- Ground connections to star point -->
  <path d="M250 550 L195 550" stroke="blue" stroke-width="3" fill="none"/>
  <path d="M250 550 L215 550" stroke="blue" stroke-width="3" fill="none"/>
  <path d="M250 550 L320 550" stroke="blue" stroke-width="3" fill="none"/>
  <path d="M250 550 L390 550" stroke="blue" stroke-width="3" fill="none"/>
  <path d="M250 550 L700 550" stroke="blue" stroke-width="3" fill="none"/>
  <path d="M250 550 L720 550" stroke="blue" stroke-width="3" fill="none"/>
  <path d="M250 550 L735 550" stroke="blue" stroke-width="3" fill="none"/>
  <path d="M250 550 L755 550" stroke="blue" stroke-width="3" fill="none"/>
  <path d="M250 550 L170 550" stroke="blue" stroke-width="3" fill="none"/>
  
  <!-- Legend -->
  <g transform="translate(100, 620)">
    <text x="0" y="0" font-family="Arial" font-size="16" font-weight="bold">Wiring Legend:</text>
    
    <line x1="0" y1="25" x2="30" y2="25" stroke="red" stroke-width="3"/>
    <text x="40" y="30" font-family="Arial" font-size="12">Power Lines (18V, 12V, 5V, 3.3V)</text>
    
    <line x1="250" y1="25" x2="280" y2="25" stroke="blue" stroke-width="3"/>
    <text x="290" y="30" font-family="Arial" font-size="12">Ground Connections</text>
    
    <line x1="450" y1="25" x2="480" y2="25" stroke="orange" stroke-width="2"/>
    <text x="490" y="30" font-family="Arial" font-size="12">PWM/Signal Lines</text>
    
    <line x1="650" y1="25" x2="680" y2="25" stroke="#FFA500" stroke-width="1.5" stroke-dasharray="3,2"/>
    <text x="690" y="30" font-family="Arial" font-size="12">I²C Bus</text>
  </g>
  
  <!-- Assembly Notes -->
  <g transform="translate(100, 680)">
    <text x="0" y="0" font-family="Arial" font-size="16" font-weight="bold">Assembly Notes:</text>
    
    <text x="0" y="25" font-family="Arial" font-size="11">• Keep D7 to MOSFET gate wire as SHORT as possible to prevent oscillation</text>
    <text x="0" y="45" font-family="Arial" font-size="11">• Place flyback diode D1 physically close to the inductive load</text>
    <text x="0" y="65" font-family="Arial" font-size="11">• Connect all grounds to the single star point to minimize ground loops</text>
    <text x="0" y="85" font-family="Arial" font-size="11">• Use heavy gauge wire (18-20 AWG) for 18V power and load connections</text>
    
    <text x="500" y="25" font-family="Arial" font-size="11">• Mount voltage regulators on heatsinks if drawing significant current</text>
    <text x="500" y="45" font-family="Arial" font-size="11">• Keep analog sensor wiring away from switching components</text>
    <text x="500" y="65" font-family="Arial" font-size="11">• Use twisted pair or shielded cable for I²C connections</text>
    <text x="500" y="85" font-family="Arial" font-size="11">• Add external fusing appropriate for your load current rating</text>
  </g>
</svg>
