<?xml version="1.0" encoding="UTF-8" standalone="no"?>
<svg width="1100" height="750" viewBox="0 0 1100 750" xmlns="http://www.w3.org/2000/svg">
  <!-- Title -->
  <text x="550" y="30" text-anchor="middle" font-family="Arial" font-size="24" font-weight="bold">
    Alternative Breadboard Layout: Pressure Control Circuit
  </text>

  <!-- Breadboard Base -->
  <rect x="50" y="80" width="1000" height="450" rx="20" ry="20" fill="#F0F0F0" stroke="#A0A0A0" stroke-width="3"/>

  <!-- Power Rails -->
  <rect x="60" y="90" width="980" height="25" fill="#FFDDC1" stroke="#FF8C00" stroke-width="1.5"/> <!-- +18V (Orange for high voltage) -->
  <text x="70" y="108" font-family="Arial" font-size="12" fill="#FF8C00" font-weight="bold">+18V</text>
  <rect x="60" y="120" width="980" height="25" fill="#FFCCCB" stroke="#FF0000" stroke-width="1.5"/> <!-- +5V (Red) -->
  <text x="70" y="138" font-family="Arial" font-size="12" fill="#FF0000" font-weight="bold">+5V</text>
  
  <rect x="60" y="470" width="980" height="25" fill="#ADD8E6" stroke="#0000FF" stroke-width="1.5"/> <!-- GND (Blue) -->
  <text x="70" y="488" font-family="Arial" font-size="12" fill="#0000FF" font-weight="bold">GND</text>
  <rect x="60" y="500" width="980" height="25" fill="#LIGHTGREEN" stroke="DARKGREEN" stroke-width="1.5"/> <!-- +3.3V (Green) -->
  <text x="70" y="518" font-family="Arial" font-size="12" fill="DARKGREEN" font-weight="bold">+3.3V</text>


  <!-- Main Terminal Area -->
  <rect x="60" y="150" width="980" height="315" fill="white" stroke="#CCCCCC" stroke-width="1"/>
  <line x1="60" y1="307.5" x2="1040" y2="307.5" stroke="#CCCCCC" stroke-width="2"/> <!-- Center Gutter -->

  <!-- Section Labels -->
  <text x="120" y="170" font-family="Arial" font-size="14" font-weight="bold">Power Supply</text>
  <text x="350" y="170" font-family="Arial" font-size="14" font-weight="bold">Sensor &amp; ADC</text>
  <text x="550" y="170" font-family="Arial" font-size="14" font-weight="bold">Level Shifter</text>
  <text x="720" y="170" font-family="Arial" font-size="14" font-weight="bold">Arduino Nano ESP32</text>
  <text x="900" y="170" font-family="Arial" font-size="14" font-weight="bold">MOSFET Driver</text>

  <!-- Components -->
  <!-- Power Supply -->
  <g transform="translate(80, 190)">
    <rect x="0" y="0" width="40" height="20" fill="#505050" stroke="black"/> <!-- 18V IN -->
    <text x="20" y="14" fill="white" font-size="10" text-anchor="middle">18V IN</text>
    <rect x="50" y="5" width="20" height="10" fill="#FFFF00" stroke="black"/> <!-- Fuse -->
    <text x="60" y="13" font-size="8" text-anchor="middle">F1</text>
    <rect x="80" y="0" width="30" height="40" fill="#C0C0C0" stroke="black"/> <!-- LM1085 -->
    <text x="95" y="15" font-size="8" text-anchor="middle">LM1085</text>
    <text x="95" y="25" font-size="7" text-anchor="middle">(12V)</text>
    <rect x="120" y="0" width="30" height="40" fill="#C0C0C0" stroke="black"/> <!-- LM341 -->
    <text x="135" y="15" font-size="8" text-anchor="middle">LM341</text>
    <text x="135" y="25" font-size="7" text-anchor="middle">(5V)</text>
    <circle cx="70" cy="50" r="7" fill="#E0E0E0" stroke="black"/> <text x="70" y="53" font-size="7" text-anchor="middle">C1</text>
    <rect x="100" cy="50" width="10" height="5" fill="#FFE0B2" stroke="black"/> <text x="105" y="54" font-size="6" text-anchor="middle">C2</text>
    <circle cx="70" cy="70" r="7" fill="#E0E0E0" stroke="black"/> <text x="70" y="73" font-size="7" text-anchor="middle">C3</text>
    <rect x="100" cy="70" width="10" height="5" fill="#FFE0B2" stroke="black"/> <text x="105" y="74" font-size="6" text-anchor="middle">C4</text>
  </g>

  <!-- Sensor & ADC -->
  <g transform="translate(320, 190)">
    <rect x="0" y="0" width="40" height="25" fill="#B3E5FC" stroke="black"/> <!-- Sensor -->
    <text x="20" y="16" font-size="10" text-anchor="middle">Sensor</text>
    <rect x="50" y="0" width="35" height="35" fill="#A5D6A7" stroke="black"/> <!-- ADS1015 -->
    <text x="67" y="18" font-size="9" text-anchor="middle">ADS1015</text>
  </g>

  <!-- Level Shifter -->
  <g transform="translate(520, 190)">
    <rect x="0" y="0" width="35" height="35" fill="#A5D6A7" stroke="black"/> <!-- PCA9306 -->
    <text x="17" y="18" font-size="9" text-anchor="middle">PCA9306</text>
    <rect x="45" y="0" width="8" height="8" fill="#D2B48C" stroke="black"/> <text x="49" y="6" font-size="6" text-anchor="middle">R1</text>
    <rect x="45" y="12" width="8" height="8" fill="#D2B48C" stroke="black"/> <text x="49" y="18" font-size="6" text-anchor="middle">R2</text>
    <rect x="45" y="24" width="8" height="8" fill="#D2B48C" stroke="black"/> <text x="49" y="30" font-size="6" text-anchor="middle">R3</text>
  </g>

  <!-- Arduino Nano ESP32 -->
  <g transform="translate(700, 190)">
    <rect x="0" y="0" width="80" height="40" fill="white" stroke="black" stroke-width="1.5"/>
    <text x="40" y="20" font-size="10" text-anchor="middle" font-weight="bold">Arduino Nano</text>
    <text x="40" y="32" font-size="9" text-anchor="middle">ESP32</text>
    <!-- Pins (simplified representation) -->
    <text x="-5" y="8" font-size="8" text-anchor="end">3V3</text>
    <text x="-5" y="18" font-size="8" text-anchor="end">D7</text>
    <text x="-5" y="28" font-size="8" text-anchor="end">SDA</text>
    <text x="-5" y="38" font-size="8" text-anchor="end">SCL</text>
    <text x="85" y="8" font-size="8" text-anchor="start">VIN</text>
    <text x="85" y="18" font-size="8" text-anchor="start">GND</text>
  </g>

  <!-- MOSFET Driver -->
  <g transform="translate(880, 190)">
    <rect x="20" y="0" width="30" height="40" fill="#C0C0C0" stroke="black"/> <!-- IRLZ44N -->
    <text x="35" y="15" font-size="8" text-anchor="middle">IRLZ44N</text>
    <rect x="0" y="5" width="10" height="8" fill="#D2B48C" stroke="black"/> <text x="5" y="11" font-size="6" text-anchor="middle">R4</text>
    <rect x="0" y="20" width="10" height="8" fill="#D2B48C" stroke="black"/> <text x="5" y="26" font-size="6" text-anchor="middle">R5</text>
    <rect x="60" y="5" width="15" height="8" fill="#303030" stroke="white"/> <text x="67" y="11" font-size="6" fill="white" text-anchor="middle">D1</text>
    <rect x="60" y="20" width="10" height="5" fill="#FFE0B2" stroke="black"/> <text x="65" y="24" font-size="6" text-anchor="middle">C5</text>
    <rect x="80" y="0" width="40" height="20" fill="#505050" stroke="black"/> <!-- LOAD -->
    <text x="100" y="14" fill="white" font-size="10" text-anchor="middle">LOAD</text>
  </g>

  <!-- Wires -->
  <!-- Power Wires (Thicker for main power) -->
  <line x1="100" y1="190" x2="100" y2="102.5" stroke="#FF8C00" stroke-width="3"/> <!-- 18V IN to Rail -->
  <line x1="160" y1="195" x2="160" y2="102.5" stroke="#FF8C00" stroke-width="3"/> <!-- Fuse to 18V Rail -->
  <line x1="200" y1="190" x2="200" y2="102.5" stroke="#FF8C00" stroke-width="3"/> <!-- LM1085 IN to 18V Rail -->
  <line x1="980" y1="102.5" x2="980" y2="190" stroke="#FF8C00" stroke-width="3"/> <!-- 18V Rail to MOSFET area -->
  <line x1="980" y1="190" x2="940" y2="190" stroke="#FF8C00" stroke-width="3"/> <!-- MOSFET Drain to 18V -->
  <line x1="980" y1="190" x2="1000" y2="190" stroke="#FF8C00" stroke-width="3"/> <!-- Load to 18V -->


  <line x1="200" y1="210" x2="200" y2="132.5" stroke="#FF0000" stroke-width="2"/> <!-- LM341 IN from 12V (LM1085 OUT) -->
  <line x1="200" y1="210" x2="780" y2="210" stroke="#FF0000" stroke-width="2"/> <!-- 12V to Arduino VIN -->
  <line x1="780" y1="210" x2="780" y2="194" stroke="#FF0000" stroke-width="2"/>

  <line x1="240" y1="210" x2="240" y2="132.5" stroke="#FF0000" stroke-width="2"/> <!-- LM341 OUT (5V) to Rail -->
  <line x1="340" y1="132.5" x2="340" y2="190" stroke="#FF0000" stroke-width="2"/> <!-- 5V Rail to Sensor VCC -->
  <line x1="372" y1="132.5" x2="372" y2="190" stroke="#FF0000" stroke-width="2"/> <!-- 5V Rail to ADS1015 VDD -->
  <line x1="537" y1="132.5" x2="537" y2="200" stroke="#FF0000" stroke-width="2"/> <!-- 5V Rail to PCA9306 VREF2 -->

  <line x1="700" y1="194" x2="700" y2="512.5" stroke="DARKGREEN" stroke-width="2"/> <!-- Arduino 3.3V to Rail -->
  <line x1="537" y1="512.5" x2="537" y2="195" stroke="DARKGREEN" stroke-width="2"/> <!-- 3.3V Rail to PCA9306 VREF1 -->

  <!-- Ground Wires -->
  <line x1="100" y1="230" x2="100" y2="482.5" stroke="#0000FF" stroke-width="2"/> <!-- Power Supply GND -->
  <line x1="140" y1="230" x2="140" y2="482.5" stroke="#0000FF" stroke-width="2"/>
  <line x1="340" y1="215" x2="340" y2="482.5" stroke="#0000FF" stroke-width="2"/> <!-- Sensor GND -->
  <line x1="372" y1="225" x2="372" y2="482.5" stroke="#0000FF" stroke-width="2"/> <!-- ADS1015 GND -->
  <line x1="537" y1="225" x2="537" y2="482.5" stroke="#0000FF" stroke-width="2"/> <!-- PCA9306 GND -->
  <line x1="780" y1="208" x2="780" y2="482.5" stroke="#0000FF" stroke-width="2"/> <!-- Arduino GND -->
  <line x1="900" y1="230" x2="900" y2="482.5" stroke="#0000FF" stroke-width="3"/> <!-- MOSFET Source GND (thicker) -->
  <line x1="885" y1="210" x2="885" y2="482.5" stroke="#0000FF" stroke-width="2"/> <!-- R5 to GND -->
  <line x1="940" y1="210" x2="940" y2="482.5" stroke="#0000FF" stroke-width="2"/> <!-- C5 to GND -->
  
  <!-- Star ground point on the GND rail -->
  <circle cx="550" cy="482.5" r="8" fill="#0000FF" stroke="white" stroke-width="2"/>
  <text x="550" y="475" font-size="10" fill="white" text-anchor="middle" font-weight="bold">★GND</text>


  <!-- Signal Wires -->
  <line x1="360" y1="190" x2="372" y2="200" stroke="#FFA500" stroke-width="1.5"/> <!-- Sensor Out to ADS A0 -->

  <!-- I2C Wires (dashed yellow) -->
  <line x1="387" y1="200" x2="520" y2="200" stroke="#FFD700" stroke-width="1.5" stroke-dasharray="4,2"/> <!-- ADS SCL to PCA SCL2 -->
  <line x1="387" y1="205" x2="520" y2="205" stroke="#FFD700" stroke-width="1.5" stroke-dasharray="4,2"/> <!-- ADS SDA to PCA SDA2 -->

  <line x1="555" y1="200" x2="700" y2="228" stroke="#FFD700" stroke-width="1.5" stroke-dasharray="4,2"/> <!-- PCA SCL1 to Arduino SCL -->
  <line x1="555" y1="205" x2="700" y2="218" stroke="#FFD700" stroke-width="1.5" stroke-dasharray="4,2"/> <!-- PCA SDA1 to Arduino SDA -->

  <!-- PWM Signal -->
  <line x1="700" y1="208" x2="880" y2="195" stroke="#FFA500" stroke-width="1.5"/> <!-- Arduino D7 to R4 -->
  <line x1="890" y1="195" x2="900" y2="190" stroke="#FFA500" stroke-width="1.5"/> <!-- R4 to MOSFET Gate -->

  <!-- MOSFET R5 to Gate -->
  <line x1="885" y1="210" x2="900" y2="190" stroke="#FFA500" stroke-width="1.5"/>

  <!-- Flyback Diode -->
  <line x1="940" y1="190" x2="975" y2="195" stroke="#303030" stroke-width="1.5"/> <!-- D1 Anode to MOSFET Drain -->
  <line x1="975" y1="195" x2="975" y2="102.5" stroke="#303030" stroke-width="1.5"/> <!-- D1 Cathode to 18V Rail -->
  
  <!-- Legend -->
  <g transform="translate(80, 550)">
    <text x="0" y="20" font-family="Arial" font-size="14" font-weight="bold">Legend:</text>
    <rect x="0" y="30" width="15" height="15" fill="#FF8C00"/> <text x="20" y="42" font-size="12">+18V Power</text>
    <rect x="0" y="50" width="15" height="15" fill="#FF0000"/> <text x="20" y="62" font-size="12">+5V Power</text>
    <rect x="0" y="70" width="15" height="15" fill="DARKGREEN"/> <text x="20" y="82" font-size="12">+3.3V Power</text>
    <rect x="150" y="30" width="15" height="15" fill="#0000FF"/> <text x="170" y="42" font-size="12">Ground (GND)</text>
    <rect x="150" y="50" width="15" height="15" fill="#FFA500"/> <text x="170" y="62" font-size="12">Signal (PWM, Analog)</text>
    <rect x="150" y="70" width="15" height="15" fill="#FFD700" stroke-dasharray="4,2" stroke="black"/> <text x="170" y="82" font-size="12">I2C Bus (SDA/SCL)</text>
  </g>

  <!-- Notes -->
  <g transform="translate(400, 550)">
    <text x="0" y="20" font-family="Arial" font-size="14" font-weight="bold">Assembly Notes:</text>
    <text x="0" y="40" font-size="11">• Keep D7 to MOSFET Gate wire (via R4) as short as possible.</text>
    <text x="0" y="55" font-size="11">• Place Flyback Diode (D1) close to the LOAD terminals.</text>
    <text x="0" y="70" font-size="11">• Connect all GNDs to a single star point on the GND rail.</text>
    <text x="0" y="85" font-size="11">• Use thicker wires for 18V power and LOAD connections.</text>
    <text x="0" y="100" font-size="11">• Ensure regulators (LM1085, LM341) and MOSFET (IRLZ44N) have adequate heatsinking if needed.</text>
  </g>
</svg>
