<?xml version="1.0" encoding="utf-8"?>
<!-- Generator: Adobe Illustrator 26.5.0, SVG Export Plug-In . SVG Version: 6.00 Build 0)  -->
<svg version="1.1" id="Layer_1" xmlns="http://www.w3.org/2000/svg" xmlns:xlink="http://www.w3.org/1999/xlink" x="0px" y="0px"
	 viewBox="0 0 742 142.3" style="enable-background:new 0 0 742 142.3;" xml:space="preserve">
<style type="text/css">
	.st0{fill:#002F87;}
</style>
<g>
	<g>
		<g>
			<g>
				<path class="st0" d="M73.9,91.5l-28-42.6H36l34.8,51.6c0.7,1,1.9,1.6,3.2,1.6s2.4-0.6,3.2-1.6l34.8-51.6h-9.9L73.9,91.5z"/>
				<g>
					<path class="st0" d="M307.2,102.1c-0.8,0-1.5-0.2-2.2-0.7l-61.8-41.2v41.9h-7.9V52.8c0-1.5,0.8-2.8,2.1-3.5
						c1.3-0.7,2.9-0.6,4.1,0.2l61.8,41.2V48.8h7.9v49.3c0,1.5-0.8,2.8-2.1,3.5C308.5,101.9,307.8,102.1,307.2,102.1z"/>
				</g>
				<path class="st0" d="M211.5,56.8v-7.9h-71.9c-2.2,0-4,1.8-4,4v18.7v7.9v18.7c0,2.2,1.8,4,4,4h71.9v-7.9h-67.9V79.4h55.3v-7.9
					h-55.3V56.8H211.5z"/>
				<path class="st0" d="M610.1,56.8v-7.9h-71.9c-2.2,0-4,1.8-4,4v18.7v7.9v18.7c0,2.2,1.8,4,4,4h71.9v-7.9h-67.9V79.4h55.3v-7.9
					h-55.3V56.8H610.1z"/>
				<polygon class="st0" points="410.8,48.8 376.9,48.8 368.9,48.8 335,48.8 335,56.8 368.9,56.8 368.9,102.1 376.9,102.1 
					376.9,56.8 410.8,56.8 				"/>
				<path class="st0" d="M492.7,84.5c9.8,0,17.8-8,17.8-17.8s-8-17.8-17.8-17.8h-54.1c-2.2,0-4,1.8-4,4v49.3h7.9V84.5h37.3
					l19.2,17.6h11.5L491,84.5H492.7z M442.5,56.8h50.1c5.4,0,9.9,4.4,9.9,9.9c0,5.4-4.4,9.9-9.9,9.9h-50.1V56.8z"/>
			</g>
		</g>
	</g>
	<g>
		<polygon class="st0" points="639.9,102.1 629.4,102.1 650.9,75.5 629.4,49 639.9,49 661.4,75.5 		"/>
		<polygon class="st0" points="653.6,102.1 643.1,102.1 664.6,75.5 643.1,49 653.6,49 675.1,75.5 		"/>
		<polygon class="st0" points="696.6,49 707.1,49 685.6,75.6 707.1,102.1 696.6,102.1 675.1,75.5 		"/>
	</g>
</g>
</svg>
