<?xml version="1.0" encoding="UTF-8" standalone="no"?>
<svg width="800" height="600" viewBox="0 0 800 600" xmlns="http://www.w3.org/2000/svg">
  <!-- Title -->
  <text x="400" y="30" text-anchor="middle" font-family="Arial" font-size="20" font-weight="bold">PCB Layout - Pressure Sensor and Solenoid Control</text>
  <text x="400" y="50" text-anchor="middle" font-family="Arial" font-size="12">(2-layer design with component placement)</text>

  <!-- PCB Outline -->
  <rect x="50" y="70" width="700" height="450" fill="#076324" stroke="black" stroke-width="2" rx="10" ry="10"/>
  
  <!-- Ground Planes Representation -->
  <rect x="60" y="80" width="330" height="430" fill="#0d7c31" stroke="none" opacity="0.5"/>
  <text x="225" y="100" text-anchor="middle" font-family="Arial" font-size="12" fill="white">Signal Ground Plane</text>
  
  <rect x="410" y="80" width="330" height="430" fill="#0d7c31" stroke="none" opacity="0.5"/>
  <text x="575" y="100" text-anchor="middle" font-family="Arial" font-size="12" fill="white">Power Ground Plane</text>
  
  <!-- Mounting Holes -->
  <circle cx="80" cy="100" r="5" fill="none" stroke="black" stroke-width="1"/>
  <circle cx="720" cy="100" r="5" fill="none" stroke="black" stroke-width="1"/>
  <circle cx="80" cy="490" r="5" fill="none" stroke="black" stroke-width="1"/>
  <circle cx="720" cy="490" r="5" fill="none" stroke="black" stroke-width="1"/>
  
  <!-- Power Supply Section -->
  <g transform="translate(500, 150)">
    <rect x="0" y="0" width="200" height="150" fill="none" stroke="black" stroke-width="1" stroke-dasharray="5,3"/>
    <text x="100" y="-10" text-anchor="middle" font-family="Arial" font-size="14">Power Supply Section</text>
    
    <!-- 18V Input Connector -->
    <rect x="10" y="20" width="30" height="20" fill="white" stroke="black" stroke-width="1"/>
    <text x="25" y="33" text-anchor="middle" font-family="Arial" font-size="8">18V IN</text>
    
    <!-- Fuse -->
    <rect x="60" y="20" width="30" height="15" fill="white" stroke="black" stroke-width="1"/>
    <text x="75" y="30" text-anchor="middle" font-family="Arial" font-size="8">FUSE</text>
    
    <!-- C1 -->
    <circle cx="110" cy="30" r="10" fill="white" stroke="black" stroke-width="1"/>
    <text x="110" y="33" text-anchor="middle" font-family="Arial" font-size="8">C1</text>
    
    <!-- LM1085IT-12 -->
    <rect x="140" y="15" width="50" height="30" fill="white" stroke="black" stroke-width="1"/>
    <text x="165" y="33" text-anchor="middle" font-family="Arial" font-size="8">LM1085</text>
    <rect x="150" y="45" width="30" height="15" fill="gray" stroke="black" stroke-width="1"/>
    <text x="165" y="55" text-anchor="middle" font-family="Arial" font-size="8">HEATSINK</text>
    
    <!-- C3 -->
    <circle cx="110" cy="80" r="10" fill="white" stroke="black" stroke-width="1"/>
    <text x="110" y="83" text-anchor="middle" font-family="Arial" font-size="8">C3</text>
    
    <!-- LM341T-5.0 -->
    <rect x="140" y="65" width="50" height="30" fill="white" stroke="black" stroke-width="1"/>
    <text x="165" y="83" text-anchor="middle" font-family="Arial" font-size="8">LM341</text>
    
    <!-- C2, C4 -->
    <rect x="60" y="65" width="15" height="10" fill="white" stroke="black" stroke-width="1"/>
    <text x="67" y="72" text-anchor="middle" font-family="Arial" font-size="6">C2</text>
    
    <rect x="60" y="85" width="15" height="10" fill="white" stroke="black" stroke-width="1"/>
    <text x="67" y="92" text-anchor="middle" font-family="Arial" font-size="6">C4</text>
    
    <!-- Power trace representation -->
    <path d="M40 25 H60 M90 25 H140 M190 25 H210" stroke="red" stroke-width="5" fill="none"/>
    <path d="M40 80 H60 M75 80 H140 M190 80 H210" stroke="red" stroke-width="3" fill="none"/>
    <path d="M110 40 V65" stroke="red" stroke-width="2" fill="none"/>
    <text x="210" y="28" font-family="Arial" font-size="8">12V</text>
    <text x="210" y="83" font-family="Arial" font-size="8">5V</text>
  </g>
  
  <!-- MOSFET Driver Section (careful layout according to PCB guidelines) -->
  <g transform="translate(500, 350)">
    <rect x="0" y="0" width="200" height="130" fill="none" stroke="black" stroke-width="1" stroke-dasharray="5,3"/>
    <text x="100" y="-10" text-anchor="middle" font-family="Arial" font-size="14">MOSFET Driver Section</text>
    
    <!-- MOSFET with Heatsink -->
    <rect x="100" y="20" width="50" height="30" fill="white" stroke="black" stroke-width="1"/>
    <text x="125" y="38" text-anchor="middle" font-family="Arial" font-size="10">IRLZ44N</text>
    <rect x="110" y="50" width="30" height="15" fill="gray" stroke="black" stroke-width="1"/>
    <text x="125" y="60" text-anchor="middle" font-family="Arial" font-size="8">HEATSINK</text>
    
    <!-- Short Gate Trace (Important!) -->
    <line x1="50" y1="35" x2="100" y2="35" stroke="#FFA500" stroke-width="2"/>
    <text x="75" y="30" text-anchor="middle" font-family="Arial" font-size="8" fill="black">SHORT GATE TRACE</text>
    
    <!-- R4 Gate Resistor -->
    <rect x="60" y="25" width="20" height="10" fill="white" stroke="black" stroke-width="1"/>
    <text x="70" y="32" text-anchor="middle" font-family="Arial" font-size="8">R4</text>
    
    <!-- R5 Pull-down -->
    <rect x="100" y="65" width="10" height="20" fill="white" stroke="black" stroke-width="1"/>
    <text x="105" y="77" text-anchor="middle" font-family="Arial" font-size="8">R5</text>
    
    <!-- D1 Flyback Diode -->
    <rect x="125" y="80" width="30" height="10" fill="white" stroke="black" stroke-width="1"/>
    <text x="140" y="87" text-anchor="middle" font-family="Arial" font-size="8">D1</text>
    
    <!-- C5 Capacitor -->
    <rect x="70" y="80" width="15" height="10" fill="white" stroke="black" stroke-width="1"/>
    <text x="78" y="87" text-anchor="middle" font-family="Arial" font-size="8">C5</text>
    
    <!-- Load Connector -->
    <rect x="160" y="20" width="20" height="30" fill="white" stroke="black" stroke-width="1"/>
    <text x="170" y="40" text-anchor="middle" font-family="Arial" font-size="8">LOAD</text>
    
    <!-- Wide Drain Trace (Important!) -->
    <line x1="150" y1="35" x2="160" y2="35" stroke="red" stroke-width="5"/>
    <text x="155" y="30" text-anchor="middle" font-family="Arial" font-size="8" fill="black">WIDE TRACE</text>
    
    <!-- Wide Source Trace to GND (Important!) -->
    <line x1="125" y1="70" x2="125" y2="100" stroke="#0000FF" stroke-width="5"/>
    <text x="140" y="100" text-anchor="middle" font-family="Arial" font-size="8" fill="white">WIDE GND</text>
    
    <!-- Arduino Signal -->
    <line x1="20" y1="35" x2="50" y2="35" stroke="#FFA500" stroke-width="1"/>
    <text x="20" y="30" text-anchor="start" font-family="Arial" font-size="8">FROM D7</text>
  </g>
  
  <!-- Sensor & ADC Section -->
  <g transform="translate(100, 150)">
    <rect x="0" y="0" width="250" height="180" fill="none" stroke="black" stroke-width="1" stroke-dasharray="5,3"/>
    <text x="125" y="-10" text-anchor="middle" font-family="Arial" font-size="14">Sensor &amp; ADC Section</text>
    
    <!-- Pressure Sensor -->
    <rect x="20" y="30" width="60" height="40" fill="white" stroke="black" stroke-width="1"/>
    <text x="50" y="55" text-anchor="middle" font-family="Arial" font-size="10">Pressure</text>
    <text x="50" y="65" text-anchor="middle" font-family="Arial" font-size="10">Sensor</text>
    
    <!-- ADS1015 ADC -->
    <rect x="130" y="40" width="40" height="40" fill="white" stroke="black" stroke-width="1"/>
    <text x="150" y="65" text-anchor="middle" font-family="Arial" font-size="10">ADS1015</text>
    
    <!-- PCA9306 Level Shifter -->
    <rect x="180" y="45" width="35" height="30" fill="white" stroke="black" stroke-width="1"/>
    <text x="197" y="65" text-anchor="middle" font-family="Arial" font-size="8">PCA9306</text>
    
    <!-- Pull-up resistors -->
    <rect x="190" y="90" width="15" height="10" fill="white" stroke="black" stroke-width="1"/>
    <text x="197" y="97" text-anchor="middle" font-family="Arial" font-size="6">R1</text>
    
    <rect x="190" y="105" width="15" height="10" fill="white" stroke="black" stroke-width="1"/>
    <text x="197" y="112" text-anchor="middle" font-family="Arial" font-size="6">R2</text>
    
    <rect x="190" y="120" width="15" height="10" fill="white" stroke="black" stroke-width="1"/>
    <text x="197" y="127" text-anchor="middle" font-family="Arial" font-size="6">R3</text>
    
    <!-- Signal traces -->
    <line x1="80" y1="50" x2="130" y2="50" stroke="#FFA500" stroke-width="1"/>
    <text x="105" y="45" text-anchor="middle" font-family="Arial" font-size="8">SENSOR SIGNAL</text>
    
    <!-- I2C traces -->
    <path d="M170 60 H180 M215 60 H240" stroke="#FFA500" stroke-width="1" stroke-dasharray="2,1"/>
    <text x="240" y="60" font-family="Arial" font-size="8">TO ARDUINO</text>
    
    <!-- Power traces -->
    <line x1="20" y1="30" x2="20" y2="15" stroke="red" stroke-width="2"/>
    <text x="25" y="15" font-family="Arial" font-size="8">5V</text>
    
    <line x1="130" y1="40" x2="130" y2="15" stroke="red" stroke-width="2"/>
    
    <line x1="215" y1="45" x2="215" y2="15" stroke="red" stroke-width="2"/>
    <text x="220" y="15" font-family="Arial" font-size="8">3.3V</text>
  </g>
  
  <!-- Arduino Nano ESP32 -->
  <g transform="translate(100, 350)">
    <rect x="0" y="0" width="250" height="130" fill="none" stroke="black" stroke-width="1" stroke-dasharray="5,3"/>
    <text x="125" y="-10" text-anchor="middle" font-family="Arial" font-size="14">Arduino Nano ESP32 Section</text>
    
    <!-- Arduino Module -->
    <rect x="75" y="30" width="100" height="60" fill="white" stroke="black" stroke-width="1"/>
    <text x="125" y="65" text-anchor="middle" font-family="Arial" font-size="12">Arduino</text>
    <text x="125" y="80" text-anchor="middle" font-family="Arial" font-size="12">Nano ESP32</text>
    
    <!-- Key connections -->
    <line x1="175" y1="40" x2="250" y2="40" stroke="#FFA500" stroke-width="1"/>
    <text x="225" y="35" text-anchor="middle" font-family="Arial" font-size="8">D7 TO MOSFET</text>
    
    <line x1="175" y1="55" x2="250" y2="55" stroke="#FFA500" stroke-width="1" stroke-dasharray="2,1"/>
    <text x="225" y="50" text-anchor="middle" font-family="Arial" font-size="8">I2C LINES</text>
    
    <line x1="125" y1="30" x2="125" y2="15" stroke="red" stroke-width="2"/>
    <text x="130" y="15" font-family="Arial" font-size="8">12V TO VIN</text>
  </g>
  
  <!-- Legend -->
  <g transform="translate(50, 530)">
    <text x="0" y="0" font-family="Arial" font-size="14" font-weight="bold">Legend:</text>
    
    <line x1="0" y1="15" x2="30" y2="15" stroke="red" stroke-width="5"/>
    <text x="35" y="20" font-family="Arial" font-size="12">Wide Power Traces (≥2.5mm)</text>
    
    <line x1="200" y1="15" x2="230" y2="15" stroke="#FFA500" stroke-width="1"/>
    <text x="235" y="20" font-family="Arial" font-size="12">Signal Traces</text>
    
    <line x1="350" y1="15" x2="380" y2="15" stroke="#FFA500" stroke-width="1" stroke-dasharray="2,1"/>
    <text x="385" y="20" font-family="Arial" font-size="12">I2C Signal Traces</text>
    
    <line x1="520" y1="15" x2="550" y2="15" stroke="#0000FF" stroke-width="5"/>
    <text x="555" y="20" font-family="Arial" font-size="12">Ground Connections</text>
    
    <rect x="0" y="30" width="15" height="15" fill="none" stroke="black" stroke-width="1" stroke-dasharray="5,3"/>
    <text x="20" y="43" font-family="Arial" font-size="12">Circuit Section</text>
  </g>
  
  <!-- Design Notes -->
  <g transform="translate(50, 570)">
    <text x="0" y="0" font-family="Arial" font-size="14" font-weight="bold">PCB Design Notes:</text>
    <text x="0" y="20" font-family="Arial" font-size="12">• MOSFET gate trace kept short to minimize inductance</text>
    <text x="0" y="40" font-family="Arial" font-size="12">• Wide traces (≥2.5mm) used for power and MOSFET drain/source connections</text>
    <text x="400" y="20" font-family="Arial" font-size="12">• Flyback diode placed close to inductive load</text>
    <text x="400" y="40" font-family="Arial" font-size="12">• Separate ground planes for power and signal sections</text>
  </g>
</svg>
