<?xml version="1.0" encoding="UTF-8" standalone="no"?>
<svg width="800" height="1200" viewBox="0 0 800 1200" xmlns="http://www.w3.org/2000/svg">
  <!-- Title -->
  <text x="400" y="30" text-anchor="middle" font-family="Arial" font-size="20" font-weight="bold">Component Pinouts</text>
  
  <!-- Voltage Regulators -->
  <g transform="translate(100, 80)">
    <text x="0" y="0" font-family="Arial" font-size="16" font-weight="bold">Voltage Regulators</text>
    
    <!-- LM1085IT-12 Pinout -->
    <g transform="translate(0, 30)">
      <rect x="0" y="0" width="120" height="80" fill="none" stroke="black" stroke-width="1"/>
      <text x="60" y="20" text-anchor="middle" font-family="Arial" font-size="12" font-weight="bold">LM1085IT-12</text>
      
      <!-- Pin diagram -->
      <line x1="20" y1="80" x2="20" y2="100" stroke="black" stroke-width="1.5"/>
      <line x1="60" y1="80" x2="60" y2="100" stroke="black" stroke-width="1.5"/>
      <line x1="100" y1="80" x2="100" y2="100" stroke="black" stroke-width="1.5"/>
      
      <text x="20" y="115" text-anchor="middle" font-family="Arial" font-size="10">1</text>
      <text x="60" y="115" text-anchor="middle" font-family="Arial" font-size="10">2</text>
      <text x="100" y="115" text-anchor="middle" font-family="Arial" font-size="10">3</text>
      
      <text x="20" y="130" text-anchor="middle" font-family="Arial" font-size="10">Input</text>
      <text x="60" y="130" text-anchor="middle" font-family="Arial" font-size="10">GND</text>
      <text x="100" y="130" text-anchor="middle" font-family="Arial" font-size="10">Output</text>
      
      <text x="20" y="145" text-anchor="middle" font-family="Arial" font-size="10">18V</text>
      <text x="100" y="145" text-anchor="middle" font-family="Arial" font-size="10">12V</text>
      
      <!-- TO-220 illustration -->
      <rect x="10" y="40" width="100" height="10" fill="none" stroke="black" stroke-width="1"/>
      <text x="60" y="165" text-anchor="middle" font-family="Arial" font-size="10">TO-220 Package</text>
    </g>
    
    <!-- LM341T-5.0 Pinout -->
    <g transform="translate(200, 30)">
      <rect x="0" y="0" width="120" height="80" fill="none" stroke="black" stroke-width="1"/>
      <text x="60" y="20" text-anchor="middle" font-family="Arial" font-size="12" font-weight="bold">LM341T-5.0</text>
      
      <!-- Pin diagram -->
      <line x1="20" y1="80" x2="20" y2="100" stroke="black" stroke-width="1.5"/>
      <line x1="60" y1="80" x2="60" y2="100" stroke="black" stroke-width="1.5"/>
      <line x1="100" y1="80" x2="100" y2="100" stroke="black" stroke-width="1.5"/>
      
      <text x="20" y="115" text-anchor="middle" font-family="Arial" font-size="10">1</text>
      <text x="60" y="115" text-anchor="middle" font-family="Arial" font-size="10">2</text>
      <text x="100" y="115" text-anchor="middle" font-family="Arial" font-size="10">3</text>
      
      <text x="20" y="130" text-anchor="middle" font-family="Arial" font-size="10">Input</text>
      <text x="60" y="130" text-anchor="middle" font-family="Arial" font-size="10">GND</text>
      <text x="100" y="130" text-anchor="middle" font-family="Arial" font-size="10">Output</text>
      
      <text x="20" y="145" text-anchor="middle" font-family="Arial" font-size="10">12V</text>
      <text x="100" y="145" text-anchor="middle" font-family="Arial" font-size="10">5V</text>
      
      <!-- TO-220 illustration -->
      <rect x="10" y="40" width="100" height="10" fill="none" stroke="black" stroke-width="1"/>
      <text x="60" y="165" text-anchor="middle" font-family="Arial" font-size="10">TO-220 Package</text>
    </g>
  </g>
  
  <!-- Semiconductors -->
  <g transform="translate(100, 280)">
    <text x="0" y="0" font-family="Arial" font-size="16" font-weight="bold">Semiconductors</text>
    
    <!-- IRLZ44N MOSFET Pinout -->
    <g transform="translate(0, 30)">
      <rect x="0" y="0" width="120" height="80" fill="none" stroke="black" stroke-width="1"/>
      <text x="60" y="20" text-anchor="middle" font-family="Arial" font-size="12" font-weight="bold">IRLZ44N</text>
      
      <!-- Pin diagram -->
      <line x1="20" y1="80" x2="20" y2="100" stroke="black" stroke-width="1.5"/>
      <line x1="60" y1="80" x2="60" y2="100" stroke="black" stroke-width="1.5"/>
      <line x1="100" y1="80" x2="100" y2="100" stroke="black" stroke-width="1.5"/>
      
      <text x="20" y="115" text-anchor="middle" font-family="Arial" font-size="10">1</text>
      <text x="60" y="115" text-anchor="middle" font-family="Arial" font-size="10">2</text>
      <text x="100" y="115" text-anchor="middle" font-family="Arial" font-size="10">3</text>
      
      <text x="20" y="130" text-anchor="middle" font-family="Arial" font-size="10">Gate</text>
      <text x="60" y="130" text-anchor="middle" font-family="Arial" font-size="10">Drain</text>
      <text x="100" y="130" text-anchor="middle" font-family="Arial" font-size="10">Source</text>
      
      <text x="20" y="145" text-anchor="middle" font-family="Arial" font-size="10">D7</text>
      <text x="60" y="145" text-anchor="middle" font-family="Arial" font-size="10">Load</text>
      <text x="100" y="145" text-anchor="middle" font-family="Arial" font-size="10">GND</text>
      
      <!-- TO-220 illustration -->
      <rect x="10" y="40" width="100" height="10" fill="none" stroke="black" stroke-width="1"/>
      <text x="60" y="165" text-anchor="middle" font-family="Arial" font-size="10">TO-220 Package</text>
    </g>
    
    <!-- 1N4007 Diode Pinout -->
    <g transform="translate(200, 30)">
      <rect x="0" y="0" width="120" height="80" fill="none" stroke="black" stroke-width="1"/>
      <text x="60" y="20" text-anchor="middle" font-family="Arial" font-size="12" font-weight="bold">1N4007</text>
      
      <!-- Diode Symbol -->
      <line x1="30" y1="50" x2="90" y2="50" stroke="black" stroke-width="1.5"/>
      <polygon points="60,35 90,50 60,65" fill="none" stroke="black" stroke-width="1.5"/>
      <line x1="60" y1="35" x2="60" y2="65" stroke="black" stroke-width="1.5"/>
      
      <line x1="30" y1="50" x2="30" y2="100" stroke="black" stroke-width="1"/>
      <line x1="90" y1="50" x2="90" y2="100" stroke="black" stroke-width="1"/>
      
      <text x="30" y="115" text-anchor="middle" font-family="Arial" font-size="10">Cathode (-)</text>
      <text x="90" y="115" text-anchor="middle" font-family="Arial" font-size="10">Anode (+)</text>
      
      <text x="60" y="135" text-anchor="middle" font-family="Arial" font-size="10">DO-41 Package</text>
    </g>
  </g>
  
  <!-- ADC and Level Shifter -->
  <g transform="translate(100, 480)">
    <text x="0" y="0" font-family="Arial" font-size="16" font-weight="bold">ICs</text>
    
    <!-- ADS1015 ADC Pinout -->
    <g transform="translate(0, 30)">
      <rect x="0" y="0" width="180" height="180" fill="none" stroke="black" stroke-width="1"/>
      <text x="90" y="20" text-anchor="middle" font-family="Arial" font-size="12" font-weight="bold">ADS1015 ADC</text>
      
      <!-- Pin diagram -->
      <line x1="0" y1="40" x2="-20" y2="40" stroke="black" stroke-width="1"/>
      <line x1="0" y1="60" x2="-20" y2="60" stroke="black" stroke-width="1"/>
      <line x1="0" y1="80" x2="-20" y2="80" stroke="black" stroke-width="1"/>
      <line x1="0" y1="100" x2="-20" y2="100" stroke="black" stroke-width="1"/>
      <line x1="0" y1="120" x2="-20" y2="120" stroke="black" stroke-width="1"/>
      
      <text x="-25" y="40" text-anchor="end" font-family="Arial" font-size="10">1</text>
      <text x="-25" y="60" text-anchor="end" font-family="Arial" font-size="10">2</text>
      <text x="-25" y="80" text-anchor="end" font-family="Arial" font-size="10">3</text>
      <text x="-25" y="100" text-anchor="end" font-family="Arial" font-size="10">4</text>
      <text x="-25" y="120" text-anchor="end" font-family="Arial" font-size="10">5</text>
      
      <text x="10" y="40" font-family="Arial" font-size="10">ADDR (GND)</text>
      <text x="10" y="60" font-family="Arial" font-size="10">ALERT (NC)</text>
      <text x="10" y="80" font-family="Arial" font-size="10">GND</text>
      <text x="10" y="100" font-family="Arial" font-size="10">A0 (Pressure Sensor)</text>
      <text x="10" y="120" font-family="Arial" font-size="10">A1 (NC)</text>
      
      <line x1="180" y1="40" x2="200" y2="40" stroke="black" stroke-width="1"/>
      <line x1="180" y1="60" x2="200" y2="60" stroke="black" stroke-width="1"/>
      <line x1="180" y1="80" x2="200" y2="80" stroke="black" stroke-width="1"/>
      <line x1="180" y1="100" x2="200" y2="100" stroke="black" stroke-width="1"/>
      <line x1="180" y1="120" x2="200" y2="120" stroke="black" stroke-width="1"/>
      
      <text x="205" y="40" font-family="Arial" font-size="10">10</text>
      <text x="205" y="60" font-family="Arial" font-size="10">9</text>
      <text x="205" y="80" font-family="Arial" font-size="10">8</text>
      <text x="205" y="100" font-family="Arial" font-size="10">7</text>
      <text x="205" y="120" font-family="Arial" font-size="10">6</text>
      
      <text x="170" y="40" text-anchor="end" font-family="Arial" font-size="10">VDD (5V)</text>
      <text x="170" y="60" text-anchor="end" font-family="Arial" font-size="10">SDA</text>
      <text x="170" y="80" text-anchor="end" font-family="Arial" font-size="10">SCL</text>
      <text x="170" y="100" text-anchor="end" font-family="Arial" font-size="10">A3 (NC)</text>
      <text x="170" y="120" text-anchor="end" font-family="Arial" font-size="10">A2 (NC)</text>
      
      <text x="90" y="160" text-anchor="middle" font-family="Arial" font-size="10">SOIC-10 Package</text>
      <text x="90" y="175" text-anchor="middle" font-family="Arial" font-size="10">Address: 0x48 (ADDR → GND)</text>
    </g>
    
    <!-- PCA9306 Level Shifter Pinout -->
    <g transform="translate(300, 30)">
      <rect x="0" y="0" width="180" height="160" fill="none" stroke="black" stroke-width="1"/>
      <text x="90" y="20" text-anchor="middle" font-family="Arial" font-size="12" font-weight="bold">PCA9306 I2C Level Shifter</text>
      
      <!-- Pin diagram -->
      <line x1="0" y1="40" x2="-20" y2="40" stroke="black" stroke-width="1"/>
      <line x1="0" y1="60" x2="-20" y2="60" stroke="black" stroke-width="1"/>
      <line x1="0" y1="80" x2="-20" y2="80" stroke="black" stroke-width="1"/>
      <line x1="0" y1="100" x2="-20" y2="100" stroke="black" stroke-width="1"/>
      
      <text x="-25" y="40" text-anchor="end" font-family="Arial" font-size="10">1</text>
      <text x="-25" y="60" text-anchor="end" font-family="Arial" font-size="10">2</text>
      <text x="-25" y="80" text-anchor="end" font-family="Arial" font-size="10">3</text>
      <text x="-25" y="100" text-anchor="end" font-family="Arial" font-size="10">4</text>
      
      <text x="10" y="40" font-family="Arial" font-size="10">GND</text>
      <text x="10" y="60" font-family="Arial" font-size="10">VREF1 (3.3V)</text>
      <text x="10" y="80" font-family="Arial" font-size="10">SCL1 (Arduino)</text>
      <text x="10" y="100" font-family="Arial" font-size="10">SDA1 (Arduino)</text>
      
      <line x1="180" y1="40" x2="200" y2="40" stroke="black" stroke-width="1"/>
      <line x1="180" y1="60" x2="200" y2="60" stroke="black" stroke-width="1"/>
      <line x1="180" y1="80" x2="200" y2="80" stroke="black" stroke-width="1"/>
      <line x1="180" y1="100" x2="200" y2="100" stroke="black" stroke-width="1"/>
      
      <text x="205" y="40" font-family="Arial" font-size="10">8</text>
      <text x="205" y="60" font-family="Arial" font-size="10">7</text>
      <text x="205" y="80" font-family="Arial" font-size="10">6</text>
      <text x="205" y="100" font-family="Arial" font-size="10">5</text>
      
      <text x="170" y="40" text-anchor="end" font-family="Arial" font-size="10">VREF2 (5V)</text>
      <text x="170" y="60" text-anchor="end" font-family="Arial" font-size="10">EN (Pull-up)</text>
      <text x="170" y="80" text-anchor="end" font-family="Arial" font-size="10">SCL2 (ADS1015)</text>
      <text x="170" y="100" text-anchor="end" font-family="Arial" font-size="10">SDA2 (ADS1015)</text>
      
      <text x="90" y="130" text-anchor="middle" font-family="Arial" font-size="10">SOIC-8 Package</text>
      <text x="90" y="145" text-anchor="middle" font-family="Arial" font-size="10">Bidirectional I2C level shifter</text>
    </g>
  </g>
  
  <!-- Arduino Nano ESP32 -->
  <g transform="translate(100, 700)">
    <text x="0" y="0" font-family="Arial" font-size="16" font-weight="bold">Arduino Nano ESP32</text>
    
    <rect x="0" y="20" width="600" height="280" fill="none" stroke="black" stroke-width="1"/>
    <text x="300" y="40" text-anchor="middle" font-family="Arial" font-size="14" font-weight="bold">Arduino Nano ESP32</text>
    
    <!-- Left side pins -->
    <g transform="translate(20, 70)">
      <text x="0" y="0" font-family="Arial" font-size="12" font-weight="bold">Left Side</text>
      
      <line x1="0" y1="20" x2="-20" y2="20" stroke="black" stroke-width="1"/>
      <text x="-25" y="23" text-anchor="end" font-family="Arial" font-size="10">D13</text>
      <text x="5" y="23" font-family="Arial" font-size="10">GPIO13</text>
      
      <line x1="0" y1="40" x2="-20" y2="40" stroke="black" stroke-width="1"/>
      <text x="-25" y="43" text-anchor="end" font-family="Arial" font-size="10">+3V3</text>
      <text x="5" y="43" font-family="Arial" font-size="10">3.3V Power Output</text>
      
      <line x1="0" y1="60" x2="-20" y2="60" stroke="black" stroke-width="1"/>
      <text x="-25" y="63" text-anchor="end" font-family="Arial" font-size="10">AREF</text>
      <text x="5" y="63" font-family="Arial" font-size="10">Analog Reference</text>
      
      <line x1="0" y1="80" x2="-20" y2="80" stroke="black" stroke-width="1"/>
      <text x="-25" y="83" text-anchor="end" font-family="Arial" font-size="10">A0</text>
      <text x="5" y="83" font-family="Arial" font-size="10">ADC2_CH0 (Not Used)</text>
      
      <line x1="0" y1="100" x2="-20" y2="100" stroke="black" stroke-width="1"/>
      <text x="-25" y="103" text-anchor="end" font-family="Arial" font-size="10">D1</text>
      <text x="5" y="103" font-family="Arial" font-size="10">GPIO1/TX0</text>
      
      <line x1="0" y1="120" x2="-20" y2="120" stroke="black" stroke-width="1"/>
      <text x="-25" y="123" text-anchor="end" font-family="Arial" font-size="10">D0</text>
      <text x="5" y="123" font-family="Arial" font-size="10">GPIO0/RX0</text>
      
      <line x1="0" y1="140" x2="-20" y2="140" stroke="black" stroke-width="1"/>
      <text x="-25" y="143" text-anchor="end" font-family="Arial" font-size="10">RESET</text>
      <text x="5" y="143" font-family="Arial" font-size="10">Reset</text>
      
      <line x1="0" y1="160" x2="-20" y2="160" stroke="black" stroke-width="1"/>
      <text x="-25" y="163" text-anchor="end" font-family="Arial" font-size="10">GND</text>
      <text x="5" y="163" font-family="Arial" font-size="10">Ground</text>
      
      <line x1="0" y1="180" x2="-20" y2="180" stroke="black" stroke-width="1"/>
      <text x="-25" y="183" text-anchor="end" font-family="Arial" font-size="10">VIN</text>
      <text x="5" y="183" font-family="Arial" font-size="10">Input Voltage (12V)</text>
    </g>
    
    <!-- Right side pins -->
    <g transform="translate(300, 70)">
      <text x="0" y="0" font-family="Arial" font-size="12" font-weight="bold">Right Side</text>
      
      <line x1="0" y1="20" x2="-20" y2="20" stroke="black" stroke-width="1"/>
      <text x="-25" y="23" text-anchor="end" font-family="Arial" font-size="10">D12</text>
      <text x="5" y="23" font-family="Arial" font-size="10">GPIO12</text>
      
      <line x1="0" y1="40" x2="-20" y2="40" stroke="black" stroke-width="1"/>
      <text x="-25" y="43" text-anchor="end" font-family="Arial" font-size="10">D11</text>
      <text x="5" y="43" font-family="Arial" font-size="10">GPIO11</text>
      
      <line x1="0" y1="60" x2="-20" y2="60" stroke="black" stroke-width="1"/>
      <text x="-25" y="63" text-anchor="end" font-family="Arial" font-size="10">D10</text>
      <text x="5" y="63" font-family="Arial" font-size="10">GPIO10</text>
      
      <line x1="0" y1="80" x2="-20" y2="80" stroke="black" stroke-width="1"/>
      <text x="-25" y="83" text-anchor="end" font-family="Arial" font-size="10">D9</text>
      <text x="5" y="83" font-family="Arial" font-size="10">GPIO9</text>
      
      <line x1="0" y1="100" x2="-20" y2="100" stroke="black" stroke-width="1"/>
      <text x="-25" y="103" text-anchor="end" font-family="Arial" font-size="10">D8</text>
      <text x="5" y="103" font-family="Arial" font-size="10">GPIO8</text>
      
      <line x1="0" y1="120" x2="-20" y2="120" stroke="black" stroke-width="1"/>
      <text x="-25" y="123" text-anchor="end" font-family="Arial" font-size="10">D7</text>
      <text x="5" y="123" font-family="Arial" font-size="10">D7 (SOLENOID_PIN)</text>
      <rect x="-30" y="115" width="200" height="15" fill="yellow" fill-opacity="0.3" stroke="none"/>
      
      <line x1="0" y1="140" x2="-20" y2="140" stroke="black" stroke-width="1"/>
      <text x="-25" y="143" text-anchor="end" font-family="Arial" font-size="10">D6</text>
      <text x="5" y="143" font-family="Arial" font-size="10">GPIO6</text>
      
      <line x1="0" y1="160" x2="-20" y2="160" stroke="black" stroke-width="1"/>
      <text x="-25" y="163" text-anchor="end" font-family="Arial" font-size="10">D5</text>
      <text x="5" y="163" font-family="Arial" font-size="10">GPIO5</text>
      
      <line x1="0" y1="180" x2="-20" y2="180" stroke="black" stroke-width="1"/>
      <text x="-25" y="183" text-anchor="end" font-family="Arial" font-size="10">D4</text>
      <text x="5" y="183" font-family="Arial" font-size="10">GPIO4</text>
      
      <line x1="0" y1="200" x2="-20" y2="200" stroke="black" stroke-width="1"/>
      <text x="-25" y="203" text-anchor="end" font-family="Arial" font-size="10">D3</text>
      <text x="5" y="203" font-family="Arial" font-size="10">GPIO3/RX1</text>
      
      <line x1="0" y1="220" x2="-20" y2="220" stroke="black" stroke-width="1"/>
      <text x="-25" y="223" text-anchor="end" font-family="Arial" font-size="10">D2</text>
      <text x="5" y="223" font-family="Arial" font-size="10">GPIO2/TX1</text>
    </g>
    
    <!-- I2C pins highlighted -->
    <g transform="translate(300, 240)">
      <line x1="0" y1="20" x2="-20" y2="20" stroke="black" stroke-width="1"/>
      <text x="-25" y="23" text-anchor="end" font-family="Arial" font-size="10">SDA</text>
      <text x="5" y="23" font-family="Arial" font-size="10">GPIO21 (I2C Data)</text>
      <rect x="-30" y="15" width="200" height="15" fill="yellow" fill-opacity="0.3" stroke="none"/>
      
      <line x1="0" y1="40" x2="-20" y2="40" stroke="black" stroke-width="1"/>
      <text x="-25" y="43" text-anchor="end" font-family="Arial" font-size="10">SCL</text>
      <text x="5" y="43" font-family="Arial" font-size="10">GPIO22 (I2C Clock)</text>
      <rect x="-30" y="35" width="200" height="15" fill="yellow" fill-opacity="0.3" stroke="none"/>
    </g>
  </g>
  
  <!-- Connection Legend -->
  <g transform="translate(100, 1050)">
    <text x="0" y="0" font-family="Arial" font-size="16" font-weight="bold">Key Connections</text>
    
    <rect x="0" y="15" width="15" height="15" fill="yellow" fill-opacity="0.3" stroke="black" stroke-width="1"/>
    <text x="25" y="27" font-family="Arial" font-size="12">Highlighted connections are used in this circuit</text>
    
    <text x="0" y="50" font-family="Arial" font-size="12">• D7: Connected to MOSFET gate via 470Ω resistor (PWM output)</text>
    <text x="0" y="70" font-family="Arial" font-size="12">• GPIO21 (SDA): Connected to PCA9306 SDA1 for I2C data</text>
    <text x="0" y="90" font-family="Arial" font-size="12">• GPIO22 (SCL): Connected to PCA9306 SCL1 for I2C clock</text>
    <text x="0" y="110" font-family="Arial" font-size="12">• 3.3V: Powers PCA9306 VREF1 side</text>
    <text x="0" y="130" font-family="Arial" font-size="12">• VIN: Connected to 12V from LM1085IT-12 regulator</text>
  </g>
</svg>
